<svg id="Capa_1" enable-background="new 0 0 511.907 511.907" height="512" viewBox="0 0 511.907 511.907" width="512" xmlns="http://www.w3.org/2000/svg"><g><path d="m510.542 249.747-37.647-82.824c-2.434-5.355-7.773-8.793-13.655-8.793h-67.765c-8.284 0-15 6.716-15 15s6.716 15 15 15l6.492 71.888 85.265 2.143c2.513 5.529 7.963 8.797 13.664 8.797 10.764-.003 18.204-11.186 13.646-21.211z" fill="#65304a"/><path d="m511.885 255.954v45.24l-15.621 14.1 15.621 15.9v30.23l-16.642 15 16.642 15v30.24l-16.302 15 16.302 15v45.23c0 8.29-6.71 15-15 15h-90.41l-15.062-7.791c-8.28 0-14.938 1.081-14.938-7.209v-240.94z" fill="#ff9f22"/><path d="m120.416 158.13h-67.765c-5.882 0-11.222 3.438-13.655 8.793l-37.647 82.824c-3.429 7.542-.094 16.435 7.448 19.862 7.528 3.423 16.429.106 19.862-7.448l91.605 1.091.152-75.122c8.284 0 15-6.716 15-15s-6.716-15-15-15z" fill="#7d4b56"/><path d="m135.415 255.954v240.94c0 8.29-6.02 3.805-14.3 3.805l-15.7 11.195h-90.41c-8.29 0-15-6.71-15-15v-45.23l8.217-12.923-8.217-17.077v-30.24l11.664-17.024-11.664-12.976v-30.23l9.621-16.027-9.621-13.973v-45.24z" fill="#ffbe00"/><path d="m406.475 158.014v353.88h-75.29l-75.24-30.92-2.74-1.13-72.5 32.05h-75.29v-353.88l16.38-26.68 134.15-1.66 133.77-1.66z" fill="#ffd92c"/><path d="m406.475 158.014v353.88h-75.29l-75.24-30.92v-352.96h133.77z" fill="#ffbe00"/><path d="m406.475 97.834v60.296h-301.06v-60.296c0-5.22 2.72-10.07 7.18-12.8 139.329-85.077 137.325-85.02 143.35-85.02l143.35 85.02c4.46 2.73 7.18 7.58 7.18 12.8z" fill="#a8796f"/><path d="m406.475 97.834v60.296h-150.53v-158.116c5.976 0 3.404-.06 143.35 85.02 4.46 2.73 7.18 7.58 7.18 12.8z" fill="#7d4b56"/><path d="m338.705 208.313v97.05c0 9.215-8.257 16.385-17.62 14.77-8.038-1.607-31.472-4.794-50.081-5.96 0 0-13.833-16.473-15.059-16.533-8.99-.421-15 16.523-15 16.523-48.246 2.92-53.132 10.469-62.4 2.7-3.4-2.85-5.36-7.06-5.36-11.5v-97.05c0-3.97 1.58-7.79 4.39-10.6 14.224-14.238 41.215-10.046 63.388-3.208 0 0 10.435 15.822 14.982 17.56 4.589-1.755 14.984-17.564 14.984-17.564 22.375-6.907 49.201-10.987 63.386 3.212 2.81 2.81 4.39 6.63 4.39 10.6z" fill="#ecf4ff"/><path d="m338.705 208.313v97.05c0 9.215-8.257 16.385-17.62 14.77-.298-.058-25.345-4.458-50.081-5.962-5.106-.311-10.199-5.297-15.059-5.297v-104.234c4.557-1.737 9.634-8.478 14.987-10.129 22.203-6.846 49.152-11.043 63.383 3.202 2.81 2.81 4.39 6.63 4.39 10.6z" fill="#d5e7fd"/><path d="m270.945 194.553v119.61c-1.24-.07-2.47-.14-3.7-.2-3.84-.18-7.64-.29-11.3-.29-4.84 0-9.91.19-15 .49v-119.6c6.01 1.82 11.26 3.71 15 5.14 3.19-1.22 7.49-2.77 12.41-4.34.85-.27 1.71-.54 2.59-.81z" fill="#d5e7fd"/><path d="m270.945 194.553v119.61c-1.24-.07-2.47-.14-3.7-.2-3.84-.18-7.64-.29-11.3-.29v-113.97c3.19-1.22 7.49-2.77 12.41-4.34.85-.27 1.71-.54 2.59-.81z" fill="#b4daff"/><path d="m331.185 368.836v143.058h-150.48v-143.058c0-8.28 6.72-15 15-15h120.48c8.28 0 15 6.72 15 15z" fill="#a8796f"/><path d="m331.185 368.836v143.058h-75.24v-158.058h60.24c8.28 0 15 6.72 15 15z" fill="#7d4b56"/><path d="m240.945 353.836h30v158.058h-30z" fill="#7d4b56"/><path d="m255.945 353.836h15v158.058h-15z" fill="#65304a"/><g fill="#d5e7fd"><path d="m75.185 316.194c0 8.28-6.72 15-15 15h-60.18v-30h60.18c8.28 0 15 6.71 15 15z"/><path d="m75.185 376.424c0 8.28-6.72 15-15 15h-60.18v-30h60.18c8.28 0 15 6.72 15 15z"/><path d="m75.185 436.664c0 8.28-6.72 15-15 15h-60.18v-30h60.18c8.28 0 15 6.71 15 15z"/></g><path d="m511.885 301.194v30h-60.18c-8.28 0-15-6.72-15-15 0-8.29 6.72-15 15-15z" fill="#b4daff"/><path d="m511.885 361.424v30h-60.18c-8.28 0-15-6.72-15-15s6.72-15 15-15z" fill="#b4daff"/><path d="m511.885 421.664v30h-60.18c-8.28 0-15-6.72-15-15 0-8.29 6.72-15 15-15z" fill="#b4daff"/></g></svg>