<svg id="Capa_1" enable-background="new 0 0 512.12 512.12" height="512" viewBox="0 0 512.12 512.12" width="512" xmlns="http://www.w3.org/2000/svg"><g><path d="m150.768 241.048-11.74 15 11.74 15v225.71c0 8.284-6.716 15-15 15h-60.18l-37.761-225.593 15.059-37.647v-30.118l22.702-37.593h60.18c8.284 0 15 6.716 15 15z" fill="#7fea82"/><path d="m150.768 241.048-11.74 15 11.74 15v225.71c0 8.28-6.72 15-15 15h-22.59v-330.95h22.59c8.28 0 15 6.72 15 15z" fill="#00cd72"/><path d="m75.588 241.048h75.18v30h-75.18z" fill="#00cd72"/><path d="m113.178 241.048h37.59v30h-37.59z" fill="#009956"/><path d="m75.42 421.518-7.18 15 7.18 15v60.24h-60.42c-8.284 0-15-6.716-15-15v-45.24l13.09-15-13.09-15v-301c0-8.284 6.716-15 15-15h45.42c8.284 0 15 6.716 15 15z" fill="#a8796f"/><path d="m75.42 421.518-7.18 15 7.18 15v60.24h-37.71v-406.24h22.71c8.284 0 15 6.716 15 15z" fill="#7d4b56"/><path d="m0 421.518h75.42v30h-75.42z" fill="#7d4b56"/><path d="m369.106 383.99c-2.55 0-5.135-.651-7.501-2.021-7.169-4.15-9.617-13.327-5.466-20.497l81.33-140.49c4.15-7.169 13.327-9.619 20.497-5.466 7.169 4.15 9.617 13.327 5.466 20.497l-81.33 140.49c-2.781 4.803-7.818 7.487-12.996 7.487z" fill="#a72e78"/><path d="m446.08 196.697c-3.839 0-7.678-1.464-10.606-4.394l-102.49-102.49c-5.858-5.858-5.858-15.355 0-21.213 5.857-5.858 15.355-5.858 21.213 0l102.49 102.49c5.858 5.858 5.858 15.355 0 21.213-2.929 2.93-6.768 4.394-10.607 4.394z" fill="#a72e78"/><path d="m512.12 203.338c0 24.88-20.24 45.12-45.12 45.12-24.87 0-45.11-20.24-45.11-45.12 0-24.87 20.24-45.11 45.11-45.11 24.88-.001 45.12 20.239 45.12 45.11z" fill="#5a729e"/><path d="m512.12 203.338c0 24.88-20.24 45.12-45.12 45.12v-90.23c24.88-.001 45.12 20.239 45.12 45.11z" fill="#3f558f"/><path d="m414.24 399.108v37.65c0 8.28-6.72 15-15 15h-60.24c-8.28 0-15-6.72-15-15v-37.65c0-24.88 20.24-45.12 45.12-45.12s45.12 20.239 45.12 45.12z" fill="#5a729e"/><path d="m414.24 399.108v37.65c0 8.28-6.72 15-15 15h-30.12v-97.77c24.88-.001 45.12 20.239 45.12 45.12z" fill="#3f558f"/><path d="m482 436.758v60.23c0 8.29-16.019 3.124-24.309 3.124l-178.043-1.362c-8.29 0-23.408 6.528-23.408-1.762v-60.23c0-8.29 6.71-15 15-15h195.76c8.29 0 15 6.709 15 15z" fill="#d9438a"/><path d="m482 436.758v60.23c0 8.29-15.679 6.188-23.969 6.188l-88.911-1.473v-79.944h97.88c8.29-.001 15 6.708 15 14.999z" fill="#a72e78"/><path d="m510.23 496.987c0 8.29-6.72 15-15 15h-256c-8.28 0-15-6.71-15-15 0-8.28 6.72-15 15-15h256c8.28 0 15 6.72 15 15z" fill="#5a729e"/><path d="m510.23 496.987c0 8.29-6.72 15-15 15h-126.11v-30h126.11c8.28 0 15 6.72 15 15z" fill="#3f558f"/><path d="m354.37 89.978-42.6 42.6c-2.92 2.92-6.76 4.39-10.6 4.39s-7.68-1.47-10.61-4.39l-26.63-26.64-26.61-26.61c-2.81-2.81-4.39-6.62-4.39-10.6s1.58-7.8 4.39-10.61l42.59-42.59c20.52-20.52 53.91-20.53 74.44-.01.01 0 .01 0 .02.01 20.52 20.53 20.52 53.93 0 74.45z" fill="#5a729e"/><path d="m354.37 89.978-42.6 42.6c-2.92 2.92-6.76 4.39-10.6 4.39s-7.68-1.47-10.61-4.39l-26.63-26.64 90.42-90.42c.01 0 .01 0 .02.01 20.52 20.53 20.52 53.93 0 74.45z" fill="#3f558f"/><path d="m306.45 233.727c-2.93 2.93-6.77 4.4-10.61 4.4s-7.67-1.47-10.6-4.4l-74.55-74.55-74.53-74.52c-5.86-5.86-5.86-15.36 0-21.21 35.21-35.21 92.49-35.21 127.7 0l42.59 42.59c35.21 35.2 35.21 92.491 0 127.69z" fill="#fc6284"/><path d="m306.45 233.727c-2.93 2.93-6.77 4.4-10.61 4.4s-7.67-1.47-10.6-4.4l-74.55-74.55 74.45-74.45 21.31 21.31c35.21 35.2 35.21 92.491 0 127.69z" fill="#d9438a"/><path d="m37.71 421.518h37.71v30h-37.71z" fill="#65304a"/></g></svg>