<svg id="Capa_1" enable-background="new 0 0 511.93 511.93" height="512" viewBox="0 0 511.93 511.93" width="512" xmlns="http://www.w3.org/2000/svg"><g><path d="m142.94 15.02v30.12c0 8.28-6.72 15-15 15s-15-6.72-15-15v-30.12c0-8.29 6.72-15 15-15s15 6.71 15 15z" fill="#a8796f"/><path d="m142.94 15.02v30.12c0 8.28-6.72 15-15 15v-60.12c8.28 0 15 6.71 15 15z" fill="#7d4b56"/><path d="m225.76 361.37c0 8.29-6.71 15-15 15h-24.07l16.35 118.48c1.13 8.21-4.6 15.78-12.81 16.91-7.944 1.15-15.748-4.417-16.91-12.81l-16.91-122.58h-56.94l-16.91 122.58c-1.04 7.51-7.47 12.95-14.84 12.95-9.192 0-16.113-8.093-14.88-17.05l16.35-118.48h-24.07c-8.29 0-15-6.71-15-15 0-8.28 6.71-15 15-15h28.2l6.52-47.28c1.13-8.2 8.7-13.94 16.91-12.81 8.2 1.13 13.94 8.7 12.81 16.91l-5.95 43.18h48.66l-5.95-43.18c-1.13-8.21 4.61-15.78 12.81-16.91 8.21-1.13 15.78 4.61 16.91 12.81l6.51 47.28h28.21c8.29 0 15 6.72 15 15z" fill="#a8796f"/><path d="m225.76 361.37c0 8.29-6.71 15-15 15h-24.07l16.35 118.48c1.13 8.21-4.6 15.78-12.81 16.91-7.944 1.15-15.748-4.417-16.91-12.81l-16.91-122.58h-28.47v-30h24.33l-5.95-43.18c-1.13-8.21 4.61-15.78 12.81-16.91 8.21-1.13 15.78 4.61 16.91 12.81l6.51 47.28h28.21c8.29 0 15 6.72 15 15z" fill="#7d4b56"/><path d="m255.88 45.14v256c0 8.28-6.71 15-15 15h-225.88c-8.29 0-15-6.72-15-15v-256c0-8.29 6.71-15 15-15h225.88c8.29 0 15 6.71 15 15z" fill="#ecf4ff"/><path d="m255.88 45.14v256c0 8.28-6.71 15-15 15h-112.94v-286h112.94c8.29 0 15 6.71 15 15z" fill="#d5e7fd"/><path d="m97.822 188.213c-8.284 0-15 .737-15-7.547v-52.706c0-8.284 6.716-15 15-15s15 6.716 15 15v52.706c0 8.284-6.715 7.547-15 7.547z" fill="#7fea82"/><path d="m158.058 188.195c-8.284 0-15 .755-15-7.529v-75.294c0-8.284 6.716-15 15-15s15 6.716 15 15v75.294c0 8.284-6.716 7.529-15 7.529z" fill="#ffbe00"/><path d="m195.65 180.67c0 8.28-6.72 15-15 15h-105.42c-8.28 0-15-6.72-15-15 0-8.29 6.72-15 15-15h105.42c8.28 0 15 6.71 15 15z" fill="#01c1f0"/><path d="m195.65 180.67c0 8.28-6.72 15-15 15h-52.71v-30h52.71c8.28 0 15 6.71 15 15z" fill="#00ade9"/><path d="m195.65 240.842c0 8.28-6.72 15-15 15h-105.42c-8.28 0-15-6.72-15-15 0-8.29 6.72-15 15-15h105.42c8.28 0 15 6.71 15 15z" fill="#01c1f0"/><path d="m195.65 240.842c0 8.28-6.72 15-15 15h-52.71v-30h52.71c8.28 0 15 6.71 15 15z" fill="#00ade9"/><path d="m466.735 308.671v37.64c0 8.29-6.71 15-15 15h-135.53c-8.28 0-15-6.71-15-15v-37.64c0-45.64 37.13-82.77 82.77-82.77 45.63 0 82.76 37.13 82.76 82.77z" fill="#ffbe00"/><path d="m466.735 308.671v37.64c0 8.29-6.71 15-15 15h-67.76v-135.41c45.63 0 82.76 37.13 82.76 82.77z" fill="#ff9f22"/><path d="m451.675 188.201c0 37.33-30.37 67.7-67.7 67.7-37.34 0-67.71-30.37-67.71-67.7 0-37.34 30.37-67.71 67.71-67.71 37.33 0 67.7 30.37 67.7 67.71z" fill="#ffe3c0"/><path d="m451.675 188.201c0 37.33-30.37 67.7-67.7 67.7v-135.41c37.33 0 67.7 30.37 67.7 67.71z" fill="#fcd0a2"/><path d="m511.93 353.793-.01 37.756-.01.01-13.27 14.51 13.27 15.47-.03 75.36c0 8.29-6.71 15-15 15h-97.94l-14.97-11.52-.03-.02-15 11.54h-97.94c-8.28 0-15-6.72-15-15v-75.35l19.32-15.14-19.32-14.859v-37.766c0-8.28 6.71-15 15-15h225.93c8.29-.001 15.01 6.72 15 15.009z" fill="#5a729e"/><path d="m511.91 391.56-13.27 14.51 13.27 15.47-.03 75.36c0 8.29-6.71 15-15 15h-97.94l-14.97-11.52v-161.597h112.96c8.29 0 15.01 6.72 15 15.01z" fill="#3f558f"/><path d="m511.88 391.55v30h-112.94v90.35h-30v-90.35h-112.94v-30z" fill="#3f558f"/><path d="m511.88 391.55v30h-112.94v90.35h-14.97v-120.35z" fill="#1c3470"/></g></svg>