<svg id="Capa_1" enable-background="new 0 0 511.961 511.961" height="512" viewBox="0 0 511.961 511.961" width="512" xmlns="http://www.w3.org/2000/svg"><g><path d="m504.393 344.301c-36.116 20.599-34.718 19.318-35.66 21.53-14.06 33.15-38.48 60.73-69.65 78.73-4.65 2.69-7.52 7.63-7.53 13v39.35c0 8.29-6.78 15.01-15.06 15.01h-120.47c-8.28 0-15-6.72-15-15v-36.57c0-6.27-3.9-11.88-9.78-14.06-7.85-2.92-20.63-7.46-39.04-13.37-7.68-2.46-12.4-10.49-10.3-18.29 2.24-8.33 10.95-13 19.07-10.4 3.04.98 46.54-141.18 49.34-140.27 183.773-44.585 175.556-42.549 175.59-42.65-5.69-6.69-4.46-16.66 2.47-21.8 6.65-4.93 16.05-3.54 20.98 3.12 20.61 27.81 31.8 60.69 32.46 95.28.03 1.51.72 2.93 1.9 3.86l22.25 17.5c8.937 7.024 7.453 19.891-1.57 25.03z" fill="#ffe3c0"/><path d="m504.393 344.301c-36.116 20.599-34.718 19.318-35.66 21.53-14.06 33.15-38.48 60.73-69.65 78.73-4.65 2.69-7.52 7.63-7.53 13v39.35c0 8.29-6.78 15.01-15.06 15.01h-60.23v-263.96c114.679-27.817 109.607-26.55 109.64-26.65-5.69-6.69-4.46-16.66 2.47-21.8 6.65-4.93 16.05-3.54 20.98 3.12 20.61 27.81 31.8 60.69 32.46 95.28.03 1.51.72 2.93 1.9 3.86l22.25 17.5c8.937 7.024 7.453 19.891-1.57 25.03z" fill="#fcd0a2"/><path d="m468.563 175.141c-25.6 62.68-67.58 117.74-121.42 159.23-5.88 4.53-14.49 4.26-20.2-1.66-5.433-5.628-2.117-11.776-10.68-21.43-17.564-19.781-49.79-8.892-52.59 16.62-1.11 10.23 2.91 20.07 10.67 26.54 8.461 7.067 7.151 18.785-.7 24.2l-75.84 50.19c-3.79 2.51-8.5 3.16-12.82 1.79-16.95-5.38-31.03-9.65-31.19-9.7-7.93-2.4-12.41-10.77-10.01-18.7s10.78-12.41 18.71-10.01c.13.04-43.37-84.6-30.07-80.42l87.72-197.89c.6-5.06 3.73-9.46 8.31-11.7 81.736-39.904 182.383-16.996 238.27 58.33 3.12 4.22 3.82 9.75 1.84 14.61z" fill="#a8796f"/><path d="m468.563 175.141c-25.6 62.68-67.58 117.74-121.42 159.23-5.88 4.53-14.49 4.26-20.2-1.66-5.433-5.628-2.117-11.776-10.68-21.43v-228.4c61.211 1.195 115.954 31.141 150.46 77.65 3.12 4.22 3.82 9.75 1.84 14.61z" fill="#7d4b56"/><path d="m173.143 346.331v60.24c0 8.28-6.72 15-15 15h-60.24c-8.28 0-15-6.72-15-15v-60.24c0-8.28 6.72-15 15-15h60.24c8.28 0 15 6.72 15 15z" fill="#3f558f"/><path d="m173.143 346.331v60.24c0 8.28-6.72 15-15 15h-30.12v-90.24h30.12c8.28 0 15 6.72 15 15z" fill="#1c3470"/><path d="m195.733 286.101v60.23c0 8.29-6.72 15-15 15h-105.42c-8.28 0-15-6.71-15-15v-60.23c0-8.29 6.72-15 15-15h105.42c8.28 0 15 6.71 15 15z" fill="#5a729e"/><path d="m195.733 286.101v60.23c0 8.29-6.72 15-15 15h-52.71v-90.23h52.71c8.28 0 15 6.71 15 15z" fill="#3f558f"/><path d="m225.704 175.108c-18.86 38.95-7.391 74.252-7.391 110.992 0 8.28-6.72 15-15 15h-60.29l-15-9.95-15 9.95h-60.29c-8.28 0-15-6.72-15-15 0-37.83-6.85-73.31-24.67-108.41-41.09-80.94 19.55-177.64 114.96-177.65 0 .001 137.051 93.758 97.681 175.068z" fill="#ffd92c"/><path d="m244.003 175.661c-18.86 38.95-25.69 73.7-25.69 110.44 0 8.28-6.72 15-15 15h-60.29l-15-6.886v-294.174h.01c93.6 0 155.34 94.31 115.97 175.62z" fill="#ffbe00"/><path d="m169.943 167.371-26.92 34.32v99.42h-30v-99.42l-26.92-34.32c-5.11-6.52-3.97-15.95 2.54-21.07 6.52-5.11 15.95-3.97 21.07 2.55l18.31 23.35 18.31-23.35c5.12-6.52 14.55-7.66 21.07-2.55 6.51 5.12 7.65 14.55 2.54 21.07z" fill="#ffbe00"/><path d="m169.943 167.371-26.92 34.32v99.42h-15v-128.91l18.31-23.35c5.12-6.52 14.55-7.66 21.07-2.55 6.51 5.12 7.65 14.55 2.54 21.07z" fill="#ff9f22"/></g></svg>