<svg id="Capa_1" enable-background="new 0 0 511.88 511.88" height="512" viewBox="0 0 511.88 511.88" width="512" xmlns="http://www.w3.org/2000/svg"><g><path d="m45.12 105.32h421.64v271.06h-421.64z" fill="#ecf4ff"/><path d="m256 105.32h210.76v271.06h-210.76z" fill="#d5e7fd"/><path d="m45.116 97.794c-8.284 0-8.284 82.765 0 82.765h60.235c8.284 0 15-6.716 15-15v-60.235c.001-8.285-75.235-7.53-75.235-7.53z" fill="#01c1f0"/><path d="m158.057 286.088c-37.333 0-67.705 30.373-67.705 67.706v22.588c0 8.284 6.716 15 15 15h105.411c8.284 0 15-6.716 15-15v-22.588c0-37.334-30.373-67.706-67.706-67.706z" fill="#a72e78"/><path d="m158.057 210.794c-29.029 0-52.646 23.617-52.646 52.647s23.617 52.647 52.646 52.647c29.03 0 52.647-23.617 52.647-52.647s-23.617-52.647-52.647-52.647z" fill="#ffe3c0"/><path d="m406.528 165.617h-135.53c-8.284 0-15 6.716-15 15v60.235c0 8.284 6.716 15 15 15h135.53c8.284 0 15-6.716 15-15v-60.235c0-8.284-6.716-15-15-15z" fill="#ffbe00"/><path d="m406.528 286.088h-135.53c-8.284 0-15 6.716-15 15s6.716 15 15 15h135.53c8.284 0 15-6.716 15-15s-6.716-15-15-15z" fill="#00ade9"/><path d="m466.76 90.32h-421.64c-8.29 0-15 6.72-15 15v271.06c0 8.29 6.71 15 15 15h421.64c8.29 0 15-6.71 15-15v-271.06c0-8.28-6.71-15-15-15zm-15 279.35-195.76 3.35-195.88 3.36v-256.06h391.64z" fill="#3f558f"/><path d="m481.76 105.32v271.06c0 8.29-6.71 15-15 15h-210.76v-18.36l195.76-3.35v-249.35h-195.76v-30h210.76c8.29 0 15 6.72 15 15z" fill="#1c3470"/><path d="m511.88 376.38v30.18c0 8.28-6.71 15-15 15h-481.88c-8.29 0-15-6.72-15-15v-30.18c0-8.28 6.71-15 15-15h481.88c8.29 0 15 6.72 15 15z" fill="#5a729e"/><path d="m511.88 376.38v30.18c0 8.28-6.71 15-15 15h-240.88v-60.18h240.88c8.29 0 15 6.72 15 15z" fill="#3f558f"/></g></svg>