<svg id="Capa_1" enable-background="new 0 0 511.88 511.88" height="512" viewBox="0 0 511.88 511.88" width="512" xmlns="http://www.w3.org/2000/svg"><g><path d="m421.53 173.18-22.8 15.67 22.8 14.33v37.76l-13.1 15 13.1 15v37.76l-13.1 18.03 13.1 11.97v158.18c0 8.29-6.72 15-15 15h-45.24l-12.61-14.09-17.39 14.09h-60.35l-15-20.73-15 20.73h-135.59c-8.28 0-15-6.71-15-15v-22.65l12.21-17.29-12.21-12.71v-37.76l7.1-16.42-7.1-13.58v-37.77l15.78-14.53-15.78-15.47v-37.76l10.16-15-10.16-15v-37.76l9.65-16.37-9.65-13.63v-158.18c0-8.29 6.72-15 15-15h301.18c8.28 0 15 6.71 15 15z" fill="#5a729e"/><path d="m421.53 173.18-22.8 15.67 22.8 14.33v37.76l-13.1 15 13.1 15v37.76l-13.1 18.03 13.1 11.97v158.18c0 8.29-6.72 15-15 15h-45.24l-12.61-14.09-17.39 14.09h-60.35l-15-20.73v-491.15h150.59c8.28 0 15 6.71 15 15z" fill="#3f558f"/><path d="m361.29 56.18v60.23c0 8.28-6.71 15-15 15h-180.7c-8.29 0-15-6.72-15-15v-60.23c0-8.29 6.71-15 15-15h180.7c8.29 0 15 6.71 15 15z" fill="#ecf4ff"/><path d="m361.29 56.18v60.23c0 8.28-6.71 15-15 15h-90.35v-90.23h90.35c8.29 0 15 6.71 15 15z" fill="#d5e7fd"/><path d="m421.53 203.18v-30h-331.18v30h60.14l-.17 37.76h-59.97v30h59.84l-.17 37.76h-59.67v30h59.54l-.17 37.77h-59.37v30h59.24l-.17 37.76h-59.07v30h150.59v37.65h30v-173.18h60.35v173.18h30v-173.18h60.24v-30h-60.24v-37.76h60.24v-30h-150.59v-37.76zm-180.59 241.05h-61.52l.17-37.76h61.35zm0-67.76h-61.22l.17-37.77h61.05zm0-67.77h-60.92l.17-37.76h60.75zm0-67.76h-60.62l.17-37.76h60.45zm90.35 30v37.76h-60.35v-37.76z" fill="#3f558f"/><path d="m421.53 203.18v-30h-165.59v338.7h15v-173.18h60.35v173.18h30v-173.18h60.24v-30h-60.24v-37.76h60.24v-30h-150.59v-37.76zm-90.24 67.76v37.76h-60.35v-37.76z" fill="#1c3470"/></g></svg>