<svg id="Capa_1" enable-background="new 0 0 512 512" height="512" viewBox="0 0 512 512" width="512" xmlns="http://www.w3.org/2000/svg"><g><path d="m30.118 436.676h143.059v60.294c0 8.284-6.716 15-15 15h-128.059c-16.634 0-30.118-13.484-30.118-30.118v-1.552l2.638-28.484s10.846-15.14 27.48-15.14z" fill="#b4daff"/><path d="m512 421.619c0 16.63-13.48 30.12-30.12 30.12-487.575-.052-449.717 0-451.76 0-16.57 0-30.06 13.4-30.12 29.99l.022-105.29 33.063-180.7c0-24.81-12.565-50.74 12.575-50.74 404.338-.058 397.801-.9 400.79 1.7 2.98 2.56 4.61 5.75 5.18 9.85 0 .1-.16-1.51 22.2 205.38 22.53 3.16 38.11 21.27 38.11 44.63 0 1.43.06 14.16.06 15.06z" fill="#ecf4ff"/><path d="m512 421.619c0 16.63-13.48 30.12-30.12 30.12-93.88-.01-167.75-.02-225.88-.03v-306.74c175.366-.032 187.627-.726 190.45 1.73 2.98 2.56 4.61 5.75 5.18 9.85 0 .1-.16-1.51 22.2 205.38 22.53 3.16 38.11 21.27 38.11 44.63 0 1.43.06 14.16.06 15.06z" fill="#d5e7fd"/><path d="m511.94 127.969v291.85c-.92-15.8-14.02-28.32-30.06-28.32l-45.185-.045c-8.278-.008-14.985-6.722-14.985-15v-270.528c0-16.357 6.71-23.077 15-23.077h30.11c25.911 0 45.12 19.13 45.12 45.12z" fill="#b4daff"/><path d="m349.43 365.839-93.43-93.43-230.33-230.34c-4.29-4.29-10.75-5.57-16.35-3.25-5.61 2.32-9.26 7.79-9.26 13.86v323.76c0 8.29 6.71 15 15 15h323.76c6.07 0 11.54-3.65 13.86-9.26 2.32-5.6 1.04-12.05-3.25-16.34zm-139.72-44.12c-2.26 5.73-7.79 9.49-13.95 9.49h-120.47c-8.28 0-15-6.72-15-15v-112.94c0-5.98 3.55-11.39 9.04-13.77s11.86-1.27 16.22 2.82l120.47 112.94c4.49 4.21 5.96 10.74 3.69 16.46z" fill="#ffbe00"/><path d="m352.68 382.179c-2.32 5.61-7.79 9.26-13.86 9.26h-82.82v-119.03l93.43 93.43c4.29 4.29 5.57 10.74 3.25 16.34z" fill="#ff9f22"/><path d="m353.765.03c8.285 0 15 6.715 15 15v30.117c0 8.285-6.715 15-15 15s-15-6.715-15-15v-30.118c.001-8.283 6.716-14.999 15-14.999z" fill="#3f558f"/><path d="m316.179 263.618c0-90.249-.009-124.221-.005-143.24 0 0 13.027-15.603 13.072-16.141.698-7.414-11.728-13.859-11.728-13.859.525-5.595 1.353-14.431 4.37-46.63.72-7.71 7.19-13.6 14.94-13.6h33.88c7.74 0 14.21 5.89 14.93 13.6 2.156 23.001 3.542 35.618 4.424 46.626 0 0-13.295 11.407-13.072 17.693.133 3.742 14.391 12.311 14.391 12.311.344 23.354-.023 54.24-.023 143.24 0 8.29-6.72 15-15 15h-45.18c-8.289 0-14.999-6.71-14.999-15z" fill="#01c1f0"/><path d="m316.179 120.379c0-19.819-.342-12.132 1.34-30h72.49c1.7 18.063 1.35 10.349 1.35 30z" fill="#00ade9"/></g></svg>