<svg id="Capa_1" enable-background="new 0 0 511.88 511.88" height="512" viewBox="0 0 511.88 511.88" width="512" xmlns="http://www.w3.org/2000/svg"><g><path d="m486.27 162.51c-199.273 199.285-124.218 124.23-323.76 323.76-9.39 9.39-2.777 25.61 10.61 25.61h323.76c4 0 7.671-1.585 10.38-4.18 0 0 3.297-6.665 3.297-10.941l1.323-323.639c0-13.386-16.219-20.001-25.61-10.61zm-162.63 274.08c99.725-106.371 10.449-11.16 112.95-120.47v120.47z" fill="#ffbe00"/><path d="m511.88 173.12v323.76c0 4.11-1.93 8.11-4.62 10.82l-70.67-71.11s0-17.924 0-120.47c-.914.975-58.052 61.905-58.63 62.53l-53.91-53.91 162.22-162.23c9.39-9.39 25.61-2.777 25.61 10.61z" fill="#ff9f22"/><path d="m135.41 60.17v60.24c0 8.257-6.716 15-14.99 15h-60.25c-4.34 0-8.46-1.89-11.32-5.17-2.85-3.28 1.1-7.02 1.72-11.32l2.23-53.38c.877-6.406 5.976-11.801 12.74-12.75l51.52-1.97c4.3-.61 9.9-4.82 13.18-1.97 3.29 2.85 5.17 6.98 5.17 11.32z" fill="#5a729e"/><path d="m135.41 60.17v60.24c0 4.11-1.67 7.85-4.35 10.56l-55.88-55.79c-5.579-5.584-11.717-11.027-18.47-17.78 1.469-1.869 4.992-4.072 8.83-4.61l51.52-1.97c4.3-.61 9.9-4.82 13.18-1.97 3.29 2.85 5.17 6.98 5.17 11.32z" fill="#3f558f"/><path d="m316.18 45.17h-61.04c.501-14.057-.2-25.344-.2-29.23 0-8.29-6.71-15-15-15s-15 6.71-15 14.99c0 5.288.727 15.32.18 29.24h-149.94v-30.17c0-8.29-6.72-15-15.01-15-8.27 0-14.99 6.71-15 14.99v30.18h-30.18c-8.27 0-14.99 6.72-14.99 15 0 8.29 6.71 15.01 15 15.01h30.18l-.01 150.66c-13.809.172-23.411-.881-29.23-.91-8.29 0-15 6.72-15 15.01 0 8.28 6.72 15 15 15 3.576 0 15.876 1.093 29.24.87v60.36c0 8.29 6.71 15 15 15 8.28.01 15-6.71 15-15v-62.56c90.344-12.438 162.713-79.332 177.25-178.43h63.74c8.29 0 15.01-6.72 15.01-15.01s-6.71-15-15-15zm-241 178.2v-148.19h146.9c-14.07 83.868-75.271 136.95-146.9 148.19z" fill="#d5e7fd"/><path d="m331.18 60.17c0 8.29-6.72 15.01-15.01 15.01h-63.74c-6.592 44.935-25.058 86.324-57.85 119.32v.01l-21.161-21.181c30.87-31.11 43.571-67.809 48.661-98.149h-146.9l-30.01-30.01v-30.18c.01-8.28 6.73-14.99 15-14.99 8.29 0 15.01 6.71 15.01 15v30.17h149.94c.548-13.939-.18-23.916-.18-29.24 0-8.28 6.71-14.99 15-14.99s15 6.71 15 15c0 4.002.704 15.1.2 29.23h61.04c8.29 0 15 6.71 15 15z" fill="#b4daff"/><path d="m394.335 191.989-30.872 22.189-17.048 25.732-47.913 47.913-34.705 24.721-13.216 23.2-47.914 47.914-37.017 28.334c-2.814 2.814-5.324 5.409-9.291 5.402-3.981.007-7.573-1.068-10.38-3.889-20.538-24.016-12.267-14.342-35.674-41.726-5.862-5.862-5.204-5.176.658-11.024l27.902-40.899 47.914-47.914 25.788-16.256 22.125-31.671 47.913-47.913 29.189-16.179 18.731-31.742 37.272-37.272c5.861-5.861 15.353-5.875 21.228 0l42.589 42.589c5.862 5.862 5.855 15.359 0 21.213z" fill="#27d9f7"/><g fill="#01c1f0"><path d="m394.335 191.989-30.872 22.189-17.048 25.732-47.913 47.913-34.705 24.721-13.216 23.2-47.914 47.914-37.017 28.334c-2.814 2.814-5.324 5.409-9.291 5.402-3.981.007-7.573-1.068-10.38-3.889l-17.034-19.919 281.379-281.379 21.291 21.291c5.862 5.862 5.855 15.359 0 21.213z"/><path d="m202.667 383.658-37.25 37.25c-5.88 5.88-15.395 5.833-21.206-.007l-42.589-42.589c-5.862-5.862-5.869-15.358-.007-21.206l37.25-37.25z"/><path d="m298.501 287.823-47.921 47.921-63.802-63.802 47.914-47.928z"/><path d="m394.335 191.989-47.921 47.921-63.802-63.802 47.914-47.928z"/></g><path d="m320.541 177.446h67.77v45.11h-67.77z" fill="#00ade9" transform="matrix(.707 -.707 .707 .707 -37.613 309.196)"/><path d="m224.707 273.28h67.77v45.11h-67.77z" fill="#00ade9" transform="matrix(.707 -.707 .707 .707 -133.447 269.5)"/><path d="m202.667 383.658-37.25 37.25c-5.88 5.88-15.395 5.833-21.206-.007l-21.291-21.291 47.85-47.85z" fill="#00ade9"/></g></svg>