<svg id="Capa_1" enable-background="new 0 0 511.881 511.881" height="512" viewBox="0 0 511.881 511.881" width="512" xmlns="http://www.w3.org/2000/svg"><g><path d="m172.281.001h-66.93c-8.284 0-15 6.716-15 15v203.29c0 8.284 6.716 15 15 15s15-6.716 15-15v-23.979l43.982-70.307c9.893 6.203 22.948-.863 22.948-12.705v-96.3c0-8.283-6.716-14.999-15-14.999z" fill="#5a729e"/><path d="m406.529 0h-66.928c-8.284 0-15 6.716-15 15v97.883c0 11.883 13.141 18.947 23.034 12.653l43.894 69.133v23.626c0 8.284 6.716 15 15 15s15-6.716 15-15v-203.295c0-8.284-6.716-15-15-15z" fill="#3f558f"/><path d="m421.531 218.292v82.83c0 8.28-6.72 15-15 15-8.29 0-15-6.72-15-15h-271.18c0 8.28-6.71 15-15 15-8.28 0-15-6.72-15-15v-82.83c0-80.18 72.74-143 165.59-143 86.764-.001 165.59 62.366 165.59 143z" fill="#ecf4ff"/><path d="m421.531 218.292v82.83c0 8.28-6.72 15-15 15-8.29 0-15-6.72-15-15h-135.59v-225.831c86.764 0 165.59 62.367 165.59 143.001z" fill="#d5e7fd"/><path d="m466.701 308.588v188.293c0 8.29-30.747-60.23-39.037-60.23l-254.483 75.23h-113c-8.29 0-15-6.71-15-15v-188.293c0-8.29 6.71-15 15-15h113l210.7 39.353c8.29 0 82.82-32.642 82.82-24.353z" fill="#d5e7fd"/><path d="m466.701 308.588v188.293c0 8.29-6.71 15-15 15h-195.76v-218.293h195.76c8.29 0 15 6.711 15 15z" fill="#b4daff"/><path d="m309.707 316.153 16 173.98-69.766 21.748h-82.76v-218.293h82.76z" fill="#5a729e"/><g fill="#3f558f"><path d="m255.941 293.588h82.76v218.293h-82.76z"/><path d="m383.881 361.351c0 8.29-6.71 15-15 15h-225.88c-8.29 0-15-6.71-15-15 0-8.28 6.71-15 15-15h225.88c8.29 0 15 6.72 15 15z"/><path d="m383.881 444.118c0 8.28-6.71 15-15 15h-225.88c-8.29 0-15-6.72-15-15 0-8.29 6.71-15 15-15h225.88c8.29 0 15 6.71 15 15z"/></g><path d="m383.881 444.118c0 8.28-6.71 15-15 15h-112.94v-30h112.94c8.29 0 15 6.71 15 15z" fill="#1c3470"/><path d="m368.881 376.351h-112.94v-30h112.94c8.29 0 15 6.72 15 15 0 8.29-6.71 15-15 15z" fill="#1c3470"/><path d="m308.588 165.591c0 8.28-6.71 15-15 15h-75.294c-8.29 0-15-6.72-15-15 0-8.29 6.71-15 15-15h75.294c8.29 0 15 6.71 15 15z" fill="#5a729e"/><path d="m308.588 225.821c0 8.29-6.71 15-15 15h-75.294c-8.29 0-15-6.71-15-15 0-8.28 6.71-15 15-15h75.294c8.29 0 15 6.721 15 15z" fill="#5a729e"/><path d="m293.588 240.821h-37.647v-30h37.647c8.29 0 15 6.72 15 15 0 8.29-6.71 15-15 15z" fill="#3f558f"/><path d="m293.588 180.591h-37.647v-30h37.647c8.29 0 15 6.71 15 15 0 8.28-6.71 15-15 15z" fill="#3f558f"/></g></svg>