<svg id="Capa_1" enable-background="new 0 0 511.88 511.88" height="512" viewBox="0 0 511.88 511.88" width="512" xmlns="http://www.w3.org/2000/svg"><g><path d="m353.822 421.62v60.23c0 8.29-14.744 3.46-23.731 3.46l-74.152.92-78.076.96c-8.987 0-19.806 2.95-19.806-5.34v-60.23c0-8.29 7.274-15 16.261-15 8.976 0 16.261 6.71 16.261 15h130.721c0-8.29 7.285-15 16.261-15 8.987 0 16.261 6.71 16.261 15z" fill="#3f558f"/><path d="m353.822 421.62v60.23c0 8.29-14.744 3.46-23.731 3.46l-74.152.92v-64.61h65.36c0-8.29 7.285-15 16.261-15 8.988 0 16.262 6.71 16.262 15z" fill="#1c3470"/><path d="m15 45.15h481.88v376.47h-481.88z" fill="#ecf4ff"/><path d="m255.94 45.15h240.94v376.47h-240.94z" fill="#d5e7fd"/><path d="m496.88 120.5v255.88h-90.41l-70.89-19.41-64.52 19.41h-30.24l-67.71-27.58-67.7 27.58h-90.41v-255.88z" fill="#d5e7fd"/><path d="m496.88 120.5v255.88h-90.41l-70.89-19.41-64.52 19.41h-15.12v-255.88z" fill="#b4daff"/><path d="m496.881 210.734h-60.294c-8.284 0-15-6.716-15-15s6.716-15 15-15h60.294c8.284 0 3.633 6.716 3.633 15s4.652 15-3.633 15z" fill="#01c1f0"/><path d="m496.881 270.969h-60.235c-8.284 0-15-6.716-15-15s6.716-15 15-15h60.235c8.284 0 4.934 6.716 4.934 15s3.351 15-4.934 15z" fill="#01c1f0"/><path d="m75.234 210.734h-60.235c-8.284 0-6.569-6.716-6.569-15s-1.715-15 6.569-15h60.236c8.284 0 15 6.716 15 15s-6.717 15-15.001 15z" fill="#27d9f7"/><path d="m75.234 270.969h-60.235c-8.284 0-3.505-5.115-3.505-13.399s-4.779-16.601 3.505-16.601h60.235c8.284 0 15 6.716 15 15s-6.716 15-15 15z" fill="#27d9f7"/><path d="m511.88 45.15v376.47c0 8.28-6.71 15-15 15h-481.88c-8.29 0-15-6.72-15-15v-376.47c0-8.29 6.71-15 15-15h112.94c8.28 0 15 6.71 15 15 0 8.28-6.72 15-15 15h-97.94v346.47h451.88v-346.47h-97.94c-8.28 0-15-6.72-15-15 0-8.29 6.72-15 15-15h112.94c8.29 0 15 6.71 15 15z" fill="#5a729e"/><path d="m511.88 45.15v376.47c0 8.28-6.71 15-15 15h-240.94v-30h225.94v-346.47h-97.94c-8.28 0-15-6.72-15-15 0-8.29 6.72-15 15-15h112.94c8.29 0 15 6.71 15 15z" fill="#3f558f"/><path d="m398.94 30.03v30.23c0 8.29-6.72 15-15 15h-97.88l-30.12-17.1-1.04-.59-29.08 17.69h-97.88c-8.28 0-15-6.71-15-15v-30.23c0-8.29 6.72-15 15-15h97.88l30.12 11.39 30.12-11.39h97.88c8.28 0 15 6.71 15 15z" fill="#3f558f"/><path d="m398.94 30.03v30.23c0 8.29-6.72 15-15 15h-97.88l-30.12-17.1v-31.74l30.12-11.39h97.88c8.28 0 15 6.71 15 15z" fill="#1c3470"/><path d="m225.82 15.03h60.24v60.23h-60.24z" fill="#27d9f7"/><path d="m255.94 15.03h30.12v60.23h-30.12z" fill="#01c1f0"/><path d="m240.82 353.85v22.53h-135.41v-22.53c0-37.33 30.37-67.7 67.71-67.7 37.352 0 67.7 30.216 67.7 67.7z" fill="#a72e78"/><path d="m406.47 353.85v22.53h-135.41v-22.53c0-37.33 30.37-67.7 67.7-67.7 37.267 0 67.71 30.136 67.71 67.7z" fill="#00cd72"/><path d="m338.763 210.851c-29.029 0-52.646 23.617-52.646 52.647s23.617 52.647 52.646 52.647c29.03 0 52.647-23.617 52.647-52.647s-23.617-52.647-52.647-52.647z" fill="#fcd0a2"/><path d="m173.117 210.851c-29.03 0-52.647 23.617-52.647 52.647s23.617 52.647 52.647 52.647c29.029 0 52.646-23.617 52.646-52.647s-23.617-52.647-52.646-52.647z" fill="#ffe3c0"/><path d="m421.587 481.85c0 8.29-6.72 15-15 15h-301.237c-8.28 0-15-6.71-15-15 0-8.28 6.72-15 15-15h150.59l116.915 10.635c8.28-.001 48.732-3.915 48.732 4.365z" fill="#5a729e"/><path d="m421.587 481.85c0 8.29-6.72 15-15 15h-150.647v-30h150.647c8.28 0 15 6.72 15 15z" fill="#3f558f"/></g></svg>