<svg id="Capa_1" enable-background="new 0 0 511.88 511.88" height="512" viewBox="0 0 511.88 511.88" width="512" xmlns="http://www.w3.org/2000/svg"><g><path d="m511.88 120.41v376.47c0 8.28-6.72 15-15 15h-481.88c-8.28 0-15-6.72-15-15v-376.47c0-8.28 6.72-15 15-15h60.23c8.28 0 15 6.72 15 15h331.42c0-8.28 6.72-15 15-15h60.23c8.28 0 15 6.72 15 15z" fill="#a8796f"/><path d="m511.88 120.41v376.47c0 8.28-6.72 15-15 15h-240.94v-391.47h165.71c0-8.28 6.72-15 15-15h60.23c8.28 0 15 6.72 15 15z" fill="#7d4b56"/><path d="m481.76 82.76v384c0 8.29-6.71 15-15 15h-195.76l-15.06-15-15.06 15h-195.76c-8.29 0-15-6.71-15-15v-384c0-8.28 6.71-15 15-15h195.82l14.97 11.39.03-.02 15-11.37h195.82c8.29 0 15 6.72 15 15z" fill="#ecf4ff"/><path d="m481.76 82.76v384c0 8.29-6.71 15-15 15h-195.76l-15.06-15v-387.63l15-11.37h195.82c8.29 0 15 6.72 15 15z" fill="#d5e7fd"/><path d="m240.94 67.76h30v414h-30z" fill="#d5e7fd"/><path d="m255.94 67.76h15v414h-15z" fill="#b4daff"/><path d="m361.29 99.71v50.82c0 8.28-6.72 15-15 15s-15-6.72-15-15v-50.82c0-39.049-31.909-69.71-69.71-69.71h-11.28c-33.02 0-61.75 23.44-68.31 55.74-1.866 9.151-1.4 10.063-1.4 64.79 0 8.28-6.72 15-15 15s-15-6.72-15-15c0-53.526-.642-57.858 2-70.77 9.38-46.21 50.48-79.76 97.71-79.76h11.28c54.082 0 99.71 43.9 99.71 99.71z" fill="#5a729e"/><path d="m361.29 99.71v50.82c0 8.28-6.72 15-15 15s-15-6.72-15-15v-50.82c0-39.049-31.909-69.71-69.71-69.71h-5.64v-30h5.64c54.082 0 99.71 43.9 99.71 99.71z" fill="#3f558f"/><path d="m150.528 158.116h-45.235c-8.284 0-15 6.716-15 15v60.235c0 8.284 6.716 15 15 15h45.235c8.284 0 15-6.716 15-15v-60.235c0-8.284-6.716-15-15-15z" fill="#01c1f0"/><path d="m188.234 135.528h-45.294c-8.284 0-15 6.716-15 15v105.412c0 8.284 6.716 15 15 15h45.294c8.284 0 15-6.716 15-15v-105.412c0-8.284-6.716-15-15-15z" fill="#27d9f7"/><path d="m406.587 158.116h-45.235c-8.284 0-15 6.716-15 15v60.235c0 8.284 6.716 15 15 15h45.235c8.284 0 15-6.716 15-15v-60.235c0-8.284-6.716-15-15-15z" fill="#00ade9"/><path d="m368.94 135.528h-45.294c-8.284 0-15 6.716-15 15v105.412c0 8.284 6.716 15 15 15h45.294c8.284 0 15-6.716 15-15v-105.412c0-8.284-6.716-15-15-15z" fill="#01c1f0"/><path d="m165.646 421.469h-60.235c-8.284 0-15-6.716-15-15s6.716-15 15-15h60.235c8.284 0 15 6.716 15 15s-6.716 15-15 15z" fill="#5a729e"/><path d="m165.646 361.234h-60.235c-8.284 0-15-6.716-15-15s6.716-15 15-15h60.235c8.284 0 15 6.716 15 15s-6.716 15-15 15z" fill="#5a729e"/><g fill="#3f558f"><path d="m406.469 421.469h-60.235c-8.284 0-15-6.716-15-15s6.716-15 15-15h60.235c8.284 0 15 6.716 15 15s-6.715 15-15 15z"/><path d="m406.469 361.234h-60.235c-8.284 0-15-6.716-15-15s6.716-15 15-15h60.235c8.284 0 15 6.716 15 15s-6.715 15-15 15z"/></g></g></svg>