<svg id="Capa_1" enable-background="new 0 0 511.88 511.88" height="512" viewBox="0 0 511.88 511.88" width="512" xmlns="http://www.w3.org/2000/svg"><g><path d="m346.29 0h-75.29l-14.698 3.153c-8.28 0-7.891 3.556-7.891 11.846v60.235c0 8.29-.751 14.996 7.529 14.996h90.35c8.29 0 15-6.71 15-15v-60.23c0-8.29-6.71-15-15-15z" fill="#a72e78"/><path d="m271 0-.06 143.94c0 8.28-6.72 15-15 15s-15-6.72-15-15v-128.94c0-8.29 6.72-15 15-15z" fill="#a8796f"/><path d="m271 0-.06 143.94c0 8.28-6.72 15-15 15v-158.94z" fill="#7d4b56"/><path d="m142.999 188.175-75.299.215c-8.28 0-15 6.72-15 15v293.49c0 8.29 8.045 6.963 16.325 6.963l58.553-.592c8.28 0 15.362 1.92 15.362-6.37 0-333.544-.024-287.207.059-308.706z" fill="#ffbe00"/><path d="m444.18 188.23-75.299-.055c.084 21.502.059-22.475.059 308.705 0 8.29 11.805 4.486 20.085 4.486l50.383-.34c8.28 0 19.772 4.145 19.772-4.145v-293.651c0-8.28-6.72-15-15-15z" fill="#ff9f22"/><path d="m398.94 368.94-6.89 13.17 6.89 16.83v97.94c0 .18 0 .36-.01.54-.4 7.64-9.29 5.31-17.39 5.31l-125.6.52-120.53.5c-8.28 0-22.47 1.42-22.47-6.87v-97.94l6.24-13.85-6.24-16.15v-225c0-8.28 6.72-15 15-15h256c8.28 0 15 6.72 15 15z" fill="#ffd92c"/><path d="m398.94 368.94-6.89 13.17 6.89 16.83v97.94c0 .18 0 .36-.01.54-.4 7.64-9.29 5.31-17.39 5.31l-125.6.52v-374.31h128c8.28 0 15 6.72 15 15z" fill="#ffbe00"/><path d="m398.94 368.94v30h-60.24v97.94c0 8.29-5.4 9.74-13.68 9.74-8.29 0-16.32-1.45-16.32-9.74v-97.94h-105.52v97.94c0 8.29-5.93 7.91-14.21 7.91-8.29 0-15.79.38-15.79-7.91v-97.94h-60.24v-30z" fill="#ecf4ff"/><path d="m398.94 368.94v30h-60.24v97.94c0 8.29-5.4 9.74-13.68 9.74-8.29 0-16.32-1.45-16.32-9.74v-97.94h-52.76v-30z" fill="#d5e7fd"/><path d="m511.88 496.88c0 8.29-6.71 15-15 15h-481.88c-8.29 0-15-6.71-15-15 0-8.28 6.71-15 15-15h240.94l199.979 15c8.29 0 55.961-8.28 55.961 0z" fill="#a8796f"/><path d="m511.88 496.88c0 8.29-6.71 15-15 15h-240.94v-30h240.94c8.29 0 15 6.72 15 15z" fill="#7d4b56"/><g fill="#ecf4ff"><path d="m218.292 218.234h-30.117c-8.284 0-15-6.716-15-15s6.716-15 15-15h30.117c8.284 0 15 6.716 15 15s-6.715 15-15 15z"/><path d="m218.292 278.469h-30.117c-8.284 0-15-6.716-15-15s6.716-15 15-15h30.117c8.284 0 15 6.716 15 15s-6.715 15-15 15z"/><path d="m218.292 338.705h-30.117c-8.284 0-15-6.716-15-15s6.716-15 15-15h30.117c8.284 0 15 6.716 15 15s-6.715 15-15 15z"/></g><path d="m323.705 218.234h-30.117c-8.284 0-15-6.716-15-15s6.716-15 15-15h30.117c8.284 0 15 6.716 15 15s-6.716 15-15 15z" fill="#d5e7fd"/><path d="m323.705 278.469h-30.117c-8.284 0-15-6.716-15-15s6.716-15 15-15h30.117c8.284 0 15 6.716 15 15s-6.716 15-15 15z" fill="#d5e7fd"/><path d="m323.705 338.705h-30.117c-8.284 0-15-6.716-15-15s6.716-15 15-15h30.117c8.284 0 15 6.716 15 15s-6.716 15-15 15z" fill="#d5e7fd"/></g></svg>