<svg id="Capa_1" enable-background="new 0 0 511.88 511.88" height="512" viewBox="0 0 511.88 511.88" width="512" xmlns="http://www.w3.org/2000/svg"><g><path d="m376.35 429.15c0 8.28-6.71 15-15 15h-60.23c-8.29 0-15-6.72-15-15 0-8.29 6.71-15 15-15h15.11v-30.24h-150.7v30.24h15.12c8.28 0 15 6.71 15 15 0 8.28-6.72 15-15 15h-60.24c-8.28 0-15-6.72-15-15 0-8.29 6.72-15 15-15h15.12v-45.24c0-8.28 6.71-15 15-15h75.35v-67.82c0-8.29 6.72-15 15-15 8.29 0 15 6.71 15 15v67.82h75.35c8.29 0 15 6.72 15 15v45.24h15.12c8.29 0 15 6.71 15 15z" fill="#5a729e"/><path d="m376.35 429.15c0 8.28-6.71 15-15 15h-60.23c-8.29 0-15-6.72-15-15 0-8.29 6.71-15 15-15h15.11v-30.24h-75.35v-112.82c8.29 0 15 6.71 15 15v67.82h75.35c8.29 0 15 6.72 15 15v45.24h15.12c8.29 0 15 6.71 15 15z" fill="#3f558f"/><path d="m120.35 158.09v60.23c0 8.29-6.71 15-15 15h-90.35c-.36 0-.72-.01-1.07-.04-6.56-.63-.05-7.47-.05-15.37l-2.68-29.7-2.69-29.79c0-8.29-1.8-15.33 6.49-15.33h90.35c8.29 0 15 6.71 15 15z" fill="#3f558f"/><path d="m120.35 188.21v30.11c0 8.29-6.71 15-15 15h-90.35c-.36 0-.72-.01-1.07-.04-6.56-.63-.05-7.47-.05-15.37l-2.68-29.7z" fill="#1c3470"/><path d="m30 127.97v120.47c0 8.28-6.72 15-15 15-8.29 0-15-6.72-15-15v-120.47c0-8.28 6.71-15 15-15 8.28 0 15 6.72 15 15z" fill="#01c1f0"/><path d="m30 188.21v60.23c0 8.28-6.72 15-15 15-8.29 0-15-6.72-15-15v-60.23z" fill="#00ade9"/><path d="m391.41 135.5v105.42c0 8.28-6.72 15-15 15h-90.35c-8.297 0-15-6.736-15-15h-60.36c0 8.28-6.72 15-15 15h-90.35c-8.28 0-15-6.72-15-15v-105.42c0-8.29 6.72-15 15-15h271.06c8.28 0 15 6.71 15 15z" fill="#5a729e"/><path d="m391.41 188.21v52.71c0 8.28-6.72 15-15 15h-90.35c-8.297 0-15-6.736-15-15h-60.36c0 8.28-6.72 15-15 15h-90.35c-8.28 0-15-6.72-15-15v-52.71z" fill="#3f558f"/><path d="m451.65 105.38v165.65c0 8.28-6.72 15-15 15h-60.24c-8.28 0-15-6.72-15-15v-165.65c0-8.28 6.72-15 15-15h60.24c8.28 0 15 6.72 15 15z" fill="#3f558f"/><path d="m451.65 188.21v82.82c0 8.28-6.72 15-15 15h-60.24c-8.28 0-15-6.72-15-15v-82.82z" fill="#1c3470"/><path d="m255.88 120.5c0 126.908.296 117.286-.69 120.42-4.425 13.916-24.205 13.926-28.61 0-1.014-3.151-.7 6.472-.7-120.42z" fill="#3f558f"/><path d="m511.88 82.73v210.83c0 8.28-6.71 15-15 15h-60.23c-8.29 0-15-6.72-15-15v-210.83c0-8.28 6.71-15 15-15h60.23c8.29 0 15 6.72 15 15z" fill="#01c1f0"/><path d="m511.88 188.21v105.35c0 8.28-6.71 15-15 15h-60.23c-8.29 0-15-6.72-15-15v-105.35z" fill="#00ade9"/><ellipse cx="240.88" cy="240.91" fill="#01c1f0" rx="60.18" ry="60.18" transform="matrix(.23 -.973 .973 .23 -48.928 419.997)"/><path d="m301.06 240.91c0 33.18-27 60.18-60.18 60.18v-120.36c33.18 0 60.18 27 60.18 60.18z" fill="#00ade9"/></g></svg>