<svg id="Capa_1" enable-background="new 0 0 511.881 511.881" height="512" viewBox="0 0 511.881 511.881" width="512" xmlns="http://www.w3.org/2000/svg"><g><path d="m485.594.001h-361.42c-3.98 0-7.79 1.58-10.61 4.39-2.81 2.82-4.39 6.63-4.39 10.61l.002 421.65c0 8.284 6.715 14.999 14.999 15l-.001 30.23c-4.14 0-7.89 1.68-10.6 4.4-2.72 2.71-4.4 6.46-4.4 10.6 0 8.28 6.72 15 15 15h361.42c8.28 0 15-6.72 15-15v-481.88c0-8.28-6.72-15-15-15z" fill="#ecf4ff"/><path d="m500.594 15.001v481.88c0 8.28-6.72 15-15 15h-180.71v-511.88h180.71c8.28 0 15 6.72 15 15z" fill="#d5e7fd"/><path d="m301.937 367.572c-57.998-79.548-205.569-281.924-263.53-361.41-8.526-11.695-27.12-5.625-27.12 8.84v361.41c0 8.28 6.72 15 15 15h263.53c12.26 0 19.339-13.955 12.12-23.84zm-132.59-36.39h-82.83c-8.28 0-15-6.72-15-15v-112.95c0-14.457 18.539-20.53 27.1-8.87 37.561 51.217 19.163 26.129 82.83 112.95 7.247 9.893.174 23.87-12.1 23.87z" fill="#ffbe00"/><path d="m385.134 478.769-39.702 20.426c-1.728.947-10.542 12.018-10.542 12.018s-78.863.114-270.947.114c-8.28 0-15-6.71-15-15v-45.18c0-8.28 6.72-15 15-15h270.95 3.68c5.161 0 34.562 29.091 34.562 29.091 10.434 5.648 22.468 7.842 11.999 13.531z" fill="#27d9f7"/><path d="m390.836 473.736c0 5.5-2.564 8.786-7.404 11.416l-38.064 16.787c-1.728.947-10.476 9.447-10.476 9.447s-78.856-.06-270.95-.06c-8.28 0-15-6.71-15-15v-22.59z" fill="#01c1f0"/><path d="m395.183 473.736s-2.62 10.35-7.85 13.19c-48.94 26.56-42.47 24.4-52.44 24.4v-75.18c9.97 0 3.48-2.17 52.44 24.41 5.22 2.83 7.85 8 7.85 13.18z" fill="#5a729e"/><path d="m395.183 473.736c0 5.5-3.01 10.56-7.85 13.19-48.94 26.56-42.47 24.46-52.44 24.46v-.255-37.395z" fill="#3f558f"/><path d="m425.364 60.231h-105.41c-8.284 0-15 6.716-15 15v85.4c0 8.284 6.716 15 15 15 4.636 0 8.779-2.105 11.53-5.41l1.009.839c-2.165 2.6-3.47 5.942-3.47 9.59 0 8.284 6.716 15 15 15h81.34c8.284 0 15-6.716 15-15v-105.419c.001-8.284-6.715-15-14.999-15z" fill="#00cd72"/><path d="m365.064 203.231c0 33.19-26.99 60.18-60.17 60.18h-.01c-33.18-.01-60.17-26.99-60.17-60.18 0-33.18 26.99-60.16 60.17-60.17h.01c33.18 0 60.17 26.99 60.17 60.17z" fill="#01c1f0"/><path d="m365.064 203.231c0 33.19-26.99 60.18-60.17 60.18h-.01v-120.35h.01c33.18 0 60.17 26.99 60.17 60.17z" fill="#00ade9"/><g fill="#3f558f"><path d="m425.361 323.647h-67.765c-8.284 0-15-6.716-15-15s6.716-15 15-15h67.765c8.284 0 15 6.716 15 15s-6.716 15-15 15z"/><path d="m425.361 383.882h-67.765c-8.284 0-15-6.716-15-15s6.716-15 15-15h67.765c8.284 0 15 6.716 15 15s-6.716 15-15 15z"/></g></g></svg>