<svg id="Capa_1" enable-background="new 0 0 512.058 512.058" height="512" viewBox="0 0 512.058 512.058" width="512" xmlns="http://www.w3.org/2000/svg"><g><path d="m60.294 82.88h-45.235c-8.284 0-15 6.716-15 15v128.059l14.558 27.574 60.677 2.426 15.059-75.235-15.059-60.176v-22.648c0-8.284-6.716-15-15-15z" fill="#00cd72"/><path d="m135.529 120.527h-60.235v135.412h75.235v-120.412c0-8.284-6.715-15-15-15z" fill="#ffbe00"/><path d="m496.941 496.88c-8.284 0-15-6.716-15-15v-203.294c0-8.284 6.716-15 15-15s9.08 5.984 9.08 14.268l5.92 15.795v188.231c0 8.284-6.715 15-15 15z" fill="#65304a"/><path d="m180.706 361.41-90.353-15.059-90.353 15.059v67.764l90.353 15.059 90.353-15.059z" fill="#7d4b56"/><path d="m180.706 293.645-82.824-15.059-97.823 15.059v67.765h180.647z" fill="#65304a"/><path d="m180.706 429.174h-180.706v52.765c0 8.284 6.716 15 15 15h150.588c8.284 0 15.118-6.716 15.118-15z" fill="#65304a"/><path d="m511.94 240.939.118 52.71h-511.88l-.118-67.71h496.88c8.28 0 15 6.72 15 15z" fill="#a8796f"/><path d="m511.94 240.939v52.71h-255.94v-67.71h240.94c8.28 0 15 6.72 15 15z" fill="#7d4b56"/><path d="m496.94 30.119v150.58h-83.15c-34.731-5.944-7.567-1.293-142.73-24.44v-126.14z" fill="#ecf4ff"/><path d="m496.94 30.119v150.58h-83.15l-26.06-4.46v-146.12z" fill="#d5e7fd"/><path d="m511.94 30.119v150.58c0 8.28-6.72 15-15 15h-83.15c-8.28 0-15-6.72-15-15s6.72-15 15-15h68.15v-120.58h-195.88v111.14c0 8.28-6.72 15-15 15s-15-6.72-15-15v-126.14c0-8.28 6.72-15 15-15h225.88c8.28 0 15 6.72 15 15z" fill="#5a729e"/><path d="m511.94 30.119v150.58c0 8.28-6.72 15-15 15h-83.15c-8.28 0-15-6.72-15-15s6.72-15 15-15h68.15v-120.58h-94.21v-30h109.21c8.28 0 15 6.72 15 15z" fill="#3f558f"/><path d="m361.41 382.759v55.25c0 7.59-4.48 13.75-10.01 13.75h-40.21c-5.53 0-10.01-6.16-10.01-13.75v-55.25c0-7.6 4.48-13.76 10.01-13.76h40.21c5.53 0 10.01 6.16 10.01 13.76z" fill="#3f558f"/><path d="m361.41 382.759v55.25c0 7.59-4.48 13.75-10.01 13.75h-20.11v-82.76h20.11c5.53 0 10.01 6.16 10.01 13.76z" fill="#1c3470"/><path d="m421.59 444.229v37.65c0 8.29-6.72 15-15 15-8.29 0-15-6.71-15-15v-22.65h-45.3v22.65c0 8.29-6.71 15-15 15-8.28 0-15-6.71-15-15v-22.65h-45.29v22.65c0 8.29-6.72 15-15 15s-15-6.71-15-15v-37.65c0-8.28 6.72-15 15-15h75.294l60.235 15.004c8.28 0 30.061-8.284 30.061-.004z" fill="#5a729e"/><path d="m421.59 444.229v37.65c0 8.29-6.72 15-15 15-8.29 0-15-6.71-15-15v-22.65h-45.3v22.65c0 8.29-6.71 15-15 15v-67.65h75.3c8.28 0 15 6.72 15 15z" fill="#3f558f"/><path d="m444.18 308.699-15 15.06 15 15.06v45.18c0 8.28-16.091-5.464-24.371-5.464l-88.518 20.464h-97.88c-8.28 0-15-6.72-15-15v-45.18l15-15.06-15-15.06v-75.29c0-62.24 50.64-112.88 112.88-112.88 0 0 28.412 72.649 47.923 88.729 25.141 20.721 64.967-10.893 64.967 24.151v75.29z" fill="#27d9f7"/><path d="m444.18 308.699-15 15.06 15 15.06v45.18c0 8.28-6.72 15-15 15h-97.89v-278.47c62.25 0 112.89 50.64 112.89 112.88z" fill="#01c1f0"/><path d="m218.41 308.759h225.77v30h-225.77z" fill="#01c1f0"/><path d="m331.29 308.759h112.89v30h-112.89z" fill="#00ade9"/></g></svg>