<svg id="Capa_1" enable-background="new 0 0 511.898 511.898" height="512" viewBox="0 0 511.898 511.898" width="512" xmlns="http://www.w3.org/2000/svg"><g><path d="m391.41 240.889v158.12c0 8.28-6.72 15-15 15s-15-6.72-15-15v-158.12c0-8.28 6.72-15 15-15s15 6.72 15 15z" fill="#ecf4ff"/><path d="m391.41 240.889v158.12c0 8.28-6.72 15-15 15v-188.12c8.28 0 15 6.72 15 15z" fill="#d5e7fd"/><path d="m123.963 381.649c-12.771 0-19.86-15.217-11.211-24.959l147.196-165.784c5.501-6.194 14.981-6.758 21.176-1.258s6.758 14.981 1.258 21.176l-147.196 165.784c-2.964 3.338-7.084 5.041-11.223 5.041z" fill="#ecf4ff"/><path d="m331.18 52.659v180.7c0 8.29-6.72 15-15 15-8.29 0-15-6.71-15-15v-180.7c0-8.29 6.71-15 15-15 8.28 0 15 6.71 15 15z" fill="#ecf4ff"/><path d="m331.18 52.659v180.7c0 8.29-6.72 15-15 15v-210.7c8.28 0 15 6.71 15 15z" fill="#d5e7fd"/><path d="m391.41 240.889c0 41.49-33.75 75.24-75.23 75.24-41.49 0-75.24-33.75-75.24-75.24 0-41.48 33.75-75.23 75.24-75.23 41.48 0 75.23 33.75 75.23 75.23z" fill="#01c1f0"/><path d="m391.41 240.889c0 41.49-33.75 75.24-75.23 75.24v-150.47c41.48 0 75.23 33.75 75.23 75.23z" fill="#00ade9"/><path d="m90.23 60.189v263.52c0 8.29-6.71 15-15 15-8.28 0-15-6.71-15-15v-263.52c0-8.29 6.72-15 15-15 8.29 0 15 6.71 15 15z" fill="#ecf4ff"/><path d="m90.23 60.189v263.52c0 8.29-6.71 15-15 15v-293.52c8.29 0 15 6.71 15 15z" fill="#d5e7fd"/><path d="m150.47 331.239c0 41.49-33.75 75.24-75.24 75.24-41.48 0-75.23-33.75-75.23-75.24 0-41.48 33.75-75.23 75.23-75.23 41.49 0 75.24 33.75 75.24 75.23z" fill="#01c1f0"/><path d="m150.47 331.239c0 41.49-33.75 75.24-75.24 75.24v-150.47c41.49 0 75.24 33.75 75.24 75.23z" fill="#00ade9"/><path d="m481.76 399.009v97.88c0 8.29-6.71 15-15 15h-37.64l-15-11.88-15 11.88h-45.42l-15-12.9-15 12.9h-37.64c-8.29 0-15-6.71-15-15v-97.88c0-8.29 6.71-15 15-15h37.64l15 17.62 15-17.62h45.42l17.14 13.54 12.86-13.54h37.64c8.29 0 15 6.71 15 15z" fill="#fc6284"/><path d="m481.76 399.009v97.88c0 8.29-6.71 15-15 15h-37.64l-15-11.88-15 11.88h-22.71v-127.88h22.71l17.14 13.54 12.86-13.54h37.64c8.29 0 15 6.71 15 15z" fill="#d9438a"/><path d="m323.705 384.009h30v127.88h-30z" fill="#d9438a"/><path d="m399.116 384.009h30v127.88h-30z" fill="#a72e78"/><path d="m507.488 267.931c-31.848-31.847-30.93-31.465-34.346-33.072-2.401-1.131-5.151-1.632-7.86-1.364-7.145.705-7.106 2.3-39.242 34.437-9.477 9.476-2.637 25.606 10.606 25.606 7.212 0 10.386-4.173 15.117-8.904v46.61c0 8.284 6.716 15 15 15s15-6.716 15-15v-46.611c4.831 4.831 7.927 8.905 15.118 8.905 13.243 0 20.085-16.13 10.607-25.607z" fill="#00cd72"/><path d="m176.196 124.874c-4.365-4.365-11.161-5.717-17.014-2.944-3.332 1.572-2.304 1.045-34.319 33.059-9.477 9.477-2.637 25.607 10.606 25.607 7.209 0 10.382-4.169 15.118-8.905v46.611c0 8.284 6.716 15 15 15s15-6.716 15-15v-46.61c4.831 4.831 7.926 8.904 15.117 8.904 13.242 0 20.085-16.129 10.606-25.606z" fill="#7fea82"/><path d="m511.88 15.009v45.23c0 8.29-6.71 15-15 15h-481.88c-8.29 0-15-6.71-15-15v-45.23c0-8.29 6.71-15 15-15h481.88c8.29 0 15 6.71 15 15z" fill="#5a729e"/><path d="m511.88 15.009v45.23c0 8.29-6.71 15-15 15h-240.91v-75.23h240.91c8.29 0 15 6.71 15 15z" fill="#3f558f"/></g></svg>