<svg id="Capa_1" enable-background="new 0 0 511.88 511.88" height="512" viewBox="0 0 511.88 511.88" width="512" xmlns="http://www.w3.org/2000/svg"><g><path d="m244.598 451.7c0 8.28-6.72 15-15 15-111.17 0-202.51-86.52-210.22-195.76 0 0 7.047-9.458 7.038-14.426-.009-5.039-7.087-15.578-7.087-15.578 7.557-107.974 98.023-195.756 210.269-195.756 8.28 0 15 6.72 15 15s-6.72 15-15 15v60.35c-61.387 0-112.077 46.132-119.48 105.41-.614 4.916-23.064 9.922-23.064 15 0 5.077 22.45 10.084 23.064 15 7.401 59.233 58.042 105.41 119.479 105.41v60.35c8.28 0 15.001 6.72 15.001 15z" fill="#ffd92c"/><path d="m244.598 451.7c0 8.28-6.72 15-15 15-111.84 0-202.525-87.153-210.23-195.759-.352-4.958 3.899-8.194 3.899-13.235l77.872.085c0 5.077 8.365 8.232 8.979 13.149 7.401 59.233 58.042 105.41 119.479 105.41v60.35c8.28 0 15.001 6.72 15.001 15z" fill="#ffbe00"/><path d="m110.118 270.94h-90.74c-.709-9.745-.78-19.945-.048-30.003l90.788.003c-1.198 9.66-1.282 19.664 0 30z" fill="#ffbe00"/><path d="m109.187 255.94c0 5.08.32 10.08.93 15h-90.74c-.36-4.95-.54-9.96-.54-15z" fill="#ff9f22"/><path d="m342.538 112.94-22.5 12.09 22.5 17.91v98l-14.85 15 14.85 15v98l-13.82 15 13.82 15v97.94c0 8.29-6.71 15-15 15h-90.47c-8.28 0-15-6.71-15-15v-481.88c0-8.29 6.72-15 15-15h90.47c8.29 0 15 6.71 15 15z" fill="#ffbe00"/><path d="m342.538 270.94v225.94c0 8.29-6.71 15-15 15h-90.47c-8.28 0-15-6.71-15-15v-240.94h105.62z" fill="#ff9f22"/><path d="m342.538 368.94v30h-52.7c-8.29 0-15-6.72-15-15 0-8.29 6.71-15 15-15z" fill="#ffbe00"/><path d="m342.538 112.94v30h-52.7c-8.29 0-15-6.72-15-15 0-8.29 6.71-15 15-15z" fill="#ffd92c"/><path d="m342.538 240.94v30h-52.7c-8.29 0-15-6.72-15-15 0-8.29 6.71-15 15-15z" fill="#ffd92c"/><path d="m342.538 255.94v15h-52.7c-8.29 0-15-6.72-15-15z" fill="#ffbe00"/><path d="m478.068 112.82h-75.29c-8.657 0-14.993-7.117-15-15-.002-2.052.411-4.156 1.34-6.2l37.65-82.83c2.669-5.853 8.164-8.775 13.657-8.775 0 0 5.123 13.716 7.779 19.564l37.021 71.872c.93 2.046-.511 4.843-.511 6.894 0 7.891 2.015 14.475-6.646 14.475z" fill="#5a729e"/><path d="m478.068 112.82h-37.65l.007-112.805c5.88 0 11.223 3.425 13.653 8.775l37.65 82.83c.93 2.046 1.34 4.149 1.34 6.2 0 7.891-6.339 15-15 15z" fill="#3f558f"/><path d="m493.068 97.82v45.24l-10.992 16.518 10.992 13.482v248.59l-12.184 16.907 12.184 13.093v45.23c0 8.29-6.71 15-15 15h-75.29c-8.28 0-15-6.71-15-15v-45.23l13.191-15-13.191-15v-248.59l14.128-16.035-14.128-13.965v-45.24z" fill="#7fea82"/><g fill="#00cd72"><path d="m493.068 97.82v45.24l-10.992 16.518 10.992 13.482v248.59l-8.95 14.184 8.95 15.816v45.23c0 8.29-6.71 15-15 15h-37.65v-414.06z"/><path d="m387.778 143.06h105.29v30h-105.29z"/><path d="m387.778 421.65h105.29v30h-105.29z"/></g><path d="m440.418 143.06h52.65v30h-52.65z" fill="#009956"/><path d="m440.418 421.65h52.65v30h-52.65z" fill="#009956"/></g></svg>