<svg id="Capa_1" enable-background="new 0 0 511.88 511.88" height="512" viewBox="0 0 511.88 511.88" width="512" xmlns="http://www.w3.org/2000/svg"><g><path d="m496.88 346.23c8.29 0 15-6.71 15-15 0-8.28-6.71-15-15-15h-30.18v-135.64h30.18c8.28 0 15-6.71 15-15 0-8.28-6.72-15-15-15h-30.18v-75.41h22.65c8.29 0 15-6.72 15-15 0-8.29-6.71-15-15-15h-22.65v-30.18c0-8.29-6.71-15-15-15-8.28 0-15 6.71-15 15v30.18h-361.52v-30.18c0-8.29-6.72-15-15-15-8.29 0-15 6.71-15 15v30.18h-30.18c-8.29 0-15 6.71-15 15 0 8.28 6.71 15 15 15h30.18v75.41h-30.18c-8.29 0-15 6.72-15 15 0 8.29 6.71 15 15 15h30.18v135.64h-30.18c-8.29 0-15 6.72-15 15 0 8.29 6.71 15 15 15h30.18v135.65h-30.18c-8.29 0-15 6.72-15 15 0 8.29 6.71 15 15 15h481.88c8.29 0 15-6.71 15-15 0-8.28-6.71-15-15-15h-30.18v-135.65zm-353.82 135.65h-67.88v-30.23h67.88zm97.88 0h-67.88v-30.23h67.88zm97.88 0h-67.88v-30.23h67.88zm97.88 0h-67.88v-30.23h67.88zm0-60.23h-361.52v-75.42h361.52zm0-105.42h-361.52v-135.64h361.52zm0-165.64h-361.52v-75.41h361.52z" fill="#a8796f"/><path d="m496.88 346.23c8.29 0 15-6.71 15-15 0-8.28-6.71-15-15-15h-30.18v-135.64h30.18c8.28 0 15-6.71 15-15 0-8.28-6.72-15-15-15h-30.18v-75.41h22.65c8.29 0 15-6.72 15-15 0-8.29-6.71-15-15-15h-22.65v-30.18c0-8.29-6.71-15-15-15-8.28 0-15 6.71-15 15v30.18h-180.76v30h180.76v75.41h-180.76v30h180.76v135.64h-180.76v30h180.76v75.42h-180.76v90.23h240.94c8.29 0 15-6.71 15-15 0-8.28-6.71-15-15-15h-30.18v-135.65zm-158.06 135.65h-67.88v-30.23h67.88zm97.88 0h-67.88v-30.23h67.88z" fill="#7d4b56"/><path d="m158.056 225.76c-16.633 0-30.116-13.483-30.116-30.116v-60.118c0-16.633 13.483-30.116 30.116-30.116 16.633 0 30.116 13.483 30.116 30.116v60.118c0 16.633-13.484 30.116-30.116 30.116z" fill="#ffd92c"/><path d="m286.059 225.76c-16.633 0-30.116-13.483-30.116-30.116v-60.118c0-16.633 13.483-30.116 30.116-30.116 16.633 0 30.116 13.483 30.116 30.116v60.118c0 16.633-13.483 30.116-30.116 30.116z" fill="#ffbe00"/><path d="m353.821 391.469c-16.633 0-30.116-13.483-30.116-30.116v-60.118c0-16.633 13.483-30.116 30.116-30.116 16.633 0 30.116 13.483 30.116 30.116v60.118c-.001 16.633-13.484 30.116-30.116 30.116z" fill="#ffbe00"/><path d="m158.056 391.469c-16.633 0-30.116-13.483-30.116-30.116v-60.118c0-16.633 13.483-30.116 30.116-30.116 16.633 0 30.116 13.483 30.116 30.116v60.118c0 16.633-13.484 30.116-30.116 30.116z" fill="#ffd92c"/></g></svg>