<svg id="Capa_1" enable-background="new 0 0 511.88 511.88" height="512" viewBox="0 0 511.88 511.88" width="512" xmlns="http://www.w3.org/2000/svg"><g><path d="m323.7 45.18h-135.52c-8.29 0-15 6.71-15 15v90.41c0 8.28 6.71 15 15 15h135.52c8.29 0 15-6.72 15-15v-90.41c0-8.29-6.71-15-15-15zm-15 90.41h-105.52v-60.41h105.52z" fill="#ffbe00"/><path d="m338.7 60.18v90.41c0 8.28-6.71 15-15 15h-67.76v-30h52.76v-60.41h-52.76v-30h67.76c8.29 0 15 6.71 15 15z" fill="#ff9f22"/><path d="m481.76 301.12v150.58c0 8.29-6.71 15-15 15h-60.29l-47.74-25.59-42.5 25.59h-143.114l-31.916-18.44-43.374 18.44h-52.706c-8.29 0-15-6.71-15-15v-150.58c0-8.29 6.71-15 15-15h421.64c8.29 0 15 6.71 15 15z" fill="#7d4b56"/><path d="m481.76 301.12v150.58c0 8.29-6.71 15-15 15h-52.702l-55.328-25.59-19.97 25.59h-82.82v-180.58h210.82c8.29 0 15 6.71 15 15z" fill="#65304a"/><path d="m414.058 301.12v60.29l-11.716 15 11.716 15v75.29h-75.298v-75.29l11.6-15-11.6-15v-60.29c0-8.29 5.607-15 12.516-15h50.265c6.909 0 12.517 6.71 12.517 15z" fill="#ffbe00"/><path d="m338.763 361.41h75.294v30h-75.294z" fill="#ff9f22"/><path d="m173.116 301.12v60.29l-10.214 15 10.214 15v75.29h-75.29v-75.29l13.383-15-13.383-15v-60.29c0-8.29 5.607-15 12.515-15h50.261c6.908 0 12.514 6.71 12.514 15z" fill="#ffd92c"/><path d="m97.935 361.41h75.181v30h-75.181z" fill="#ffbe00"/><path d="m511.88 120.41v45.24l-25.153 15 25.153 15v105.47c0 8.28-6.71 15-15 15h-481.88c-8.29 0-15-6.72-15-15v-105.47l11.578-17.518-11.578-12.482v-45.24c0-8.28 6.71-15 15-15h45.23l16.71 12.977 13.29-12.977h30.24l13.406 12.211 16.594-12.211h346.41c8.29 0 15 6.72 15 15z" fill="#a8796f"/><path d="m511.88 120.41v180.71c0 8.28-6.71 15-15 15h-240.94v-210.71h240.94c8.29 0 15 6.72 15 15z" fill="#7d4b56"/><path d="m301.06 180.65v60.23c0 8.29-6.72 15-15 15h-60.24c-8.28 0-15-6.71-15-15v-60.23c0-8.29 90.24-8.297 90.24 0z" fill="#ffd92c"/><path d="m301.06 180.65v60.23c0 8.29-6.72 15-15 15h-30.12v-81.45c22.56 0 45.12 2.07 45.12 6.22z" fill="#ffbe00"/><path d="m511.88 165.65v30h-511.88v-30h60.23v-60.24h30v60.24h30.24v-60.24h30v60.24z" fill="#7d4b56"/><path d="m511.88 165.65v30h-.983-254.957v-30z" fill="#65304a"/></g></svg>