<svg id="Capa_1" enable-background="new 0 0 511.88 511.88" height="512" viewBox="0 0 511.88 511.88" width="512" xmlns="http://www.w3.org/2000/svg"><g><path d="m383.97 331.18v150.7c8.28 0 15 6.72 15 15s-6.72 15-15 15h-361.41c-8.28 0-15-6.72-15-15v-481.88c0-8.28 6.72-15 15-15h361.41c8.28 0 15 6.72 15 15v301.18c0 8.28-6.72 15-15 15z" fill="#ecf4ff"/><path d="m383.97 331.18v150.7c8.28 0 15 6.72 15 15s8.28 15 0 15h-195.65v-511.88h180.65c8.28 0 15 6.72 15 15v301.18c0 8.28-6.72 15-15 15z" fill="#d5e7fd"/><path d="m337.205 75.23c0 8.29-6.72 15-15 15h-240.942c-8.28 0-15-6.71-15-15 0-8.28 6.72-15 15-15h240.941c8.281 0 15.001 6.72 15.001 15z" fill="#01c1f0"/><path d="m337.205 75.23c0 8.29-6.72 15-15 15h-118.885v-30h118.885c8.28 0 15 6.72 15 15z" fill="#00ade9"/><path d="m143.028 120.469h-60.235c-8.284 0-15 6.716-15 15v60.235c0 8.284 6.716 15 15 15h60.235c8.284 0 15-6.716 15-15v-60.235c0-8.284-6.715-15-15-15z" fill="#27d9f7"/><path d="m143.028 240.94h-60.235c-8.284 0-15 6.716-15 15v60.235c0 8.284 6.716 15 15 15h60.235c8.284 0 15-6.716 15-15v-60.235c0-8.284-6.715-15-15-15z" fill="#27d9f7"/><path d="m143.028 361.411h-60.235c-8.284 0-15 6.716-15 15v60.235c0 8.284 6.716 15 15 15h60.235c8.284 0 15-6.716 15-15v-60.235c0-8.285-6.715-15-15-15z" fill="#27d9f7"/><g fill="#00ade9"><path d="m323.734 150.469h-105.412c-8.284 0-15-6.716-15-15s6.716-15 15-15h105.412c8.284 0 15 6.716 15 15s-6.716 15-15 15z"/><path d="m257.852 210.705h-39.529c-8.284 0-15-6.716-15-15s6.716-15 15-15h39.529c8.284 0 15 6.716 15 15s-6.716 15-15 15z"/><path d="m323.734 270.94h-105.412c-8.284 0-15-6.716-15-15s6.716-15 15-15h105.412c8.284 0 15 6.716 15 15s-6.716 15-15 15z"/><path d="m257.852 331.175h-39.529c-8.284 0-15-6.716-15-15s6.716-15 15-15h39.529c8.284 0 15 6.716 15 15s-6.716 15-15 15z"/><path d="m298.771 391.41h-80.45c-8.284 0-15-6.716-15-15s6.716-15 15-15h80.45c8.284 0 15 6.716 15 15s-6.716 15-15 15z"/></g><ellipse cx="398.97" cy="406.53" fill="#ecf4ff" rx="90.35" ry="90.35" transform="matrix(.707 -.707 .707 .707 -170.605 401.184)"/><path d="m489.32 406.53c0 49.9-40.45 90.35-90.35 90.35v-180.7c49.9 0 90.35 40.45 90.35 90.35z" fill="#d5e7fd"/><path d="m432.16 439.72c-5.841 5.861-15.338 5.872-21.21 0-14.524-14.524-9.996-9.996-22.59-22.59-2.81-2.81-4.39-6.62-4.39-10.6v-30.12c0-8.28 6.72-15 15-15s15 6.72 15 15v23.91l18.19 18.19c5.86 5.86 5.86 15.36 0 21.21z" fill="#d9438a"/><path d="m432.16 439.72c-5.841 5.861-15.338 5.872-21.21 0l-11.98-11.98v-66.33c8.28 0 15 6.72 15 15v23.91l18.19 18.19c5.86 5.86 5.86 15.36 0 21.21z" fill="#a72e78"/><path d="m398.97 301.18c-58.09 0-105.35 47.26-105.35 105.35s47.26 105.35 105.35 105.35 105.35-47.26 105.35-105.35-47.26-105.35-105.35-105.35zm0 180.7c-41.55 0-75.35-33.8-75.35-75.35s33.8-75.35 75.35-75.35 75.35 33.8 75.35 75.35-33.8 75.35-75.35 75.35z" fill="#fc6284"/><path d="m504.32 406.53c0 58.09-47.26 105.35-105.35 105.35v-30c41.55 0 75.35-33.8 75.35-75.35s-33.8-75.35-75.35-75.35v-30c58.09 0 105.35 47.26 105.35 105.35z" fill="#d9438a"/></g></svg>