<svg id="Capa_1" enable-background="new 0 0 511.88 511.88" height="512" viewBox="0 0 511.88 511.88" width="512" xmlns="http://www.w3.org/2000/svg"><g><path d="m511.88 15v301.18c0 8.28-6.72 15-15 15h-128c-8.28 0-15-6.72-15-15h-45.29c0 8.28-6.72 15-15 15h-75.3c-8.28 0-15-6.72-15-15h-45.29c0 8.28-6.72 15-15 15h-128c-8.28 0-15-6.72-15-15v-301.18c0-8.28 6.72-15 15-15h481.88c8.28 0 15 6.72 15 15z" fill="#00cd72"/><path d="m511.88 15v301.18c0 8.28-6.72 15-15 15h-128c-8.28 0-15-6.72-15-15h-45.29c0 8.28-6.72 15-15 15h-37.65v-331.18h240.94c8.28 0 15 6.72 15 15z" fill="#009956"/><path d="m120.469 60.234h-45.235c-8.284 0-15 6.716-15 15v143.059c0 8.284 6.716 15 15 15h60.235l17.981-67.702-17.981-52.65v-37.707c0-8.284-6.715-15-15-15z" fill="#ffd92c"/><path d="m195.705 112.94h-60.235v120.353h60.235c8.284 0 15-6.716 15-15v-90.353c0-8.284-6.716-15-15-15z" fill="#27d9f7"/><g fill="#d5e7fd"><path d="m436.646 90.234h-105.412c-8.284 0-15-6.716-15-15s6.716-15 15-15h105.412c8.284 0 15 6.716 15 15s-6.716 15-15 15z"/><path d="m436.646 150.469h-165.647c-8.284 0-15-6.716-15-15s6.716-15 15-15h165.647c8.284 0 15 6.716 15 15s-6.716 15-15 15z"/><path d="m436.646 210.705h-165.647c-8.284 0-15-6.716-15-15s6.716-15 15-15h165.647c8.284 0 15 6.716 15 15s-6.716 15-15 15z"/></g><path d="m180.646 338.823c-33.182 0-60.177 26.995-60.177 60.176v30.118c0 8.284 6.716 15 15 15h90.354c8.284 0 15-6.716 15-15v-30.118c0-33.181-26.995-60.176-60.177-60.176z" fill="#d9438a"/><path d="m331.234 338.823c-33.182 0-60.177 26.995-60.177 60.176v30.118c0 8.284 6.716 15 15 15h90.354c8.284 0 15-6.716 15-15v-30.118c0-33.181-26.995-60.176-60.177-60.176z" fill="#a72e78"/><path d="m180.646 263.528c-29.03 0-52.647 23.617-52.647 52.647s23.617 52.647 52.647 52.647c29.029 0 52.646-23.617 52.646-52.647s-23.617-52.647-52.646-52.647z" fill="#ffe3c0"/><path d="m331.234 263.528c-29.029 0-52.646 23.617-52.646 52.647s23.617 52.647 52.646 52.647c29.03 0 52.647-23.617 52.647-52.647s-23.617-52.647-52.647-52.647z" fill="#fcd0a2"/><path d="m511.88 444.12v52.76c0 8.29-6.71 15-15 15h-105.47l-15-8.98-15 8.98h-210.94l-13.87-9.49-16.13 9.49h-105.47c-8.29 0-15-6.71-15-15v-52.76c0-8.29 6.71-15 15-15h105.47l15 15 15-15h105.47l66.702 22.203 52.428-10.383 16.34-11.82h105.47c8.29 0 15 6.71 15 15z" fill="#a8796f"/><path d="m511.88 444.12v52.76c0 8.29-6.71 15-15 15h-105.47l-15-8.98-15 8.98h-105.47v-82.76h105.47l13.66 11.82 16.34-11.82h105.47c8.29 0 15 6.71 15 15z" fill="#7d4b56"/><path d="m120.47 429.12h30v82.76h-30z" fill="#7d4b56"/><path d="m361.41 429.12h30v82.76h-30z" fill="#65304a"/></g></svg>