<svg id="Capa_1" enable-background="new 0 0 512 512" height="512" viewBox="0 0 512 512" width="512" xmlns="http://www.w3.org/2000/svg"><g><path d="m34.655 488.146c-7.641-1.85-15.012-5.771-21.372-11.971l-.01-.01c-17.592-17.592-17.592-46.225 0-63.817l250.269-250.259c5.851-5.861 12.141.02 18.002 5.881 2.72 2.72 10.771 12.221 18.552 21.382 7.041 8.301 13.882 16.332 16.342 18.792 5.721 5.722 16.232 11.582 11.321 17.322-.13.15-.27.3-.41.44l-250.259 250.259" fill="#ecf4ff"/><path d="m13.273 412.349 118.694-118.694h127.635l-182.512 182.511c-3.077 2.942-9.923 8.693-20.465 11.484-9.707 2.57-17.85 1.387-21.97.496-2.53-.603-5.503-1.542-8.682-3.037-4.588-2.158-8.891-5.136-12.69-8.935l286.813-286.823c7.041 8.301 13.882 16.332 16.342 18.792 5.721 5.722 16.232 11.582 11.321 17.322-.13.15-.27.3-.41.44l-250.259 250.26" fill="#d5e7fd"/><path d="m259.601 293.655-182.511 182.511c-17.651 17.651-46.22 17.598-63.807.01 0 0-26.883-26.276-4.07-59.176l122.753-123.345z" fill="#7fea82"/><path d="m359.302 257.851c-5.85 5.849-15.362 5.86-21.222 0-12.974-12.973-93.519-93.519-106.492-106.492-5.861-5.861-5.861-15.362 0-21.212 5.861-5.861 15.362-5.861 21.212 0 66.304 66.291 39.491 39.48 106.502 106.492 5.851 5.86 5.851 15.351 0 21.212z" fill="#d5e7fd"/><path d="m359.302 257.851c-5.85 5.849-15.362 5.86-21.222 0l-53.236-53.236 21.212-21.222 53.246 53.246c5.851 5.86 5.851 15.351 0 21.212z" fill="#b4daff"/><path d="m473.736 374.854c-17.717 45.707-61.839 76.879-112.283 76.879-52.11 0-96.462-33.442-112.613-77.759-3.283-9.525 3.246-19.66 13.742-20.002 210.976 0 198.585-.262 201.493.57 9.74 2.932 13.004 13.626 9.661 20.312z" fill="#01c1f0"/><path d="m473.736 374.854c-17.717 45.707-61.839 76.879-112.283 76.879-.218 0-.14 4.667-.14-97.781 106.268 0 100.576-.46 104.172 1.07 8.139 3.096 11.589 13.156 8.251 19.832z" fill="#00ade9"/><path d="m512 451.733v45.235c0 8.291-6.711 15.002-15.002 15.002h-271.091c-8.281 0-15.002-6.711-15.002-15.002v-45.235c0-8.281 6.721-15.002 15.002-15.002h271.091c8.291 0 15.002 6.721 15.002 15.002z" fill="#5a729e"/><path d="m512 451.733v45.235c0 8.291-6.711 15.002-15.002 15.002h-135.685v-75.239h135.686c8.29 0 15.001 6.721 15.001 15.002z" fill="#3f558f"/><circle cx="112.954" cy="150.578" fill="#d9438a" r="45.125"/><path d="m158.079 150.578c0 24.883-20.242 45.125-45.125 45.125v-90.25c24.883-.001 45.125 20.242 45.125 45.125z" fill="#a72e78"/><path d="m466.815 158.109c0 24.883-20.242 45.125-45.115 45.125-24.883 0-45.125-20.242-45.125-45.125s20.242-45.125 45.125-45.125c24.872 0 45.115 20.242 45.115 45.125z" fill="#ffbe00"/><path d="m466.815 158.109c0 24.883-20.242 45.125-45.115 45.125v-90.25c24.872 0 45.115 20.242 45.115 45.125z" fill="#ff9f22"/><path d="m376.454 60.218c0 33.184-26.993 60.177-60.177 60.177-33.194 0-60.187-26.993-60.187-60.177 0-33.194 26.993-60.187 60.187-60.187 33.184 0 60.177 26.992 60.177 60.187z" fill="#00cd72"/><path d="m376.454 60.218c0 33.184-26.993 60.177-60.177 60.177v-120.364c33.184 0 60.177 26.992 60.177 60.187z" fill="#009956"/></g><path d="m259.601 293.655-182.511 182.511c-17.651 17.651-46.22 17.598-63.807.01l182.511-182.521z" fill="#00cd72"/></svg>