<svg id="Capa_1" enable-background="new 0 0 511.88 511.88" height="512" viewBox="0 0 511.88 511.88" width="512" xmlns="http://www.w3.org/2000/svg"><g><path d="m270.94 416.69v-47.81c0-8.26-6.69-14.97-14.94-15-8.474 0-15.06 6.829-15.06 15v47.81c-17.52 6.2-30.12 22.92-30.12 42.54 0 24.632 19.972 45.12 45.18 45.12 24.85-.03 45.06-20.26 45.06-45.12 0-19.62-12.6-36.34-30.12-42.54zm-14.94 57.66c-8.594 0-15.18-6.949-15.18-15.12 0-8.229 6.655-15.11 15.18-15.11 8.31.03 15.06 6.8 15.06 15.11 0 8.32-6.75 15.09-15.06 15.12z" fill="#5a729e"/><path d="m301.06 459.23c0 24.86-20.21 45.09-45.06 45.12v-30c8.31-.03 15.06-6.8 15.06-15.12 0-8.31-6.75-15.08-15.06-15.11v-90.24c8.25.03 14.94 6.74 14.94 15v47.81c17.52 6.2 30.12 22.92 30.12 42.54z" fill="#3f558f"/><path d="m481.76 45.12v323.76c0 8.28-6.71 15-15 15h-421.64c-8.29 0-15-6.72-15-15v-323.76c0-8.29 6.71-15 15-15h421.64c8.29 0 15 6.71 15 15z" fill="#ecf4ff"/><path d="m481.76 45.12v323.76c0 8.28-6.71 15-15 15h-210.76v-353.76h210.76c8.29 0 15 6.71 15 15z" fill="#d5e7fd"/><path d="m511.88 22.53v30.17c0 8.29-6.71 15-15 15h-481.88c-8.29 0-15-6.71-15-15v-30.17c0-8.29 6.71-15 15-15h481.88c8.29 0 15 6.71 15 15z" fill="#5a729e"/><path d="m511.88 22.53v30.17c0 8.29-6.71 15-15 15h-240.88v-60.17h240.88c8.29 0 15 6.71 15 15z" fill="#3f558f"/><path d="m112.94 7.53h30v60.17h-30z" fill="#3f558f"/><path d="m368.94 7.53h30v60.17h-30z" fill="#1c3470"/><path d="m240.94 7.53h30v60.17h-30z" fill="#3f558f"/><path d="m256 7.53h14.94v60.17h-14.94z" fill="#1c3470"/><path d="m149.744 153.539h-28.549c-5.172 0-9.979 2.664-12.72 7.05l-13.213 21.141c-3.04 4.864-3.04 11.036 0 15.9l17.619 28.191h45.176l22.588-36.141-18.182-29.091c-2.74-4.385-7.547-7.05-12.719-7.05z" fill="#7fea82"/><path d="m217.509 189.681h-36.863l-22.588 36.141 22.588 36.141h36.863c5.172 0 9.979-2.664 12.72-7.05l13.213-21.141c3.04-4.864 3.04-11.036 0-15.9l-13.213-21.141c-2.741-4.386-7.549-7.05-12.72-7.05z" fill="#d9438a"/><path d="m158.058 225.822h-45.176l-17.619 28.191c-3.04 4.864-3.04 11.036 0 15.9l13.213 21.141c2.741 4.386 7.548 7.05 12.72 7.05h28.549c5.172 0 9.979-2.664 12.72-7.05l18.182-29.091z" fill="#ffbe00"/><g fill="#00ade9"><path d="m398.999 240.822h-90.353c-8.284 0-15-6.716-15-15s6.716-15 15-15h90.353c8.284 0 15 6.716 15 15s-6.716 15-15 15z"/><path d="m270.999 180.587c-3.839 0-7.678-1.465-10.606-4.394-5.858-5.857-5.858-15.355 0-21.213l22.588-22.589c2.813-2.813 6.628-4.394 10.607-4.394h105.412c8.284 0 15 6.716 15 15s-6.716 15-15 15h-99.2l-18.195 18.195c-2.929 2.93-6.768 4.395-10.606 4.395z"/><path d="m398.999 323.645h-105.412c-3.978 0-7.793-1.58-10.606-4.394l-22.588-22.588c-5.858-5.857-5.858-15.355 0-21.213 5.858-5.857 15.356-5.857 21.213 0l18.195 18.194h99.199c8.284 0 15 6.716 15 15s-6.717 15.001-15.001 15.001z"/></g></g></svg>