<svg id="Capa_1" enable-background="new 0 0 511.88 511.88" height="512" viewBox="0 0 511.88 511.88" width="512" xmlns="http://www.w3.org/2000/svg"><g><path d="m45.12 15h421.64v481.88h-421.64z" fill="#ecf4ff"/><path d="m255.94 15h210.82v481.88h-210.82z" fill="#d5e7fd"/><path d="m150.587 225.941h-30.235c-8.284 0-15 6.716-15 15v120.411h60.235v-120.411c0-8.285-6.716-15-15-15z" fill="#7fea82"/><path d="m391.528 225.881h-45.236l-22.588 60.176 22.588 75.235h60.236v-120.411c0-8.284-6.716-15-15-15z" fill="#ffbe00"/><path d="m346.293 225.941h-45.236c-8.284 0-15 6.716-15 15v120.411h60.236z" fill="#00cd72"/><path d="m210.822 60.234h-45.235l-22.589 60.177 22.589 67.765h60.235v-112.942c0-8.284-6.715-15-15-15z" fill="#ffd92c"/><path d="m165.587 60.175h-45.235c-8.284 0-15 6.716-15 15v112.941h60.235z" fill="#00cd72"/><path d="m391.528 60.175h-30.236c-8.284 0-15 6.716-15 15v112.941h60.236v-112.941c0-8.284-6.715-15-15-15z" fill="#00ade9"/><path d="m466.76 0h-421.64c-8.29 0-15 6.71-15 15v481.88c0 8.29 6.71 15 15 15h421.64c8.29 0 15-6.71 15-15v-481.88c0-8.29-6.71-15-15-15zm-15 331.29h-391.64v-135.65c.02 0 .04.01.06.01h391.52c.02 0 .04-.01.06-.01zm0-165.64h-391.64v-135.65h391.64z" fill="#a8796f"/><path d="m481.76 15v481.88c0 8.29-6.71 15-15 15h-210.82v-180.59h195.82v-135.65c-.02 0-.04.01-.06.01h-195.76v-30h195.82v-135.65h-195.82v-30h210.82c8.29 0 15 6.71 15 15z" fill="#7d4b56"/><path d="m195.705 451.646c-8.284 0-15-6.716-15-15v-30.118c0-8.284 6.716-15 15-15s15 6.716 15 15v30.118c0 8.284-6.716 15-15 15z" fill="#7d4b56"/><path d="m316.175 451.646c-8.284 0-15-6.716-15-15v-30.118c0-8.284 6.716-15 15-15s15 6.716 15 15v30.118c0 8.284-6.716 15-15 15z" fill="#65304a"/><path d="m240.94 331.29h30v180.59h-30z" fill="#7d4b56"/><path d="m255.94 331.29h15v180.59h-15z" fill="#65304a"/></g></svg>