<svg id="Capa_1" enable-background="new 0 0 511.88 511.88" height="512" viewBox="0 0 511.88 511.88" width="512" xmlns="http://www.w3.org/2000/svg"><g><path d="m484.514 46.727 27.366 397.453c0 8.28-6.72 15-15 15h-60.23c-8.262 0-15-6.703-15-15h-30.24c0 8.28-6.72 15-15 15h-361.41c-8.28 0-15-6.72-15-15v-429.18c0-8.28 6.72-15 15-15h240.94l210.76 20.174c8.28 0 17.814 18.273 17.814 26.553z" fill="#ecf4ff"/><path d="m496.88 30.897 15 44.333v368.95c0 8.28-6.72 15-15 15h-60.23c-8.262 0-15-6.703-15-15h-30.24c0 8.28-6.72 15-15 15h-120.47v-427.772l210.76-11.234c8.28 0 30.18 2.443 30.18 10.723z" fill="#d5e7fd"/><path d="m511.88 15v60.23h-30.18l-13.53-10.12-16.47 10.12h-30.23l-15-8.84-15 8.84h-30.24l-15-9.35-15 9.35h-331.23v-60.23c0-8.28 6.72-15 15-15h316.23l17.28 14.56 12.72-14.56h30.24l15.06 14.9 14.94-14.9h30.23l15 11.15 15-11.15h15.18c8.28 0 15 6.72 15 15z" fill="#5a729e"/><path d="m511.88 15v60.23h-30.18l-13.53-10.12-16.47 10.12h-30.23l-15-8.84-15 8.84h-30.24l-15-9.35-15 9.35h-75.29v-75.23h75.29l17.28 14.56 12.72-14.56h30.24l15.06 14.9 14.94-14.9h30.23l15 11.15 15-11.15h15.18c8.28 0 15 6.72 15 15z" fill="#3f558f"/><path d="m451.7 0h30v75.23h-30z" fill="#1c3470"/><path d="m391.47 0h30v75.23h-30z" fill="#1c3470"/><path d="m331.23 0h30v75.23h-30z" fill="#1c3470"/><path d="m496.88 225.82c0 49.9-40.45 90.36-90.35 90.36s-90.35-40.46-90.35-90.36 40.45-90.35 90.35-90.35 90.35 40.45 90.35 90.35z" fill="#ecf4ff"/><path d="m496.88 225.82c0 49.9-40.45 90.36-90.35 90.36v-180.71c49.9 0 90.35 40.45 90.35 90.35z" fill="#d5e7fd"/><path d="m421.53 316.18v60.229c0 8.28-6.72 15-15 15-8.29 0-15-6.72-15-15v-60.229c0-8.29 6.71-15 15-15 8.28 0 15 6.71 15 15z" fill="#01c1f0"/><path d="m421.53 316.18v60.229c0 8.28-6.72 15-15 15v-90.229c8.28 0 15 6.71 15 15z" fill="#00ade9"/><path d="m444.18 376.41v120.47c0 8.29-6.72 15-15 15h-45.3c-8.28 0-15-6.71-15-15v-120.47c0-8.28 6.72-15 15-15h22.648l22.588 15.001c8.28 0 15.064-8.281 15.064-.001z" fill="#27d9f7"/><path d="m444.18 376.41v120.47c0 8.29-6.72 15-15 15h-22.65v-150.47h22.65c8.28 0 15 6.72 15 15z" fill="#01c1f0"/><path d="m406.53 120.47c-58.09 0-105.35 47.26-105.35 105.35s47.26 105.36 105.35 105.36c0 0 12.715-10.665 18.825-11.772 49.139-8.902 86.525-41.922 86.525-93.588 0-58.09-47.26-105.35-105.35-105.35zm0 180.71c-41.55 0-75.35-33.81-75.35-75.36s33.8-75.35 75.35-75.35 75.35 33.8 75.35 75.35-33.8 75.36-75.35 75.36z" fill="#27d9f7"/><path d="m511.88 225.82c0 58.09-47.26 105.36-105.35 105.36v-30c41.55 0 75.35-33.81 75.35-75.36s-33.8-75.35-75.35-75.35v-30c58.09 0 105.35 47.26 105.35 105.35z" fill="#01c1f0"/><path d="m210.823 173.175c-8.284 0-15 6.716-15 15h-105.529c0-8.284-6.716-15-15-15s-15 6.716-15 15v50.194c0 6.275 3.906 11.887 9.79 14.066 73.367 27.173 69.137 26.033 72.978 26.033 3.788 0-.566 1.206 72.972-26.033 5.885-2.18 9.79-7.792 9.79-14.066v-50.194c-.001-8.284-6.717-15-15.001-15z" fill="#5a729e"/><path d="m246.325 159.117-97.882-37.647c-3.467-1.334-7.305-1.334-10.77 0l-97.883 37.647c-13.26 5.1-12.611 24.157.974 28.337l97.883 30.117c2.871.884 5.947.885 8.822 0l97.882-30.117c13.567-4.175 14.248-23.231.974-28.337z" fill="#3f558f"/><g fill="#7fea82"><path d="m112.94 338.705h-30.117c-8.284 0-15-6.716-15-15s6.716-15 15-15h30.117c8.284 0 15 6.716 15 15s-6.716 15-15 15z"/><path d="m203.293 338.705h-30.118c-8.284 0-15-6.716-15-15s6.716-15 15-15h30.118c8.284 0 15 6.716 15 15s-6.716 15-15 15z"/><path d="m203.293 398.94h-30.118c-8.284 0-15-6.716-15-15s6.716-15 15-15h30.118c8.284 0 15 6.716 15 15s-6.716 15-15 15z"/><path d="m112.94 398.94h-30.117c-8.284 0-15-6.716-15-15s6.716-15 15-15h30.117c8.284 0 15 6.716 15 15s-6.716 15-15 15z"/></g><path d="m429.06 195.7c0 8.29-6.72 15-15 15h-15.06c-8.29 0-15-6.71-15-15 0-8.28 6.71-15 15-15h15.06c8.28 0 15 6.72 15 15z" fill="#ffbe00"/><path d="m429.06 255.94c0 8.28-6.72 15-15 15h-15.06c-8.29 0-15-6.72-15-15s6.71-15 15-15h15.06c8.28 0 15 6.72 15 15z" fill="#ffbe00"/><path d="m429.06 255.94c0 8.28-6.72 15-15 15h-7.53v-30h7.53c8.28 0 15 6.72 15 15z" fill="#ff9f22"/><path d="m429.06 195.7c0 8.29-6.72 15-15 15h-7.53v-30h7.53c8.28 0 15 6.72 15 15z" fill="#ff9f22"/></g></svg>