<svg id="Capa_1" enable-background="new 0 0 511.88 511.88" height="512" viewBox="0 0 511.88 511.88" width="512" xmlns="http://www.w3.org/2000/svg"><g><path d="m391.469 82.823h-60.235c-8.284 0-15 6.716-15 15v90.294h75.235l15.598-60.235z" fill="#a8796f"/><path d="m451.705 82.823h-60.235v105.294h75.235v-90.294c0-8.284-6.716-15-15-15z" fill="#00cd72"/><path d="m511.88 233.35v225.88c0 8.29-6.71 15-15 15h-150.65l-90.29-42.65-90.29 42.65h-150.65c-8.29 0-15-6.71-15-15v-210.88l28.17-43.5-28.17-46.73v-105.47c0-8.29 6.71-15 15-15h203.29c6.56 0 12.36 4.26 14.32 10.52l23.33 109.89c1.42 4.55 14.91 20.1 12.09 23.94-1.01 1.37-1.27 16.92-1.41 36.35h230.26c8.29 0 15 6.72 15 15z" fill="#ffd92c"/><path d="m511.88 233.35v225.88c0 8.29-6.71 15-15 15h-150.65l-90.29-42.65v-273.52c1.42 4.55 14.91 20.1 12.09 23.94-1.01 1.37-1.27 16.92-1.41 36.35h230.26c8.29 0 15 6.72 15 15z" fill="#ffbe00"/><path d="m346.23 368.88v105.35h-180.58v-105.35c0-8.28 6.71-15 15-15h150.58c8.29 0 15 6.72 15 15z" fill="#ffbe00"/><path d="m346.23 368.88v105.35h-90.29v-120.35h75.29c8.29 0 15 6.72 15 15z" fill="#ff9f22"/><path d="m511.88 173.12v75.23h-511.88v-90.23h496.88c8.284 0 15 6.716 15 15z" fill="#ffbe00"/><path d="m511.88 173.12v75.23h-255.94v-90.23h240.94c8.284 0 15 6.716 15 15z" fill="#ff9f22"/><path d="m173.116 127.881h-97.882c-8.284 0-15-6.716-15-15s6.716-15 15-15h97.882c8.284 0 15 6.716 15 15s-6.716 15-15 15z" fill="#ffbe00"/></g></svg>