<svg id="Capa_1" enable-background="new 0 0 511.88 511.88" height="512" viewBox="0 0 511.88 511.88" width="512" xmlns="http://www.w3.org/2000/svg"><g><path d="m459.177 15v481.88c0 8.29-6.72 15-15 15h-346.36c-8.28 0-15-6.71-15-15v-481.88c0-8.29 6.72-15 15-15h346.36c8.28 0 15 6.71 15 15z" fill="#ecf4ff"/><path d="m459.177 15v481.88c0 8.29-6.72 15-15 15h-173.18v-511.88h173.18c8.28 0 15 6.71 15 15z" fill="#d5e7fd"/><g fill="#5a729e"><path d="m97.821 150.469h-30.118c-8.284 0-15-6.716-15-15s6.716-15 15-15h30.118c8.284 0 15 6.716 15 15s-6.716 15-15 15z"/><path d="m97.821 90.234h-30.118c-8.284 0-15-6.716-15-15s6.716-15 15-15h30.118c8.284 0 15 6.716 15 15s-6.716 15-15 15z"/><path d="m97.821 270.94h-30.118c-8.284 0-15-6.716-15-15s6.716-15 15-15h30.118c8.284 0 15 6.716 15 15s-6.716 15-15 15z"/><path d="m97.821 331.175h-30.118c-8.284 0-15-6.716-15-15s6.716-15 15-15h30.118c8.284 0 15 6.716 15 15s-6.716 15-15 15z"/><path d="m97.821 210.705h-30.118c-8.284 0-15-6.716-15-15s6.716-15 15-15h30.118c8.284 0 15 6.716 15 15s-6.716 15-15 15z"/><path d="m97.821 391.411h-30.118c-8.284 0-15-6.716-15-15s6.716-15 15-15h30.118c8.284 0 15 6.716 15 15s-6.716 15-15 15z"/><path d="m97.821 451.646h-30.118c-8.284 0-15-6.716-15-15s6.716-15 15-15h30.118c8.284 0 15 6.716 15 15s-6.716 15-15 15z"/></g><path d="m188.173 90.234h-30.118c-8.284 0-15-6.716-15-15s6.716-15 15-15h30.118c8.284 0 15 6.716 15 15s-6.716 15-15 15z" fill="#01c1f0"/><path d="m188.173 150.469h-30.118c-8.284 0-15-6.716-15-15s6.716-15 15-15h30.118c8.284 0 15 6.716 15 15s-6.716 15-15 15z" fill="#01c1f0"/><path d="m188.173 210.705h-30.118c-8.284 0-15-6.716-15-15s6.716-15 15-15h30.118c8.284 0 15 6.716 15 15s-6.716 15-15 15z" fill="#01c1f0"/><path d="m383.938 150.469h-97.883c-8.284 0-15-6.716-15-15s6.716-15 15-15h97.883c8.284 0 15 6.716 15 15s-6.715 15-15 15z" fill="#00ade9"/><path d="m383.938 90.234h-97.883c-8.284 0-15-6.716-15-15s6.716-15 15-15h97.883c8.284 0 15 6.716 15 15s-6.715 15-15 15z" fill="#00ade9"/><path d="m383.938 210.705h-97.883c-8.284 0-15-6.716-15-15s6.716-15 15-15h97.883c8.284 0 15 6.716 15 15s-6.715 15-15 15z" fill="#00ade9"/><path d="m224.079 289.517c-2.003-6.189-7.767-10.381-14.271-10.381-.005 0-.011 0-.017 0l-5.2.006c-6.483.007-12.228 4.179-14.241 10.342l-46.553 142.504c-2.573 7.875 1.726 16.344 9.6 18.917 1.547.505 3.117.745 4.661.745 6.314 0 12.188-4.019 14.255-10.346l8.216-25.149h53.01l8.128 25.11c2.552 7.884 11.01 12.204 18.891 9.651 7.881-2.551 12.203-11.009 9.651-18.89zm-33.749 96.638 16.826-51.506 16.672 51.506z" fill="#d9438a"/><path d="m383.938 383.999h-22.647v-22.646c0-8.284-6.716-15-15-15s-15 6.716-15 15v22.646h-22.647c-8.284 0-15 6.716-15 15s6.716 15 15 15h22.647v22.647c0 8.284 6.716 15 15 15s15-6.716 15-15v-22.647h22.647c8.284 0 15-6.716 15-15s-6.715-15-15-15z" fill="#a72e78"/></g></svg>