<svg id="Capa_1" enable-background="new 0 0 511.88 511.88" height="512" viewBox="0 0 511.88 511.88" width="512" xmlns="http://www.w3.org/2000/svg"><g><path d="m45.12 105.32h421.64v271.06h-421.64z" fill="#ecf4ff"/><path d="m256 105.32h210.76v271.06h-210.76z" fill="#d5e7fd"/><path d="m270.94 110.32v271.06c0 8.27-6.69 14.97-14.94 15h-.06c-8.28 0-15-6.71-15-15v-271.06c0-8.28 6.72-15 15-15h.06c6.5.03 12.04 4.2 14.08 10 .56 1.57.86 3.25.86 5z" fill="#01c1f0"/><path d="m270.94 110.32v271.06c0 8.27-6.69 14.97-14.94 15v-301.06c6.5.03 12.04 4.2 14.08 10 .56 1.57.86 3.25.86 5z" fill="#00ade9"/><path d="m466.76 90.32h-421.64c-8.29 0-15 6.72-15 15v271.06c0 8.29 6.71 15 15 15h421.64c8.29 0 15-6.71 15-15v-271.06c0-8.28-6.71-15-15-15zm-15 279.35-195.76 3.35-195.88 3.36v-256.06h391.64z" fill="#3f558f"/><path d="m481.76 105.32v271.06c0 8.29-6.71 15-15 15h-210.76v-18.36l195.76-3.35v-249.35h-195.76v-30h210.76c8.29 0 15 6.72 15 15z" fill="#1c3470"/><path d="m511.88 376.38v30.18c0 8.28-6.71 15-15 15h-481.88c-8.29 0-15-6.72-15-15v-30.18c0-8.28 6.71-15 15-15h481.88c8.29 0 15 6.72 15 15z" fill="#5a729e"/><path d="m511.88 376.38v30.18c0 8.28-6.71 15-15 15h-240.88v-60.18h240.88c8.29 0 15 6.72 15 15z" fill="#3f558f"/><path d="m338.763 225.735c-3.839 0-7.678-1.465-10.606-4.394l-22.588-22.588c-5.858-5.857-5.858-15.354 0-21.213l22.588-22.589c5.857-5.857 15.355-5.859 21.213 0 5.857 5.857 5.858 15.354 0 21.213l-11.981 11.982 11.981 11.981c5.858 5.857 5.858 15.355 0 21.213-2.929 2.93-6.768 4.395-10.607 4.395z" fill="#ffbe00"/><path d="m383.94 331.147c-3.839 0-7.678-1.464-10.606-4.394-5.857-5.857-5.858-15.354 0-21.213l11.981-11.982-11.981-11.981c-5.858-5.857-5.858-15.355 0-21.213 5.857-5.857 15.355-5.857 21.213 0l22.588 22.588c5.858 5.857 5.858 15.354 0 21.213l-22.588 22.589c-2.929 2.928-6.768 4.393-10.607 4.393z" fill="#ffbe00"/><g fill="#7fea82"><path d="m195.705 195.617h-90.353c-8.284 0-15-6.716-15-15s6.716-15 15-15h90.353c8.284 0 15 6.716 15 15s-6.716 15-15 15z"/><path d="m195.705 255.853h-67.765c-8.284 0-15-6.716-15-15s6.716-15 15-15h67.765c8.284 0 15 6.716 15 15s-6.716 15-15 15z"/><path d="m195.705 316.087h-37.647c-8.284 0-15-6.716-15-15s6.716-15 15-15h37.647c8.284 0 15 6.716 15 15s-6.716 15-15 15z"/></g><path d="m398.994 203.147c-8.284 0-15.005-6.721-15.005-15.005s6.721-15.006 15.005-15.006 15.005 6.722 15.005 15.006-6.721 15.005-15.005 15.005z" fill="#ffbe00"/><circle cx="316.18" cy="293.553" fill="#ffbe00" r="15.005"/></g></svg>