<svg id="Capa_1" enable-background="new 0 0 511.944 511.944" height="512" viewBox="0 0 511.944 511.944" width="512" xmlns="http://www.w3.org/2000/svg"><g><path d="m327.21 145.499c174.452 0 169.624.106 169.725.005-16.585 16.592-16.674 43.562.005 60.243h-168.77" fill="#d5e7fd"/><path d="m496.94 220.748h-187.17c-8.181 0-14.854-6.556-14.998-14.735l-1.064-60.249c-.147-8.409 6.635-15.265 14.998-15.265h188.234c14.537 0 20.569 18.741 8.719 27.206-2.714 1.938-5.85 2.846-8.954 2.794h-172.731l.534 30.249h172.432c8.284 0 15 6.716 15 15s-6.715 15-15 15z" fill="#3f558f"/><path d="m436.71 264.967c0 16.64-13.48 30.12-30.12 30.12h-391.53c16.614-16.595 16.641-43.599 0-60.24h391.53c16.64 0 30.12 13.481 30.12 30.12z" fill="#ecf4ff"/><path d="m436.71 264.967c0 16.64-13.48 30.12-30.12 30.12h-203.3v-60.24h203.3c16.64 0 30.12 13.481 30.12 30.12z" fill="#d5e7fd"/><path d="m451.71 264.967c0 24.88-20.24 45.12-45.12 45.12h-391.53c-8.28 0-15-6.71-15-15 0-8.28 6.72-15 15-15h391.53c8.34 0 15.12-6.78 15.12-15.12 0-8.33-6.78-15.12-15.12-15.12h-391.53c-8.28 0-15-6.71-15-15 0-8.28 6.72-15 15-15h391.53c24.88 0 45.12 20.24 45.12 45.12z" fill="#ffbe00"/><path d="m451.71 264.967c0 24.88-20.24 45.12-45.12 45.12h-203.3v-30h203.3c8.34 0 15.12-6.78 15.12-15.12 0-8.33-6.78-15.12-15.12-15.12h-203.3v-30h203.3c24.88 0 45.12 20.24 45.12 45.12z" fill="#ff9f22"/><path d="m240.94 38.147c0 4.35-1.85 8.25-4.79 11-2.87 3.27-17.76 22-17.42 57.85.08 8.283-6.581 15.14-15 15.14-8.218 0-14.919-6.623-14.99-14.85-.323-34.174 11.312-62.595 25.25-78.36 8.815-11.306 26.95-5.059 26.95 9.22z" fill="#7d4b56"/><path d="m301.176 218.862c-14.88 22.72-9.157 59.175-37.647 60.235-8.141.307-38.428 31.05-60.235 31.05-21.811 0-43.621-.154-51.754-.46-28.49-1.06-50.48-13.11-65.36-35.83-36.403-55.558-42.791-172.8 34.18-195.25 26.17-7.63 57.67-2.91 82.93 11.93 25.27-14.84 49.128 7.744 75.298 15.384 0 0 59.052 57.291 22.588 112.941z" fill="#7fea82"/><path d="m320.41 273.857c-14.88 22.72-36.87 34.77-65.36 35.83-8.22.31-29.99.46-51.76.46v-219.61c48.481-28.471 112.675-18.821 133.43 34.42 18.347 47.066 8.79 110.593-16.31 148.9z" fill="#00cd72"/><path d="m436.65 443.738c0 16.628-13.482 30.11-30.12 30.11h-391.53c16.514-16.494 16.739-43.491 0-60.23h391.53c16.63-.001 30.12 13.479 30.12 30.12z" fill="#ecf4ff"/><path d="m436.65 443.738c0 16.628-13.482 30.11-30.12 30.11h-203.24v-60.23h203.24c16.63-.001 30.12 13.479 30.12 30.12z" fill="#d5e7fd"/><path d="m406.53 398.617h-391.53c-8.28 0-15 6.71-15 15 0 8.28 6.72 15 15 15h331.35v30.23h-331.35c-8.28 0-15 6.72-15 15 0 8.29 6.72 15 15 15h391.53c24.88 0 45.12-20.24 45.12-45.11 0-24.88-20.24-45.12-45.12-45.12zm0 60.23h-30.18v-30.23h30.18c8.34 0 15.12 6.78 15.12 15.12 0 8.33-6.78 15.11-15.12 15.11z" fill="#01c1f0"/><path d="m406.53 398.617h-203.24v30h143.06v30.23h-143.06v30h203.24c24.88 0 45.12-20.24 45.12-45.11 0-24.88-20.24-45.12-45.12-45.12zm0 60.23h-30.18v-30.23h30.18c8.34 0 15.12 6.78 15.12 15.12 0 8.33-6.78 15.11-15.12 15.11z" fill="#00ade9"/><path d="m496.94 384.437h-391.53c-26.842 0-40.134-32.575-21.3-51.41 5.45-5.45 12.99-8.82 21.3-8.82h391.53c-16.515 16.496-16.738 43.492 0 60.23z" fill="#ecf4ff"/><path d="m496.94 384.437h-293.65v-60.23h293.65c-16.515 16.496-16.738 43.492 0 60.23z" fill="#d5e7fd"/><path d="m496.94 369.437h-331.35v-30.23h331.35c8.29 0 15-6.72 15-15 0-8.29-6.71-15-15-15h-391.53c-24.88 0-45.12 20.24-45.12 45.11 0 24.88 20.24 45.12 45.12 45.12h391.53c8.29 0 15-6.71 15-15 0-8.28-6.71-15-15-15zm-361.35 0h-30.18c-8.33 0-15.12-6.78-15.12-15.12 0-8.33 6.79-15.11 15.12-15.11h30.18z" fill="#a8796f"/><g fill="#7d4b56"><path d="m511.94 384.437c0 8.29-6.71 15-15 15h-293.65v-30h293.65c8.29 0 15 6.72 15 15z"/><path d="m496.94 339.207h-293.65v-30h293.65c8.29 0 15 6.71 15 15 0 8.281-6.71 15-15 15z"/></g></g></svg>