<svg id="Capa_1" enable-background="new 0 0 511.896 511.896" height="512" viewBox="0 0 511.896 511.896" width="512" xmlns="http://www.w3.org/2000/svg"><g><path d="m511.862 15v414.12c0 8.273-6.714 15-15 15h-316.23c-8.28 0-15-6.72-15-15-.019-125.354.008-180.708-.01-414.12 0-8.27 6.714-15 15-15h316.24c8.28 0 15 6.71 15 15z" fill="#ecf4ff"/><path d="m511.862 15v414.12c0 8.273-6.714 15-15 15h-158.12v-444.12h158.12c8.28 0 15 6.71 15 15z" fill="#d5e7fd"/><path d="m451.632 82.76c0 8.29-6.72 15-15 15h-195.77c-8.28 0-15-6.71-15-15 0-8.28 6.72-15 15-15h195.77c8.28 0 15 6.72 15 15z" fill="#00cd72"/><path d="m451.632 82.76c0 8.29-6.72 15-15 15h-97.89v-30h97.89c8.28 0 15 6.72 15 15z" fill="#009956"/><path d="m436.628 157.999h-82.823c-8.284 0-15-6.716-15-15s6.716-15 15-15h82.823c8.284 0 15 6.716 15 15s-6.715 15-15 15z" fill="#00cd72"/><g fill="#009956"><path d="m436.628 157.999h-82.823c-8.284 0-15-6.716-15-15s6.716-15 15-15h82.823c8.284 0 15 6.716 15 15s-6.715 15-15 15z"/><path d="m436.628 218.234h-82.823c-8.284 0-15-6.716-15-15s6.716-15 15-15h82.823c8.284 0 15 6.716 15 15s-6.715 15-15 15z"/><path d="m436.628 278.469h-52.706c-8.284 0-15-6.716-15-15s6.716-15 15-15h52.706c8.284 0 15 6.716 15 15s-6.715 15-15 15z"/></g><path d="m444.102 383.94c0-8.284-6.715-15.001-14.999-15.001s-15.001 6.715-15.001 15h-30.24c0-8.284-6.716-15-15-15s-15 6.716-15 15v112.938c0 12.884 15.254 19.784 24.925 11.247l20.194-17.819 20.197 17.82c9.671 8.532 24.924 1.639 24.924-11.249-.004-50.414-.003-24.72 0-112.936z" fill="#3f558f"/><path d="m398.981 308.705c-29.029 0-52.646 23.617-52.646 52.647 0 29.029 23.617 52.646 52.646 52.646 29.03 0 52.647-23.617 52.647-52.646 0-29.03-23.617-52.647-52.647-52.647z" fill="#ffbe00"/><path d="m276.456 231.39v82.2c0 6.04-3.63 11.49-9.2 13.83l-101.63 41.4c-4.324 0-3.065.023-101.64-41.4-5.57-2.34-9.2-7.79-9.2-13.83v-80.45c0-8.28 6.72-15 15-15 8.24 0 14.92 6.64 15 14.86 25.388-.232 136.282-1.248 161.67-1.48 0-8.672 6.913-15.13 15-15.13 8.281 0 15 6.71 15 15z" fill="#5a729e"/><path d="m276.456 231.39v82.2c0 6.04-3.63 11.49-9.2 13.83-98.679 41.423-97.313 41.4-101.63 41.4v-136.56l80.83-.74c0-8.672 6.913-15.13 15-15.13 8.281 0 15 6.71 15 15z" fill="#3f558f"/><path d="m320.567 217.09-150.462 44.297c-1.522.461-4.478 2.04-4.478 2.04-6.746-.734-28.176-7.881-135.59-40.467v55.57c0 8.29-6.72 15-15 15-8.29 0-15-6.71-15-15 0 0 .03-74.22 0-75.5-.13-6.5 3.94-12.34 10.09-14.47 152.85-53.092 151.902-53.031 155.55-53.031l155.45 53.031c13.688 4.749 13.303 24.317-.56 28.53z" fill="#3f558f"/><path d="m320.567 217.09c-152.994 46.365-151.599 46.32-154.94 46.32v-127.88c3.616 0 2.573 0 155.5 53.03 13.688 4.749 13.303 24.317-.56 28.53z" fill="#1c3470"/></g></svg>