<svg id="Capa_1" enable-background="new 0 0 511.89 511.89" height="512" viewBox="0 0 511.89 511.89" width="512" xmlns="http://www.w3.org/2000/svg"><g><path d="m293.497 420.43v70.49c0 7.46-6.58 13.5-14.69 13.5h-91.03c-8.12 0-14.7-6.04-14.7-13.5v-70.88c0-7.46 6.58-13.5 14.7-13.5 7.981 0 14.69 5.897 14.69 13.56 38.383.174 22.867.106 61.65.27.04-7.43 6.6-13.44 14.69-13.44 8.11 0 14.69 6.05 14.69 13.5z" fill="#ffbe00"/><path d="m293.497 420.43v70.49c0 7.46-6.58 13.5-14.69 13.5h-45.49v-84.18l30.8.13c.04-7.43 6.6-13.44 14.69-13.44 8.11 0 14.69 6.05 14.69 13.5z" fill="#ff9f22"/><path d="m474.197 188.191c0 137.29-109.837 218.74-242.17 237.1-17.919 2.486-59.498 5.622-59.498 5.622-45.76-9.945-88.04-32.758-122.392-67.072-5.86-5.86-5.86-15.36 0-21.21l42.59-42.6c6.176-6.166 16.128-5.621 21.52.33 5.55 5.88 5.44 15.14-.31 20.89l-31.63 31.63c85.497 74.705 215.867 71.803 297.92-10.25 83.065-83.085 83.931-213.595 10.25-297.92l-31.63 31.63c-5.76 5.76-15.01 5.86-20.89.3-5.522-4.511-6.843-14.997-.32-21.52l42.59-42.59c5.86-5.86 15.36-5.86 21.21 0 46.35 46.273 72.76 108.572 72.76 175.66z" fill="#5a729e"/><path d="m474.197 188.191c0 137.29-111.108 248.41-248.41 248.41-66.2 0-128.45-25.72-175.33-72.45l63.79-63.79c5.55 5.88 5.44 15.14-.31 20.89l-31.63 31.63c85.497 74.705 215.867 71.803 297.92-10.25 83.065-83.085 83.931-213.595 10.25-297.92l-31.63 31.63c-5.76 5.76-15.01 5.86-20.89.3l63.79-63.79c46.73 46.879 72.45 109.129 72.45 175.34z" fill="#3f558f"/><path d="m376.317 496.89c0 8.29-6.72 15-15 15h-258.58c-8.29 0-15-6.71-15-15 0-8.28 6.71-15 15-15h130.58l34.021 11.826 26.213-11.826h67.766c8.28 0 15 6.721 15 15z" fill="#5a729e"/><path d="m376.317 496.89c0 8.29-6.72 15-15 15h-128v-30h128c8.28 0 15 6.721 15 15z" fill="#3f558f"/><path d="m413.967 188.191c0 46.59-16.894 89.206-44.899 122.056 0 0-17.066-.292-19.985 2.704-4.068 4.175-1.235 18.515-1.235 18.515-32.846 28.001-75.459 44.895-122.061 44.895-34.222 0-67.185-9.126-95.899-26.166 0 0 .414-13.229-4.763-17.074s-26.258-5.98-26.258-5.98c-2.085-1.912-4.132-3.876-6.141-5.891-2.019-2.019-3.982-4.073-5.89-6.159 0 0-6.379-24.492-9.732-28.885-4.498-5.891-13.295-2.191-13.295-2.191-40.239-68.026-33.963-156.099 18.727-217.865 0 0 12.77-1.289 16.341-4.86 3.573-3.573 4.868-16.362 4.868-16.362 62.537-53.462 150.542-58.579 217.892-18.724 0 0-1.224 12.455 3.319 15.725 5.904 4.249 27.722 7.291 27.722 7.291 4.224 3.861 8.252 7.886 12.076 12.064 0 0 4.295 18.912 8.266 24.304 3.677 4.993 14.783 6.729 14.783 6.729 16.952 28.559 26.164 61.428 26.164 95.874z" fill="#27d9f7"/><path d="m413.967 188.191c0 46.59-16.894 89.206-44.899 122.056 0 0-15.272-2.151-19.474 1.938-2.94 2.861-1.639 19.19-1.639 19.19-32.86 28.055-75.515 44.986-122.167 44.986-34.247 0-67.223-9.149-95.9-26.163 0 0-2.58-11.808-7.847-15.736-5.073-3.784-23.171-7.322-23.171-7.322-1.976-1.814-3.917-3.673-5.822-5.579l266.12-266.12c1.905 1.915 3.765 3.865 5.58 5.849 4.548 4.973 5.327 16.746 9.293 22.128 3.685 5 13.757 8.902 13.757 8.902 16.914 28.469 26.169 61.268 26.169 95.871z" fill="#01c1f0"/><path d="m300.037 241.22 69 69c-6.477 7.6-13.739 14.852-21.21 21.22l-68.99-68.99c-44.54 41.56-97.1 72.22-148.94 87.73-11.01-6.53-21.4-14.24-31.02-23.05 53.99-10.97 111.05-41.64 158.73-85.91-10.173-10.173-74.45-74.449-84.86-84.86-44.27 47.69-74.92 104.73-85.91 158.73-8.88-9.71-16.56-20.14-23.02-31.08 15.51-51.83 46.16-104.35 87.7-148.88l-68.98-68.98c6.459-7.583 13.74-14.854 21.21-21.22l69 69c44.73-41.65 97.12-72.27 148.91-87.76 11 6.54 21.4 14.24 31.02 23.05-54.01 10.96-110.83 41.58-158.7 85.94 81.019 81.019 58.32 58.32 84.84 84.84 44.37-47.88 74.97-104.7 85.93-158.71 8.81 9.63 16.52 20.02 23.05 31.03-15.49 51.8-46.1 104.17-87.76 148.9z" fill="#01c1f0"/><path d="m300.037 241.22 69 69c-6.477 7.6-13.739 14.852-21.21 21.22l-68.99-68.99c-44.54 41.56-97.1 72.22-148.94 87.73-11.01-6.53-21.4-14.24-31.02-23.05 53.99-10.97 111.05-41.64 158.73-85.91l-42.11-42.11 21.22-21.21 42.1 42.1c44.37-47.88 74.97-104.7 85.93-158.71 8.81 9.63 16.52 20.02 23.05 31.03-15.49 51.8-46.1 104.17-87.76 148.9z" fill="#00ade9"/></g></svg>