<svg id="Capa_1" enable-background="new 0 0 511.88 511.88" height="512" viewBox="0 0 511.88 511.88" width="512" xmlns="http://www.w3.org/2000/svg"><g><path d="m502.22 368.94c0 7.28 9.65 32.09 9.65 32.09v89.22c0 2.17-5.14 2.23-5.14 4.48 0 8.28-2.62 12.85-10.9 12.85l-5.76 4.3h-230.83l-3.3-.61-41.04-7.61-22.73 8.22h-177.17c-8.28 0-15-6.72-15-15v-184.88l9.62-21.7-9.62-48.75v-38.32c0-8.28 6.72-15 15-15h76.4c8.28 0 15 6.72 15 15h299.08c0-8.28 6.72-15 15-15h76.4c8.28 0 15 6.71 15 15-.01 96.14-.01 126.39-.01 155.34 0 0-9.65 4.12-9.65 10.37z" fill="#7fea82"/><path d="m502.22 368.94c0 7.28 9.65 32.09 9.65 32.09v89.22c0 2.17-5.14 2.23-5.14 4.48 0 8.28-2.62 12.85-10.9 12.85l-5.76 4.3h-234.13v-308.65h149.54c0-8.28 6.72-15 15-15h76.4c8.28 0 15 6.71 15 15-.01 96.14-.01 126.39-.01 155.34 0 0-9.65 4.12-9.65 10.37z" fill="#00cd72"/><path d="m511.87 490.25v6.63c0 8.28-6.72 15-15 15h-6.8l-187.43-121.1c-6.96-4.5-8.95-13.78-4.46-20.74 4.5-6.96 13.78-8.95 20.74-4.46z" fill="#009956"/><path d="m259.24 511.88h-67.07c-135.857-67.928-125.166-62.01-128.35-65.51-2.06-2.474 2.741 7.075-63.82-134.37v-70.45l81.4 172.96 97.5-65c6.89-4.6 16.21-2.73 20.8 4.16 4.6 6.89 2.73 16.21-4.16 20.8l-90.48 60.32z" fill="#00cd72"/><path d="m511.87 358.568v42.457l-123.682-123.679c-5.85-5.86-5.85-15.36 0-21.22 5.253-5.244 13.43-5.795 19.289-1.633z" fill="#009956"/><path d="m432.04 176.1c0 23.128-9.623 50.24-24.619 78.363 0 0-23.469 13.836-27.417 20.349-4.722 7.79 1.246 22.488 1.246 22.488-36.266 53.275-83.919 104.843-114.86 135.05-5.834 5.653-15.068 5.651-20.9 0-31.119-30.381-78.674-81.887-114.861-135.05 0 0 2.039-13.97-2.796-21.977-3.784-6.266-23.33-20.778-23.33-20.778-15.024-28.161-24.663-55.302-24.663-78.445 0-97.1 79-176.1 176.1-176.1s176.1 79 176.1 176.1z" fill="#ecf4ff"/><path d="m432.04 176.1c0 23.128-9.623 50.24-24.619 78.363 0 0-20.065 17.287-25.034 25.285-3.926 6.319-1.137 17.552-1.137 17.552-36.266 53.275-83.919 104.843-114.86 135.05-2.91 2.82-6.68 4.24-10.45 4.24v-436.59c97.1 0 176.1 79 176.1 176.1z" fill="#d5e7fd"/><path d="m407.418 254.47c-7.2 13.46-15.808 27.74-26.168 42.83l-119.74 47.86c-3.588 1.424-7.538 1.43-11.14 0l-119.74-47.86c-10.36-15.09-18.926-29.294-26.126-42.754l151.436 60.534z" fill="#d5e7fd"/><path d="m407.418 254.47c-7.2 13.46-15.808 27.74-26.168 42.83-122.544 48.972-121.191 48.93-125.31 48.93v-31.15z" fill="#b4daff"/><path d="m338.7 152.27v66.02c0 6.46-4.13 12.19-10.25 14.23-70.164 23.369-69.051 23.36-72.51 23.36-3.471 0-2.457.008-72.51-23.36-6.12-2.04-10.25-7.77-10.25-14.23v-66.02c0-8.29 6.71-15 15-15 8.28 0 15 6.71 15 15v5.79h105.52v-5.79c0-8.29 6.72-15 15-15 8.337 0 15 6.767 15 15z" fill="#5a729e"/><path d="m338.7 218.29c0 6.46-4.13 12.19-10.25 14.23-70.021 23.36-69.051 23.36-72.51 23.36v-92.62h73.77c0-6.5 3.19-12.28 8.14-15.97 1.188 3.346.85-.611.85 71z" fill="#3f558f"/><path d="m358.23 157.34c-84.927 25.717-102.289 30.857-102.289 30.857-1.165.036-1.998-.164-3.211-.427-.981-.22 5.34 1.689-99.08-30.43-13.916-4.295-13.946-24.047-.98-28.34 86.436-33.243 65.469-25.179 97.89-37.65 1.677-.653 3.505-1.003 5.38-1 0 0 3.777 6.135 5.553 6.813 72.834 28.013 96.576 31.39 98.017 31.967 12.906 5.23 12.282 24.012-1.28 28.21z" fill="#3f558f"/><path d="m358.23 157.34c-100.707 30.495-97.483 30.857-102.289 30.857l-.001-97.847c3.951 0 3.574-.027 103.27 38.65 13.429 5.378 12.456 24.18-.98 28.34z" fill="#1c3470"/></g></svg>