<svg id="Capa_1" enable-background="new 0 0 511.88 511.88" height="512" viewBox="0 0 511.88 511.88" width="512" xmlns="http://www.w3.org/2000/svg"><g><path d="m413.999 303.749v-47.809c0-8.284-6.716-15-15-15s-15 6.716-15 15v47.809c-17.524 6.197-30.117 22.923-30.117 42.543 0 24.878 20.239 45.118 45.117 45.118s45.118-20.24 45.118-45.118c0-19.62-12.594-36.346-30.118-42.543zm-15 57.662c-8.336 0-15.117-6.782-15.117-15.118s6.781-15.117 15.117-15.117 15.118 6.781 15.118 15.117-6.783 15.118-15.118 15.118z" fill="#3f558f"/><path d="m451.7 14.46v242.02c0 7.99-6.47 14.46-14.46 14.46h-232.49c-6.47 0-12.27-4.27-13.92-10.52-1.34-5.09-.3-9.94 2.18-13.53 2.8-4.05 3.59-9.16 1.75-13.73l-21.08-52.67c-1.94-4.84-6.37-8.09-11.52-8.92-.54-.09-1.08-.21-1.63-.37-6.02-1.75-10-7.48-10-13.75v-142.99c0-7.99 7.07-6.99 15.06-6.99h271.06c7.98 0 15.05-1 15.05 6.99z" fill="#ecf4ff"/><path d="m451.7 14.46v242.02c0 7.99-6.47 14.46-14.46 14.46h-136.12v-263.47h135.53c7.98 0 15.05-1 15.05 6.99z" fill="#d5e7fd"/><path d="m511.88 15c0 8.28-6.71 15-15 15h-391.53c-8.28 0-15-6.72-15-15 0-8.29 6.72-15 15-15h391.53c8.29 0 15 6.71 15 15z" fill="#5a729e"/><path d="m511.88 15c0 8.28-6.71 15-15 15h-195.76v-30h195.76c8.29 0 15 6.71 15 15z" fill="#3f558f"/><path d="m233.29 323.7v15.06c0 8.28-6.71 15-15 15-4.14 0-7.89-1.68-10.61-4.4-2.71-2.71-4.39-6.46-4.39-10.6h-105.53c0 8.28-6.71 15-15 15-8.28 0-15-6.72-15-15v-15.06c0-45.63 37.13-82.76 82.76-82.76h.01c22.1 0 42.87 8.61 58.52 24.24 15.63 15.64 24.24 36.42 24.24 58.52z" fill="#7fea82"/><path d="m233.29 323.7v15.06c0 8.28-6.71 15-15 15-4.14 0-7.89-1.68-10.61-4.4-2.71-2.71-4.39-6.46-4.39-10.6h-52.76v-97.82c22.1 0 42.87 8.61 58.52 24.24 15.63 15.64 24.24 36.42 24.24 58.52z" fill="#00cd72"/><path d="m210.71 210.76c0 33.18-27 60.18-60.18 60.18s-60.18-27-60.18-60.18 27-60.17 60.18-60.17 60.18 26.99 60.18 60.17z" fill="#ffe3c0"/><path d="m210.71 210.76c0 33.18-27 60.18-60.18 60.18v-120.35c33.18 0 60.18 26.99 60.18 60.17z" fill="#fcd0a2"/><path d="m255.69 371.29-20.85 128c-1.19 7.26-7.46 12.59-14.81 12.59h-54.5l-15-9.15-15 9.15h-54.5c-7.36 0-13.63-5.33-14.81-12.59l-20.85-128c-.71-4.34.53-8.77 3.38-12.13 2.85-3.35 7.03-5.28 11.43-5.28h180.7c4.4 0 8.58 1.93 11.43 5.28 2.85 3.36 4.08 7.79 3.38 12.13z" fill="#7d4b56"/><path d="m255.69 371.29-20.85 128c-1.19 7.26-7.46 12.59-14.81 12.59h-54.5l-15-9.15v-148.85h90.35c4.4 0 8.58 1.93 11.43 5.28 2.85 3.36 4.08 7.79 3.38 12.13z" fill="#65304a"/><path d="m301.06 338.76v30.12c0 8.29-14.478-3.344-22.758-3.344l-127.772 18.344h-135.53c-8.29 0-15-6.71-15-15v-30.12c0-8.28 6.71-15 15-15h271.06c8.28 0 15 6.72 15 15z" fill="#a8796f"/><path d="m301.06 338.76v30.12c0 8.29-6.72 15-15 15h-135.53v-60.12h135.53c8.28 0 15 6.72 15 15z" fill="#7d4b56"/><path d="m391.469 60.234h-60.235c-8.284 0-15 6.716-15 15v60.235c0 8.284 6.716 15 15 15h60.235c8.284 0 15-6.716 15-15v-60.235c0-8.284-6.716-15-15-15z" fill="#00ade9"/><path d="m159.068 463.748 6.462 48.131h-30v-52.65c0-8.28 6.71-15 15-15 0 .001 8.538 11.239 8.538 19.519z" fill="#a8796f"/><path d="m165.53 459.23v52.65h-15v-67.65c8.28 0 15 6.72 15 15z" fill="#7d4b56"/><g fill="#ffbe00"><path d="m210.764 120.352c-8.284 0-15-6.716-15-15v-30.118c0-8.284 6.716-15 15-15s15 6.716 15 15v30.118c0 8.284-6.716 15-15 15z"/><path d="m270.999 150.469c-8.284 0-15-6.716-15-15v-60.235c0-8.284 6.716-15 15-15s15 6.716 15 15v60.235c0 8.284-6.716 15-15 15z"/></g></g></svg>