<svg id="Capa_1" enable-background="new 0 0 511.88 511.88" height="512" viewBox="0 0 511.88 511.88" width="512" xmlns="http://www.w3.org/2000/svg"><g><g fill="#5a729e"><path d="m90.292 71.441c-8.284 0-15-6.716-15-15v-37.648c0-8.284 6.716-15 15-15s15 6.716 15 15v37.647c0 8.285-6.715 15.001-15 15.001z"/><path d="m150.528 71.441c-8.284 0-15-6.716-15-15v-37.648c0-8.284 6.716-15 15-15s15 6.716 15 15v37.647c0 8.285-6.716 15.001-15 15.001z"/><path d="m421.587 71.441c-8.284 0-15-6.716-15-15v-37.648c0-8.284 6.716-15 15-15s15 6.716 15 15v37.647c0 8.285-6.715 15.001-15 15.001z"/><path d="m361.352 71.441c-8.284 0-15-6.716-15-15v-37.648c0-8.284 6.716-15 15-15s15 6.716 15 15v37.647c0 8.285-6.716 15.001-15 15.001z"/></g><path d="m511.88 63.916v376.52c0 8.29-6.72 15-15 15h-60.23c-8.255 0-15-6.436-15-14.46h-180.83c0 7.99-6.72 14.46-15 14.46h-210.82c-8.28 0-15-6.71-15-15v-376.52c0-8.29 6.72-15 15-15h481.88c8.28 0 15 6.71 15 15z" fill="#ecf4ff"/><path d="m511.88 63.916v376.52c0 8.29-6.72 15-15 15h-60.23c-8.255 0-15-6.436-15-14.46h-165.71v-392.06h240.94c8.28 0 15 6.71 15 15z" fill="#d5e7fd"/><path d="m511.88 63.916v60.229h-511.88v-60.229c0-8.28 6.72-15 15-15h481.88c8.28 0 15 6.72 15 15z" fill="#01c1f0"/><path d="m511.88 63.916v60.229h-255.94v-75.229h240.94c8.28 0 15 6.72 15 15z" fill="#00ade9"/><path d="m165.587 169.382h-60.235c-8.284 0-15 6.716-15 15v60.235c0 8.284 6.716 15 15 15h60.235c8.284 0 15-6.716 15-15v-60.235c0-8.284-6.715-15-15-15z" fill="#ffbe00"/><path d="m301.06 184.386v60.23c0 8.29-6.72 15-15 15h-60.24c-8.28 0-15-6.71-15-15v-60.23c0-8.29 6.72-15 15-15h60.24c8.28 0 15 6.71 15 15z" fill="#ffbe00"/><path d="m406.528 169.382h-60.235c-8.284 0-15 6.716-15 15v60.235c0 8.284 6.716 15 15 15h60.235c8.284 0 15-6.716 15-15v-60.235c0-8.284-6.716-15-15-15z" fill="#ff9f22"/><path d="m165.587 289.853h-60.235c-8.284 0-15 6.716-15 15v60.235c0 8.284 6.716 15 15 15h60.235c8.284 0 15-6.716 15-15v-60.235c0-8.284-6.715-15-15-15z" fill="#ffbe00"/><path d="m301.06 184.386v60.23c0 8.29-6.72 15-15 15h-30.12v-90.23h30.12c8.28 0 15 6.71 15 15z" fill="#ff9f22"/><path d="m451.65 385.706v69.74c0 6.34-3.99 11.99-9.96 14.13l-110.46 38.51c-3.956 0-2.226.024-110.45-38.51-5.97-2.14-9.96-7.79-9.96-14.13v-67.98c0-8.29 6.71-15 15-15 8.24 0 14.92 6.65 14.99 14.87 10.041-.083 170.799-1.417 180.84-1.5 0-8.628 6.881-15.13 15-15.13 8.28 0 15 6.72 15 15z" fill="#5a729e"/><path d="m451.65 385.706v69.74c0 6.34-3.99 11.99-9.96 14.13-107.473 38.51-106.712 38.51-110.46 38.51v-121.5l90.42-.75c0-8.628 6.881-15.13 15-15.13 8.28 0 15 6.72 15 15z" fill="#3f558f"/><path d="m501.43 379.386-164.894 49.12c-1.471.467-5.306 4.29-5.306 4.29-1.505 0-3.03-.231-4.54-.71l-165.65-52.7c-13.596-4.332-14.007-23.514-.58-28.39l165.65-60.24c1.653-.601 3.386-.9 5.12-.9 0 0 3.888 3.753 5.545 4.352l165.235 56.788c13.409 4.87 13.032 24.052-.58 28.39z" fill="#3f558f"/><path d="m501.43 379.386c-168.001 53.41-166.726 53.41-170.2 53.41v-142.94c3.803 0 3.104 0 170.78 61.14 13.409 4.87 13.032 24.052-.58 28.39z" fill="#1c3470"/></g></svg>