<svg id="Capa_1" enable-background="new 0 0 511.88 511.88" height="512" viewBox="0 0 511.88 511.88" width="512" xmlns="http://www.w3.org/2000/svg"><g><path d="m432.87 436.65v60.23h-323.76c-26.842 0-40.134-32.576-21.3-51.41 5.46-5.45 12.98-8.82 21.3-8.82z" fill="#ecf4ff"/><path d="m285.61 436.65h147.26v60.23h-147.26z" fill="#d5e7fd"/><path d="m94 466.68c0 8.707 7.014 15.2 15.11 15.2h323.76c8.29 0 15 6.72 15 15 0 8.29-6.71 15-15 15h-323.76c-24.333 0-45.11-19.546-45.11-45.46v-421.42c0-24.81 20.18-45 45-45h15.23l15 9.28 15-9.28h278.65c8.28 0 15 6.72 15 15v421.65c0 8.28-6.72 15-15 15h-278.65l-15-10.284-15 10.284h-15.12c-8.31 0-15.07 6.73-15.11 15.03z" fill="#a8796f"/><path d="m447.87 496.88c0 8.29-6.71 15-15 15h-147.26v-30h147.26c8.29 0 15 6.72 15 15z" fill="#7d4b56"/><path d="m447.88 15v421.65c0 8.28-6.72 15-15 15h-147.27v-451.65h147.27c8.28 0 15 6.72 15 15z" fill="#7d4b56"/><path d="m124.23 0h30v451.65h-30z" fill="#7d4b56"/><g fill="#ecf4ff"><path d="m313.73 196.89-28.12-74.51-19.12-50.66c-.05-.14-.1-.27-.16-.41-2.77-6.73-9.26-11.08-16.53-11.08-.01 0-.02 0-.02 0-7.29.01-13.77 4.37-16.53 11.11-.05.12-.09.23-.13.34l-47.67 125.16c-2.95 7.75.93 16.41 8.68 19.36 7.74 2.95 16.4-.94 19.35-8.68l8.19-21.51h55.89l8.05 21.34.05.13c2.27 6 7.97 9.71 14.04 9.71 1.75 0 3.55-.32 5.29-.97 7.75-2.93 11.66-11.58 8.74-19.33zm-80.63-40.88 16.64-43.7 16.5 43.7z"/><path d="m372.64 245.81c-8.29 0-15 6.72-15 15v2.52c-10.37-6.78-22.74-10.73-36.02-10.73s-25.65 3.94-36.01 10.71c-18.05 11.8-30 32.18-30 55.3s11.95 43.51 30 55.3c10.36 6.78 22.73 10.72 36.01 10.72s25.65-3.96 36.02-10.73v2.51c0 8.28 6.71 15 15 15 8.28 0 15-6.72 15-15v-115.6c0-8.28-6.72-15-15-15zm-51.02 108.82c-19.86 0-36.01-16.16-36.01-36.02s16.15-36.01 36.01-36.01 36.02 16.15 36.02 36.01-16.16 36.02-36.02 36.02z"/><path d="m206.993 361.411h-7.531c-8.284 0-15 6.716-15 15s6.716 15 15 15h7.531c8.284 0 15-6.716 15-15s-6.716-15-15-15z"/></g><path d="m285.66 207.48-.05-.13v-84.97l28.12 74.51c2.92 7.75-.99 16.4-8.74 19.33-1.74.65-3.54.97-5.29.97-6.07 0-11.77-3.71-14.04-9.71z" fill="#d5e7fd"/><path d="m387.64 260.81v115.6c0 8.28-6.72 15-15 15-8.29 0-15-6.72-15-15v-2.51c-10.37 6.77-22.74 10.73-36.02 10.73s-25.65-3.94-36.01-10.72v-55.3c0 19.86 16.15 36.02 36.01 36.02s36.02-16.16 36.02-36.02-16.16-36.01-36.02-36.01-36.01 16.15-36.01 36.01v-55.3c10.36-6.77 22.73-10.71 36.01-10.71s25.65 3.95 36.02 10.73v-2.52c0-8.28 6.71-15 15-15 8.28 0 15 6.72 15 15z" fill="#d5e7fd"/><path d="m199.462 331.175h7.529c8.284 0 15-6.716 15-15s-6.716-15-15-15h-7.529c-8.284 0-15 6.716-15 15s6.716 15 15 15z" fill="#ecf4ff"/><path d="m365.052 150.469h7.531c8.284 0 15-6.716 15-15s-6.716-15-15-15h-7.531c-8.284 0-15 6.716-15 15s6.716 15 15 15z" fill="#d5e7fd"/><path d="m365.052 90.234h7.529c8.284 0 15-6.716 15-15s-6.716-15-15-15h-7.529c-8.284 0-15 6.716-15 15s6.716 15 15 15z" fill="#d5e7fd"/></g></svg>