<svg id="Capa_1" enable-background="new 0 0 511.881 511.881" height="512" viewBox="0 0 511.881 511.881" width="512" xmlns="http://www.w3.org/2000/svg"><g><path d="m438.276 126.844-53.24-53.24c-2.813-2.813-6.628-4.394-10.606-4.394s-7.793 1.58-10.606 4.394l-118.49 118.49c-5.858 5.857-5.858 15.355 0 21.213 5.857 5.857-1.91 70.598 3.947 64.74l32.681-12.766c-5.858 5.857 10.755-4.591 16.613 1.266 2.929 2.929 6.768 4.394 10.606 4.394s7.678-1.465 10.606-4.394l118.49-118.49c5.857-5.857 5.857-15.355-.001-21.213z" fill="#01c1f0"/><path d="m507.488 110.875-106.483-106.482c-5.857-5.857-15.355-5.857-21.213 0l-42.592 42.593c-5.858 5.857-5.858 15.355 0 21.213l106.482 106.482c2.929 2.929 6.768 4.394 10.606 4.394s7.678-1.465 10.606-4.394l42.593-42.593c5.859-5.857 5.859-15.355.001-21.213z" fill="#00ade9"/><path d="m481.76 255.941v60.24c0 8.279-6.72 15-15 15h-421.64c-8.28 0-15-6.721-15-15 0-39.129-.059-61.375-.007-75.25 0 0 9.757-12.148 9.87-16.054.162-5.602-8.773-13.947-8.773-13.947.003-.036.007-.073.01-.109 3.131-31.749 12.824-61.553 27.706-88.04 0 0 11.723-3.379 14.439-7.542 2.767-4.241 2.014-17.646 2.014-17.646 15.356-20.401 34.094-38.108 55.385-52.295 0 0 14.574 5.217 19.76 2.324 3.597-2.007 6.38-17.322 6.38-17.322 29.894-14.586 63.499-22.769 99.035-22.769 8.28 0 15 6.72 15 15v169.66l-19.362 13.856 19.362 34.894h195.82c8.281 0 15.001 6.72 15.001 15z" fill="#3f558f"/><path d="m481.76 255.941v60.24c0 8.279-6.72 15-15 15h-195.82v-90.24h195.82c8.28 0 15 6.72 15 15z" fill="#1c3470"/><path d="m270.94 192.191v48.74h-240.827c0-9.359-.13-17.469 1.097-30.001l186.26.001-158.544-88.15s3.692-6.473 7.804-12.729c4.14-6.299 8.65-12.459 8.65-12.459l151.61 84.308-96.225-136.603 26.14-14.999z" fill="#5a729e"/><path d="m511.88 316.181v180.7c0 8.29-6.71 15-15 15h-45.23l-48.33-35.03-56.97 35.03h-331.35c-8.29 0-15-6.71-15-15v-180.7c0-8.29 6.71-15 15-15h481.88c8.29 0 15 6.71 15 15z" fill="#5a729e"/><path d="m511.88 316.181v180.7c0 8.29-6.71 15-15 15h-45.23l-48.33-35.03-56.97 35.03h-75.41v-210.7h225.94c8.29 0 15 6.71 15 15z" fill="#3f558f"/><g fill="#d5e7fd"><path d="m451.65 376.411v135.471h-105.3v-135.471c0-8.279 6.72-15 15-15h75.3c8.28 0 15 6.72 15 15z"/><path d="m90.234 391.412h-22.588c-8.284 0-15-6.716-15-15s6.716-15 15-15h22.588c8.284 0 15 6.716 15 15s-6.716 15-15 15z"/><path d="m90.234 451.647h-22.588c-8.284 0-15-6.716-15-15s6.716-15 15-15h22.588c8.284 0 15 6.716 15 15s-6.716 15-15 15z"/><path d="m173.058 391.412h-22.588c-8.284 0-15-6.716-15-15s6.716-15 15-15h22.588c8.284 0 15 6.716 15 15s-6.716 15-15 15z"/><path d="m173.312 451.393h-22.588c-8.284 0-15-6.716-15-15s6.716-15 15-15h22.588c8.284 0 15 6.716 15 15s-6.716 15-15 15z"/><path d="m256.136 391.157h-22.588c-8.284 0-15-6.716-15-15s6.716-15 15-15h22.588c8.284 0 15 6.716 15 15s-6.716 15-15 15z"/><path d="m256.136 451.393h-22.588c-8.284 0-15-6.716-15-15s6.716-15 15-15h22.588c8.284 0 15 6.716 15 15s-6.716 15-15 15z"/></g></g></svg>