<svg id="Capa_1" enable-background="new 0 0 511.883 511.883" height="512" viewBox="0 0 511.883 511.883" width="512" xmlns="http://www.w3.org/2000/svg"><g><path d="m405.711 510.301c-7.55 3.738-16.48.589-20.13-6.71l-14.68-29.36h-99.96v22.65c0 8.29-6.72 15-15 15s-15-6.71-15-15v-22.65h-99.96l-14.68 29.36c-3.653 7.305-12.588 10.443-20.13 6.71-7.41-3.71-10.41-12.721-6.71-20.13l67.77-135.53c3.7-7.41 12.683-1.836 20.093 1.874 7.41 3.7 10.447 4.135 6.737 11.546l-38.08 76.17h84.96v-82.88c0-8.28 6.72-10.283 15-10.283s15 2.002 15 10.283v82.88h84.96l-38.08-76.17c-3.71-7.41-.716-5.803 6.694-9.503 7.4-3.71 16.436-11.327 20.136-3.917l67.77 135.53c3.7 7.41.7 16.42-6.71 20.13z" fill="#7d4b56"/><path d="m405.711 510.301c-7.55 3.738-16.48.589-20.13-6.71l-14.68-29.36h-99.96v22.65c0 8.29-6.72 15-15 15v-158.94c8.28 0 15 .13 15 8.41v82.88h84.96l-38.08-76.17c-3.71-7.41-.716-5.803 6.694-9.503 7.4-3.71 16.436-11.327 20.136-3.917l67.77 135.53c3.7 7.41.7 16.42-6.71 20.13z" fill="#65304a"/><path d="m270.941 15.001v60.234c0 8.28-6.72 15-15 15s-15-6.72-15-15v-60.234c0-8.29 6.72-15 15-15s15 6.71 15 15z" fill="#7d4b56"/><path d="m270.941 15.001v60.234c0 8.28-6.72 15-15 15v-90.234c8.28 0 15 6.71 15 15z" fill="#65304a"/><path d="m338.701 75.299v60.23c0 8.29-6.71 15-15 15h-135.52c-8.29 0-15-6.71-15-15v-60.23c0-8.29 6.71-15 15-15h67.76l46.277 12.141c8.289 0 36.483-5.431 36.483 2.859z" fill="#a8796f"/><path d="m338.701 75.299v60.23c0 8.29-6.71 15-15 15h-67.76v-90.23h67.76c8.29 0 15 6.71 15 15z" fill="#7d4b56"/><path d="m481.761 127.877v233.47c0 8.29-6.72 15-15 15h-421.64c-8.28 0-15-6.71-15-15v-233.47c0-8.28 6.72-15 15-15h335.27c5.52 0 10.35 2.82 12.95 7.03 2.69 4.34 7.26 7.16 12.37 7.16h7.98c5.11 0 9.68-2.82 12.37-7.16 2.6-4.21 7.43-7.03 12.95-7.03h27.75c8.28 0 15 6.72 15 15z" fill="#ecf4ff"/><path d="m481.761 127.877v233.47c0 8.29-6.72 15-15 15h-210.82v-263.47h124.45c5.52 0 10.35 2.82 12.95 7.03 2.69 4.34 7.26 7.16 12.37 7.16h7.98c5.11 0 9.68-2.82 12.37-7.16 2.6-4.21 7.43-7.03 12.95-7.03h27.75c8.28 0 15 6.72 15 15z" fill="#d5e7fd"/><path d="m511.881 376.347c0 8.29-6.71 15-15 15h-481.88c-8.29 0-15-6.71-15-15 0-8.28 6.71-15 15-15h481.88c8.29 0 15 6.72 15 15z" fill="#a8796f"/><path d="m511.881 376.347c0 8.29-6.71 15-15 15h-240.94v-30h240.94c8.29 0 15 6.72 15 15z" fill="#7d4b56"/><path d="m432.992 93.889c-13.243 0-20.084-16.13-10.606-25.606l63.89-63.89c5.857-5.857 15.355-5.857 21.213 0s5.858 15.355 0 21.213l-63.89 63.89c-2.929 2.928-6.768 4.393-10.607 4.393z" fill="#7d4b56"/><path d="m443.599 68.283c-17.632-17.632-46.172-17.634-63.806 0-15.145 15.146-15.337 53.007-15.036 64.25.214 7.969 6.624 14.378 14.592 14.592 18.948.518 50.863-1.649 64.25-15.036 17.591-17.591 17.591-46.215 0-63.806z" fill="#ffbe00"/><path d="m218.291 331.117h-112.94c-8.284 0-15-6.716-15-15v-120.533c0-8.284 6.716-15 15-15h112.94c8.284 0 15 6.716 15 15v60.294c0 8.284-6.716 15-15 15s-15-6.716-15-15l15 45.238c8.284 0 15 6.716 15 15s-6.716 15.001-15 15.001z" fill="#d9438a"/><path d="m361.274 316.828c-.372 8.072-7.321 14.288-15.402 14.288h-180.221v-75.239c0-8.284 6.716-15 15-15h97.998c8.082 0 15.034 6.216 15.406 14.29.397 8.614-6.468 15.71-14.984 15.71l67.22 30.239c8.526.001 15.38 7.098 14.983 15.712z" fill="#01c1f0"/><path d="m346.291 301.117h-49.781c1.581-12.589-2.439-38.985-2.439-45.239 0-8.28-6.72-15-15-15h-23.13v60.239 1.629 28.371h90.35c8.29 0 15-6.72 15-15 0-8.291-6.71-15-15-15z" fill="#00ade9"/><path d="m342.531 180.647c-41.49 0-75.24 33.75-75.24 75.23 0 41.489 33.75 75.239 75.24 75.239 41.48 0 75.23-33.75 75.23-75.239 0-41.48-33.75-75.23-75.23-75.23z" fill="#ffbe00"/></g></svg>