<svg id="Capa_1" enable-background="new 0 0 511.883 511.883" height="512" viewBox="0 0 511.883 511.883" width="512" xmlns="http://www.w3.org/2000/svg"><g><path d="m225.824 37.647h-210.824c-8.284 0-15 6.716-15 15v406.588c0 8.284 6.716 15 15 15h210.824c8.284 0 15-6.716 15-15v-406.588c0-8.284-6.716-15-15-15z" fill="#ecf4ff"/><path d="m496.883 37.647h-210.824c-8.284 0-15 6.716-15 15v406.588c0 8.284 6.716 15 15 15h210.824c8.284 0 15-6.716 15-15v-406.588c0-8.284-6.716-15-15-15z" fill="#d5e7fd"/><g fill="#5a729e"><path d="m331.181 135.472c0 8.279-6.72 15-15 15h-120.48c-8.28 0-15-6.721-15-15 0-8.28 6.72-15 15-15h120.48c8.28-.001 15 6.719 15 15z"/><path d="m331.181 195.701c0 8.29-6.72 15-15 15h-120.48c-8.28 0-15-6.71-15-15 0-8.279 6.72-15 15-15h120.48c8.28 0 15 6.721 15 15z"/><path d="m331.181 255.941c0 8.28-6.72 15-15 15h-120.48c-8.28 0-15-6.72-15-15s6.72-15 15-15h120.48c8.28 0 15 6.72 15 15z"/><path d="m331.181 316.182c0 8.279-6.72 15-15 15h-120.48c-8.28 0-15-6.721-15-15 0-8.29 6.72-15 15-15h120.48c8.28 0 15 6.71 15 15z"/><path d="m331.181 376.411c0 8.28-6.72 15-15 15h-120.48c-8.28 0-15-6.72-15-15 0-8.279 6.72-15 15-15h120.48c8.28 0 15 6.721 15 15z"/></g><path d="m331.181 376.411c0 8.28-6.72 15-15 15h-60.24v-30h60.24c8.28 0 15 6.721 15 15z" fill="#3f558f"/><path d="m331.181 316.182c0 8.279-6.72 15-15 15h-60.24v-30h60.24c8.28 0 15 6.71 15 15z" fill="#3f558f"/><path d="m331.181 255.941c0 8.28-6.72 15-15 15h-60.24v-30h60.24c8.28 0 15 6.72 15 15z" fill="#3f558f"/><path d="m331.181 195.701c0 8.29-6.72 15-15 15h-60.24v-30h60.24c8.28 0 15 6.721 15 15z" fill="#3f558f"/><path d="m316.181 150.472h-60.24v-30h60.24c8.28 0 15 6.72 15 15 0 8.279-6.72 15-15 15z" fill="#3f558f"/><path d="m436.647 120.412h-60.235c-8.284 0-15 6.716-15 15v60.235c0 8.284 6.716 15 15 15h60.235c8.284 0 15-6.716 15-15v-60.235c0-8.284-6.715-15-15-15z" fill="#a72e78"/><path d="m436.647 240.883h-60.235c-8.284 0-15 6.716-15 15s6.716 15 15 15h60.235c8.284 0 15-6.716 15-15s-6.715-15-15-15z" fill="#a72e78"/><path d="m436.647 301.118h-60.235c-8.284 0-15 6.716-15 15s6.716 15 15 15h60.235c8.284 0 15-6.716 15-15s-6.715-15-15-15z" fill="#a72e78"/><path d="m436.647 361.353h-60.235c-8.284 0-15 6.716-15 15s6.716 15 15 15h60.235c8.284 0 15-6.716 15-15s-6.715-15-15-15z" fill="#a72e78"/><path d="m135.471 301.177h-60.236c-8.284 0-15 6.716-15 15v60.235c0 8.284 6.716 15 15 15h60.235c8.284 0 15-6.716 15-15v-60.235c.001-8.284-6.715-15-14.999-15z" fill="#d9438a"/><path d="m135.471 180.706h-60.236c-8.284 0-15 6.716-15 15v60.235c0 8.284 6.716 15 15 15h60.235c8.284 0 15-6.716 15-15v-60.235c.001-8.284-6.715-15-14.999-15z" fill="#d9438a"/><path d="m75.235 150.471h60.235c8.284 0 15-6.716 15-15s-6.716-15-15-15h-60.235c-8.284 0-15 6.716-15 15s6.716 15 15 15z" fill="#d9438a"/></g></svg>