<svg id="Capa_1" enable-background="new 0 0 511.88 511.88" height="512" viewBox="0 0 511.88 511.88" width="512" xmlns="http://www.w3.org/2000/svg"><g><path d="m511.88 52.65v444.23c0 8.279-6.72 15-15 15h-481.88c-8.28 0-15-6.721-15-15v-444.23c0-8.28 6.72-15 15-15h60.23c8.28 0 15 6.72 15 15h331.42c0-8.28 6.72-15 15-15h60.23c8.28 0 15 6.72 15 15z" fill="#a8796f"/><path d="m511.88 52.65v444.23c0 8.279-6.72 15-15 15h-240.94v-459.23h165.71c0-8.28 6.72-15 15-15h60.23c8.28 0 15 6.72 15 15z" fill="#7d4b56"/><path d="m481.82 15v451.82c0 8.29-6.71 15-15 15h-421.76c-8.29 0-15-6.71-15-15v-451.82c0-8.29 6.71-15 15-15h421.76c8.29 0 15 6.71 15 15z" fill="#ecf4ff"/><path d="m481.82 15v451.82c0 8.29-6.71 15-15 15h-210.88v-481.82h210.88c8.29 0 15 6.71 15 15z" fill="#d5e7fd"/><path d="m240.94 0h30v481.82h-30z" fill="#d5e7fd"/><path d="m255.94 0h15v481.82h-15z" fill="#b4daff"/><g fill="#01c1f0"><circle cx="105.396" cy="90.239" r="15.005"/><circle cx="165.631" cy="90.239" r="15.005"/><path d="m135.513 165.479c-8.284 0-15.005-6.721-15.005-15.005s6.721-15.005 15.005-15.005 15.006 6.721 15.006 15.005-6.722 15.005-15.006 15.005z"/><circle cx="165.641" cy="210.71" r="15.005"/><circle cx="105.396" cy="270.945" r="15.005"/><circle cx="165.641" cy="270.945" r="15.005"/><circle cx="165.641" cy="331.18" r="15.005"/><circle cx="105.406" cy="331.18" r="15.005"/><path d="m135.513 406.421c-8.284 0-15.005-6.721-15.005-15.005s6.721-15.005 15.005-15.005 15.006 6.721 15.006 15.005-6.722 15.005-15.006 15.005z"/></g><circle cx="346.239" cy="391.406" fill="#00ade9" r="15.005"/><circle cx="406.475" cy="391.406" fill="#00ade9" r="15.005"/><circle cx="406.475" cy="331.18" fill="#00ade9" r="15.005"/><circle cx="376.356" cy="270.945" fill="#00ade9" r="15.005"/><circle cx="346.239" cy="210.71" fill="#00ade9" r="15.005"/><circle cx="406.475" cy="210.71" fill="#00ade9" r="15.005"/><circle cx="406.475" cy="150.474" fill="#00ade9" r="15.005"/><circle cx="346.249" cy="150.474" fill="#00ade9" r="15.005"/><circle cx="376.356" cy="90.239" fill="#00ade9" r="15.005"/></g></svg>