<svg id="Capa_1" enable-background="new 0 0 511.88 511.88" height="512" viewBox="0 0 511.88 511.88" width="512" xmlns="http://www.w3.org/2000/svg"><g><path d="m511.88 30.052v361.14c0 8.29-6.72 15-15 15h-82.69c-8.28 0-15-6.71-15-15h-60.36c0 8.29-6.72 15-15 15h-308.83c-8.28 0-15-6.71-15-15v-361.14c0-8.29 6.72-15 15-15h481.88c8.28 0 15 6.71 15 15z" fill="#ecf4ff"/><path d="m511.88 30.052v361.14c0 8.29-6.72 15-15 15h-82.69c-8.28 0-15-6.71-15-15h-60.36c0 8.29-6.72 15-15 15h-67.89v-391.14h240.94c8.28 0 15 6.71 15 15z" fill="#d5e7fd"/><path d="m75.234 165.52c-8.284 0-15-6.716-15-15v-60.235c0-8.284 6.716-15 15-15h60.235c8.284 0 15 6.716 15 15s-6.716 15-15 15h-45.235v45.235c0 8.285-6.716 15-15 15z" fill="#01c1f0"/><path d="m135.469 345.963h-60.235c-8.284 0-15-6.716-15-15v-60.235c0-8.284 6.716-15 15-15s15 6.716 15 15v45.235h45.235c8.284 0 15 6.716 15 15s-6.716 15-15 15z" fill="#01c1f0"/><path d="m436.646 165.52c-8.284 0-15-6.716-15-15v-45.235h-45.235c-8.284 0-15-6.716-15-15s6.716-15 15-15h60.235c8.284 0 15 6.716 15 15v60.235c0 8.285-6.716 15-15 15z" fill="#00ade9"/><path d="m429.19 374.841v106.97c0 11.16-11.76 18.39-21.71 13.42l-31.91-15.85c-2.1-1.04-4.39-1.56-6.69-1.56-2.29 0-4.59.53-6.69 1.58l-31.65 15.83c-9.94 4.96-21.71-2.25-21.71-13.42v-107.41c0-13.32 16.2-20.01 25.61-10.6 2.71 2.71 4.39 6.46 4.39 10.6h30.05l30.31.01c0-3.36 1.11-6.47 2.98-8.98.44-.58.91-1.12 1.41-1.63.51-.5 1.05-.97 1.63-1.41 2.51-1.87 5.62-2.98 8.98-2.98.33 0 .66.01.99.04.18 0 .36.02.54.04.07 0 .14.01.21.03 7.57.88 13.26 7.581 13.26 15.32z" fill="#5a729e"/><path d="m429.19 374.411v107.4c0 11.16-11.76 18.39-21.71 13.42l-31.91-15.85c-2.1-1.04-4.39-1.56-6.69-1.56v-103.42l30.31.01c0-3.36 1.11-6.47 2.98-8.98.43-.57.9-1.12 1.41-1.63s1.06-.98 1.63-1.41c2.51-1.87 5.62-2.98 8.98-2.98.33 0 .66.01.99.04.18 0 .36.02.54.04.07 0 .14.01.21.03 7.46.86 13.26 7.2 13.26 14.89z" fill="#3f558f"/><path d="m451.91 295.441v56.25c0 3.98-1.58 7.79-4.39 10.61l-40.708 24.373c-2.82 2.81-8.701 9.872-12.681 9.872l-25.252 9.915h-27.99c-3.98 0-7.79-1.58-10.61-4.39l-39.77-39.77c-2.81-2.82-4.39-6.63-4.39-10.61v-56.25c0-3.98 1.58-7.79 4.39-10.61l39.77-39.77c2.82-2.81 6.63-4.39 10.61-4.39h56.25c3.98 0 7.79 1.58 10.61 4.39l39.77 39.77c2.811 2.82 4.391 6.63 4.391 10.61z" fill="#ffd92c"/><path d="m451.91 295.441v56.25c0 3.98-1.58 7.79-4.39 10.61l-39.77 39.77c-2.82 2.81-6.63 4.39-10.61 4.39h-28.26v-165.79h28.26c3.98 0 7.79 1.58 10.61 4.39l39.77 39.77c2.81 2.82 4.39 6.63 4.39 10.61z" fill="#ffbe00"/><path d="m391.41 323.701c0 8.28-6.72 15-15 15h-15.06c-8.28 0-15-6.72-15-15 0-8.29 6.72-15 15-15h15.06c8.28 0 15 6.71 15 15z" fill="#ffbe00"/><path d="m391.41 323.701c0 8.28-6.72 15-15 15h-7.53v-30h7.53c8.28 0 15 6.71 15 15z" fill="#ff9f22"/><g fill="#5a729e"><path d="m316.12 210.492c0 8.28-6.72 15-15 15h-165.65c-8.28 0-15-6.72-15-15s6.72-15 15-15h165.65c8.28 0 15 6.719 15 15z"/><path d="m346.23 150.521c0 8.28-6.71 15-15 15h-195.76c-8.28 0-15-6.72-15-15 0-8.29 6.72-15 15-15h195.76c8.29 0 15 6.711 15 15z"/><path d="m240.881 285.727h-105.412c-8.284 0-15-6.716-15-15s6.716-15 15-15h105.412c8.284 0 15 6.716 15 15s-6.715 15-15 15z"/></g><path d="m316.12 210.492c0 8.28-6.72 15-15 15h-45.18v-30h45.18c8.28 0 15 6.719 15 15z" fill="#3f558f"/><path d="m346.23 150.521c0 8.28-6.71 15-15 15h-75.29v-30h75.29c8.29 0 15 6.711 15 15z" fill="#3f558f"/></g></svg>