<svg id="Capa_1" enable-background="new 0 0 511.88 511.88" height="512" viewBox="0 0 511.88 511.88" width="512" xmlns="http://www.w3.org/2000/svg"><g><path d="m97.82 15h316.24v481.88h-316.24z" fill="#ecf4ff"/><path d="m255.94 15h158.12v481.88h-158.12z" fill="#d5e7fd"/><path d="m338.7 301.12v50.19c0 6.27-7.274 7.279-13.164 9.46l-69.596 30.64c-3.816 0-2.681.011-72.97-26.029-5.89-2.181-9.79-7.801-9.79-14.07v-50.19c0-13.344 16.212-19.997 25.6-10.609 2.72 2.71 4.4 6.47 4.4 10.609h105.52c0-8.29 6.72-15 15-15 8.29-.001 15 6.709 15 14.999z" fill="#5a729e"/><path d="m338.7 293.59v60.229c0 6.46-4.13 12.19-10.25 14.23l-67.76 22.59c-1.54.51-3.15.77-4.75.77s-3.2-.26-4.74-.77l-67.77-22.59c-6.12-2.04-10.25-7.771-10.25-14.23v-60.229c0-8.29 6.71-15 15-15 4.14 0 7.89 1.68 10.6 4.39 2.72 2.72 4.4 6.46 4.4 10.61h105.52c0-3.24 1.02-6.221 2.76-8.67 2.72-3.83 7.19-6.33 12.24-6.33.1 0 .19 0 .29.01 8.16.15 14.71 6.8 14.71 14.99z" fill="#5a729e"/><path d="m338.7 293.59v60.229c0 6.46-4.13 12.19-10.25 14.23l-67.76 22.59c-1.54.51-3.15.77-4.75.77v-106.489h67.2c0-2.2.3-4.32.85-6.32 8.16.15 14.71 6.8 14.71 14.99z" fill="#3f558f"/><path d="m368.81 275.74c-.23 6.21-4.26 11.63-10.13 13.641l-97.89 33.46c-1.57.54-3.21.81-4.85.81s-3.28-.27-4.85-.81l-97.89-33.46c-5.87-2.011-9.9-7.431-10.13-13.641s3.38-11.91 9.09-14.35l97.89-41.83c1.88-.8 3.89-1.21 5.89-1.21s4.01.41 5.89 1.21l97.89 41.83c5.71 2.44 9.32 8.14 9.09 14.35z" fill="#3f558f"/><path d="m368.81 275.74c-.23 6.21-4.26 11.63-10.13 13.641l-97.89 33.46c-1.57.54-3.21.81-4.85.81v-105.3c2 0 4.01.41 5.89 1.21l97.89 41.83c5.71 2.439 9.32 8.139 9.09 14.349z" fill="#1c3470"/><path d="m218.293 60.293h-60.235c-8.284 0-15 6.716-15 15v60.235c0 8.284 6.716 15 15 15h60.235c8.284 0 15-6.716 15-15v-60.235c0-8.284-6.716-15-15-15z" fill="#d9438a"/><path d="m353.823 90.293h-75.295c-8.284 0-15-6.716-15-15s6.716-15 15-15h75.295c8.284 0 15 6.716 15 15s-6.716 15-15 15z" fill="#00ade9"/><path d="m353.823 150.528h-75.295c-8.284 0-15-6.716-15-15s6.716-15 15-15h75.295c8.284 0 15 6.716 15 15s-6.716 15-15 15z" fill="#00ade9"/><path d="m414.06 0h-316.24c-8.28 0-15 6.71-15 15v481.88c0 8.29 6.72 15 15 15h105.47l52.65-21.66 52.65 21.66h105.47c8.28 0 15-6.71 15-15v-481.88c0-8.29-6.72-15-15-15zm-15 436.65h-90.47l-52.65 16.03-52.65-16.03h-90.47v-406.65h286.24z" fill="#5a729e"/><path d="m429.06 15v481.88c0 8.29-6.72 15-15 15h-105.47l-52.65-21.66v-37.54l52.65-16.03h90.47v-406.65h-143.12v-30h158.12c8.28 0 15 6.71 15 15z" fill="#3f558f"/><path d="m203.29 436.65h105.3v75.23h-105.3z" fill="#3f558f"/><path d="m255.94 436.65h52.65v75.23h-52.65z" fill="#1c3470"/><path d="m353.823 210.705h-30.118c-8.284 0-15-6.716-15-15s6.716-15 15-15h30.118c8.284 0 15 6.716 15 15s-6.716 15-15 15z" fill="#00ade9"/></g></svg>