<svg id="Capa_1" enable-background="new 0 0 511.88 511.88" height="512" viewBox="0 0 511.88 511.88" width="512" xmlns="http://www.w3.org/2000/svg"><g><path d="m15 131.706h481.88v293.65h-481.88z" fill="#ecf4ff"/><path d="m256 131.706h240.88v293.65h-240.88z" fill="#d5e7fd"/><path d="m361.352 425.356v60.23c0 8.29-13.683 6.57-23.361 6.57l-81.98-.25-83.755-.26c-9.678 0-21.727 2.23-21.727-6.06v-60.23c0-8.29 7.834-15 17.512-15h175.799c9.678 0 17.512 6.71 17.512 15z" fill="#3f558f"/><path d="m361.352 425.356v60.23c0 8.29-13.684 6.57-23.364 6.57l-81.988-.25v-81.55h87.838c9.679 0 17.514 6.71 17.514 15z" fill="#1c3470"/><path d="m414.058 485.586c0 8.29-6.72 15-15 15h-293.708c-8.28 0-15-6.71-15-15 0-8.28 6.72-15 15-15h150.65l130.982 12.037c8.281 0 27.076-5.317 27.076 2.963z" fill="#5a729e"/><path d="m421.587 485.586c0 8.29-6.72 15-15 15h-150.587v-30h150.587c8.28 0 15 6.72 15 15z" fill="#3f558f"/><path d="m120.411 335.058c-33.182 0-60.177 26.995-60.177 60.177v30.118c0 8.284 6.716 15 15 15h90.354c8.284 0 15-6.716 15-15v-30.118c-.001-33.181-26.996-60.177-60.177-60.177z" fill="#a72e78"/><path d="m120.411 274.823c-24.878 0-45.118 20.24-45.118 45.118s20.24 45.118 45.118 45.118 45.117-20.24 45.117-45.118-20.239-45.118-45.117-45.118z" fill="#ffe3c0"/><path d="m511.88 131.706v293.65c0 8.28-6.72 15-15 15h-481.88c-8.28 0-15-6.72-15-15v-293.65c0-8.28 6.72-15 15-15h120.47c8.28 0 15 6.72 15 15s-6.72 15-15 15h-105.47v263.65h451.88v-263.65h-105.47c-8.28 0-15-6.72-15-15s6.72-15 15-15h120.47c8.28 0 15 6.72 15 15z" fill="#5a729e"/><path d="m511.88 131.706v293.65c0 8.28-6.72 15-15 15h-240.88v-30h225.88v-263.65h-105.47c-8.28 0-15-6.72-15-15s6.72-15 15-15h120.47c8.28 0 15 6.72 15 15z" fill="#3f558f"/><path d="m451.65 289.826c0 8.28-6.72 15-15 15h-225.89c-8.28 0-15-6.72-15-15 0-8.29 6.72-15 15-15h225.89c8.28 0 15 6.71 15 15z" fill="#01c1f0"/><path d="m436.646 365.058h-165.647c-8.284 0-15-6.716-15-15s6.716-15 15-15h165.647c8.284 0 15 6.716 15 15s-6.716 15-15 15z" fill="#01c1f0"/><path d="m451.65 289.826c0 8.28-6.72 15-15 15h-180.65v-30h180.65c8.28 0 15 6.71 15 15z" fill="#00ade9"/><path d="m188.175 48.941h-52.706c-8.284 0-15 6.716-15 15v158.177c0 8.284 6.716 15 15 15h40.506c7.107 0 13.238-4.987 14.686-11.945 20.936-100.629 20.525-95.141 19.098-100.171z" fill="#ffd92c"/><path d="m240.953 11.294h-37.778c-8.284 0-15 6.716-15 15v210.824h67.765l15.059-94.691-15-63.309-.046-52.836c-.007-8.28-6.721-14.988-15-14.988z" fill="#d9438a"/><path d="m255.999 79.117h75.235v158h-75.235z" fill="#00cd72"/><path d="m376.469 48.999h-37.706c-8.284 0-15 6.716-15 15v173.118h67.706v-173.118c0-8.284-6.715-15-15-15z" fill="#ffbe00"/><path d="m451.65 229.586c0 8.29-6.72 15-15 15h-361.42c-8.28 0-15-6.71-15-15 0-8.28 6.72-15 15-15h361.42c8.28 0 15 6.72 15 15z" fill="#27d9f7"/><path d="m436.65 244.586h-180.65v-30h180.65c8.28 0 15 6.72 15 15 0 8.29-6.72 15-15 15z" fill="#01c1f0"/></g></svg>