<svg id="Capa_1" enable-background="new 0 0 511.88 511.88" height="512" viewBox="0 0 511.88 511.88" width="512" xmlns="http://www.w3.org/2000/svg"><g><path d="m308.59 338.76c0 29.03-23.62 52.65-52.65 52.65s-52.65-23.62-52.65-52.65c0-12.58 7.4-27.01 22.62-44.12 10-11.23 19.91-19.67 20.33-20.02 5.585-4.747 13.815-4.747 19.4 0 .42.35 10.33 8.79 20.33 20.02 15.22 17.11 22.62 31.54 22.62 44.12z" fill="#fc6284"/><path d="m308.59 338.76c0 29.03-23.62 52.65-52.65 52.65v-120.35c3.45 0 6.9 1.18 9.7 3.56.42.35 10.33 8.79 20.33 20.02 15.22 17.11 22.62 31.54 22.62 44.12z" fill="#d9438a"/><path d="m376.35 391.41v60.24c0 8.28-6.71 15-15 15h-210.82c-8.29 0-15-6.72-15-15v-60.24c0-8.28 6.71-15 15-15h210.82c8.29 0 15 6.72 15 15z" fill="#3f558f"/><path d="m376.35 391.41v60.24c0 8.28-6.71 15-15 15h-105.41v-90.24h105.41c8.29 0 15 6.72 15 15z" fill="#1c3470"/><path d="m511.88 15v481.88c0 8.29-6.71 15-15 15h-481.88c-8.29 0-15-6.71-15-15v-481.88c0-8.29 6.71-15 15-15 8.28 0 15 6.71 15 15v113h82.88c8.29 0 15 6.71 15 15 0 8.28-6.71 15-15 15h-82.88v278.65h451.88v-286.18h-82.88c-8.29 0-15-6.72-15-15s6.71-15 15-15h82.88v-105.47c0-8.29 6.72-15 15-15 8.29 0 15 6.71 15 15z" fill="#5a729e"/><path d="m511.88 15v481.88c0 8.29-6.71 15-15 15h-240.94v-75.23h225.94v-286.18h-82.88c-8.29 0-15-6.72-15-15s6.71-15 15-15h82.88v-105.47c0-8.29 6.72-15 15-15 8.29 0 15 6.71 15 15z" fill="#3f558f"/><path d="m376.35 15v52.7c0 8.29-6.71 15-15 15-8.28 0-15-6.71-15-15v-37.7h-180.82v30.18c0 8.28-6.72 15-15 15-8.29 0-15-6.72-15-15v-45.18c0-8.29 6.71-15 15-15h210.82c8.29 0 15 6.71 15 15z" fill="#01c1f0"/><path d="m376.35 15v52.7c0 8.29-6.71 15-15 15-8.28 0-15-6.71-15-15v-37.7h-90.41v-30h105.41c8.29 0 15 6.71 15 15z" fill="#00ade9"/><path d="m188.175 60.234h-75.294c-8.284 0-15 6.716-15 15v180.706c0 29.03 23.617 52.647 52.647 52.647s52.647-23.617 52.647-52.647v-180.706c0-8.284-6.715-15-15-15z" fill="#ecf4ff"/><path d="m218.293 90.234h-135.529c-8.284 0-15-6.716-15-15s6.716-15 15-15h135.529c8.284 0 15 6.716 15 15s-6.716 15-15 15z" fill="#d5e7fd"/><path d="m203.18 203.23v52.71c0 29.03-23.62 52.65-52.65 52.65s-52.65-23.62-52.65-52.65v-52.71z" fill="#7fea82"/><path d="m398.999 52.705h-75.294c-8.284 0-15 6.716-15 15v180.706c0 29.03 23.617 52.647 52.647 52.647s52.647-23.617 52.647-52.647v-180.706c0-8.285-6.716-15-15-15z" fill="#d5e7fd"/><path d="m429.116 82.705h-135.529c-8.284 0-15-6.716-15-15s6.716-15 15-15h135.529c8.284 0 15 6.716 15 15s-6.716 15-15 15z" fill="#b4daff"/><path d="m414 195.7v52.71c0 29.03-23.62 52.65-52.65 52.65s-52.65-23.62-52.65-52.65v-52.71z" fill="#00cd72"/></g></svg>