<svg id="Capa_1" enable-background="new 0 0 511.88 511.88" height="512" viewBox="0 0 511.88 511.88" width="512" xmlns="http://www.w3.org/2000/svg"><g><path d="m459.18 15v210.88l-16.54 50.46c0 8.28-31.04 8.17-39.32 8.17l-64.5 31.61h-271.12c-8.28 0-15-6.72-15-15v-286.12c0-8.29 6.72-15 15-15h376.48c8.28 0 15 6.71 15 15z" fill="#00cd72"/><path d="m459.18 15v210.88l-16.54 50.46c0 8.28-31.04 8.17-39.32 8.17l-64.5 31.61h-82.94v-316.12h188.3c8.28 0 15 6.71 15 15z" fill="#009956"/><path d="m459.175 225.881h-105.353c-8.284 0-15 6.716-15 15v60.235c0 8.284 6.716 15 15 15h90.353c8.284 0 15-6.716 15-15z" fill="#ffbe00"/><path d="m451.65 361.35v135.53c0 8.29-6.72 15-15 15-8.29 0-15-6.71-15-15v-22.65h-331.42v22.65c0 8.29-6.71 15-15 15-8.28 0-15-6.71-15-15v-135.53c0-8.28 6.72-15 15-15 8.29 0 15 6.72 15 15v82.88h331.42v-82.88c0-8.28 6.71-15 15-15 8.28 0 15 6.72 15 15z" fill="#7d4b56"/><path d="m451.65 361.35v135.53c0 8.29-6.72 15-15 15-8.29 0-15-6.71-15-15v-22.65h-165.77v-30h165.77v-82.88c0-8.28 6.71-15 15-15 8.28 0 15 6.72 15 15z" fill="#65304a"/><path d="m511.88 316.12v30.23c0 8.29-6.71 15-15 15h-481.88c-8.29 0-15-6.71-15-15v-30.23c0-8.29 6.71-15 15-15h481.88c8.29 0 15 6.71 15 15z" fill="#a8796f"/><path d="m511.88 316.12v30.23c0 8.29-6.71 15-15 15h-241v-60.23h241c8.29 0 15 6.71 15 15z" fill="#7d4b56"/><g fill="#ecf4ff"><path d="m398.94 97.82c0 8.29-6.72 15-15 15h-256c-8.28 0-15-6.71-15-15 0-8.28 6.72-15 15-15h256c8.28 0 15 6.72 15 15z"/><path d="m398.94 158.06c0 8.28-6.72 15-15 15h-256c-8.28 0-15-6.72-15-15 0-8.29 6.72-15 15-15h256c8.28 0 15 6.71 15 15z"/><path d="m240.881 233.293h-112.941c-8.284 0-15-6.716-15-15s6.716-15 15-15h112.941c8.284 0 15 6.716 15 15s-6.715 15-15 15z"/></g><path d="m398.94 158.06c0 8.28-6.72 15-15 15h-128.06v-30h128.06c8.28 0 15 6.71 15 15z" fill="#d5e7fd"/><path d="m383.94 112.82h-128.06v-30h128.06c8.28 0 15 6.72 15 15 0 8.29-6.72 15-15 15z" fill="#d5e7fd"/></g></svg>