<svg id="Capa_1" enable-background="new 0 0 511.883 511.883" height="512" viewBox="0 0 511.883 511.883" width="512" xmlns="http://www.w3.org/2000/svg"><g><path d="m474.291 148.662c-8.284 0-15 6.716-15 15h-30.229c0-7.688-5.787-14.016-13.242-14.888-.872-7.454-7.2-13.242-14.888-13.242-.1 0 0 1.133 0-30.24 8.284 0 15-6.715 15-15 0-8.284-6.716-15-15-15h-54.7l-15.971 7.012c-8.284 0-14.029-.296-14.029 7.988v60.24c0 8.284 6.716 15 15 15h67.83v271.12c0 8.284 6.716 15 15 15h60.229c8.284 0 6.225-7.192 6.225-15.476l8.775-14.524v-257.99c0-8.284-6.716-15-15-15z" fill="#1c3470"/><circle cx="444.177" cy="120.412" fill="#ffbe00" r="67.706"/><path d="m286.002 383.942v52.71c0 8.28-6.72 15-15 15-8.29 0-15-6.72-15-15v-52.71c0-8.28 6.71-15 15-15 8.28 0 15 6.719 15 15z" fill="#3f558f"/><path d="m286.002 383.942v52.71c0 8.28-6.72 15-15 15v-82.71c8.28 0 15 6.719 15 15z" fill="#1c3470"/><path d="m331.182 376.411c0 8.28-6.72 15-15 15h-90.36c-8.28 0-15-6.72-15-15s6.72-15 15-15h90.36c8.28 0 15 6.721 15 15z" fill="#01c1f0"/><path d="m331.182 376.411c0 8.28-6.72 15-15 15h-45.18v-30h45.18c8.28 0 15 6.721 15 15z" fill="#00ade9"/><path d="m489.292 421.651v75.23c0 8.29-6.71 15-15 15h-331.29c-8.29 0-15-6.71-15-15v-60.23c0-8.29 6.71-15 15-15z" fill="#5a729e"/><path d="m489.292 421.651v75.23c0 8.29-6.71 15-15 15h-203.29v-90.23z" fill="#3f558f"/><path d="m316.122 15.002v75.29c0 8.29-6.72 15-15 15h-60.24c-8.28 0-15-6.71-15-15v-75.29c0-8.29 10.01-7.93 18.29-7.93l26.83.61 25.09.58c8.28 0 20.03-1.55 20.03 6.74z" fill="#3f558f"/><path d="m316.122 15.002v75.29c0 8.29-6.72 15-15 15h-30.12v-97.61l25.09.58c8.28 0 20.03-1.55 20.03 6.74z" fill="#1c3470"/><path d="m346.232 210.822-15.08 17.18 15.08 12.82v45.24c0 8.28-6.71 15-15 15h-120.47c-8.28 0-15-6.72-15-15v-45.24l9.95-15-9.95-15v-120.531c0-8.28 6.72-15 15-15h135.47z" fill="#5a729e"/><path d="m346.232 210.822-15.08 17.18 15.08 12.82v45.24c0 8.28-6.71 15-15 15h-60.23v-225.771h75.23z" fill="#3f558f"/><path d="m195.762 210.822h150.47v30h-150.47z" fill="#3f558f"/><path d="m271.002 210.822h75.23v30h-75.23z" fill="#1c3470"/><path d="m105.293 384.198-7.84-28.533-19.321-16.97-21.36-8.903-32.079 8.903-22.57 37.803c-2.828 4.736-2.828 10.643 0 15.379l18.205 30.492c2.707 4.534 7.599 7.311 12.88 7.311h36.41c5.281 0 10.173-2.777 12.88-7.311z" fill="#d9438a"/><path d="m105.29 293.214-22.795-38.182c-2.707-4.534-7.598-7.311-12.879-7.311h-36.41c-5.281 0-10.173 2.777-12.88 7.311l-18.205 30.493c-2.828 4.736-2.828 10.643 0 15.379l22.571 37.792 53.438.011 19.833-16.914z" fill="#7fea82"/><path d="m181.301 331.016-18.204-30.492c-2.707-4.534-7.599-7.311-12.879-7.311h-44.925l-27.161 45.492 27.161 45.492h44.924c5.281 0 10.173-2.777 12.88-7.311l18.204-30.492c2.828-4.735 2.828-10.641 0-15.378z" fill="#ffbe00"/><g fill="#01c1f0"><path d="m150.53 158h-112.941c-8.284 0-15-6.716-15-15s6.716-15 15-15h112.941c8.284 0 15 6.716 15 15s-6.716 15-15 15z"/><path d="m150.53 97.765h-112.941c-8.284 0-15-6.716-15-15s6.716-15 15-15h112.941c8.284 0 15 6.716 15 15s-6.716 15-15 15z"/><path d="m112.883 218.235h-75.294c-8.284 0-15-6.716-15-15s6.716-15 15-15h75.294c8.284 0 15 6.716 15 15s-6.716 15-15 15z"/><path d="m353.762 15.002c0 8.28-6.71 15-15 15h-135.53c-8.28 0-15-6.72-15-15 0-8.29 6.72-15 15-15h135.53c8.29 0 15 6.71 15 15z"/></g><path d="m353.762 15.002c0 8.28-6.71 15-15 15h-67.76v-30h67.76c8.29 0 15 6.71 15 15z" fill="#00ade9"/></g></svg>