<svg id="Capa_1" enable-background="new 0 0 512.105 512.105" height="512" viewBox="0 0 512.105 512.105" width="512" xmlns="http://www.w3.org/2000/svg"><g><path d="m511.992 15v225.88l-37.07 99.8c-4.02 6.84-85.91 50.73-85.91 50.73-8.29 0-15-6.73-15-15h-235.91c0 8.28-6.72 15-15 15h-107.99c-8.28 0-15-6.72-15-15v-361.41c0-8.28 6.72-15 15-15h481.88c8.28 0 15 6.72 15 15z" fill="#d5e7fd"/><path d="m511.992 15v225.88l-37.07 99.8c-4.02 6.84-85.91 50.73-85.91 50.73-8.29 0-15-6.73-15-15h-117.96v-376.41h240.94c8.28 0 15 6.72 15 15z" fill="#b4daff"/><path d="m391.583 150.59h-15.061c-33.184 0-60.18 26.992-60.18 60.17v30.12c0 8.284 6.716 15 15 15s15-6.716 15-15h75.42c0 8.284 6.716 15 15 15s15-6.716 15-15v-30.12c0-33.178-26.996-60.17-60.179-60.17z" fill="#a72e78"/><circle cx="384.054" cy="120.411" fill="#fcd0a2" r="60.175"/><path d="m496.993 225.88h-225.881c-8.284 0-15.04 6.756-15.04 15.04l-.02 60.26.06 17.57c0 15.779 21.464 20.865 28.462 6.584l90.976 44.492c-4.867 9.929 2.357 21.584 13.462 21.584h107.98c8.284 0 15-6.716 15-15v-135.53c.001-8.284-6.715-15-14.999-15z" fill="#3f558f"/><path d="m406.582 361.35c0 6.86-1.15 13.6-3.43 20.05-2.774 7.873-11.389 11.881-19.13 9.16-6.16-2.17-69.08-2.17-75.24 0-2.51.88-5.1 1.05-7.55.62-2.586.456-5.171.22-7.56-.62-6.199-2.174-69.052-2.17-75.24 0-2.51.88-5.1 1.05-7.55.62-2.607.466-5.212.206-7.56-.62-6.16-2.17-69.07-2.17-75.24 0-7.81 2.75-16.38-1.35-19.13-9.16-13.805-39.226 15.427-80.22 56.75-80.22 17.98 0 34.14 7.94 45.18 20.49 12.015-13.671 28.594-20.493 45.17-20.49 0 0 33.164 28.664 45.17 42.313 36.596-41.638 105.36 17.857 105.36 17.857z" fill="#fc6284"/><path d="m406.582 361.35c0 6.86-1.15 13.6-3.43 20.05-2.774 7.873-11.389 11.881-19.13 9.16-6.16-2.17-69.08-2.17-75.24 0-2.51.88-5.1 1.05-7.55.62-2.586.456-5.171.22-7.56-.62-3.08-1.08-20.35-1.63-37.62-1.63v-87.75c17.98 0 34.14 7.94 45.18 20.49 36.595-41.638 105.35-15.52 105.35 39.68z" fill="#d9438a"/><path d="m451.752 421.58c0 6.86-1.15 13.6-3.42 20.05-2.773 7.87-11.389 11.881-19.13 9.16-6.17-2.17-69.08-2.17-75.24 0-2.51.88-5.1 1.05-7.55.62-2.619.462-5.2.21-7.56-.62-6.17-2.17-69.08-2.17-75.24 0-4.067 1.426-7.341.62-7.56.62-2.6.459-5.174.215-7.55-.62-6.16-2.17-69.09-2.17-75.25 0-2.51.88-5.1 1.05-7.55.62-2.619.462-5.2.21-7.56-.62-6.17-2.17-69.08-2.17-75.24 0-7.81 2.75-16.38-1.35-19.13-9.16-13.874-39.421 15.59-80.22 56.75-80.22 17.99 0 34.14 7.94 45.18 20.49 24.04-27.352 66.367-27.288 90.35 0 0 0 68.4-5.865 92.404 21.423 36.626-41.635 103.296-36.949 103.296 18.257z" fill="#d9438a"/><path d="m451.752 421.58c0 6.86-1.15 13.6-3.42 20.05-2.773 7.87-11.389 11.881-19.13 9.16-6.17-2.17-69.08-2.17-75.24 0-2.51.88-5.1 1.05-7.55.62-2.619.462-5.2.21-7.56-.62-6.17-2.17-69.08-2.17-75.24 0-4.067 1.426-7.341.62-7.56.62v-69.51c24.061-27.352 66.345-27.288 90.35 0 36.626-41.635 105.35-15.526 105.35 39.68z" fill="#a72e78"/><path d="m496.932 481.82c0 6.874-1.775 18.266-4.94 23.13-2.018 3.199-5.463 5.703-9.22 6.52-2.723.71-451.21.357-451.31.35-5.525-.527-10.387-3.75-12.87-9.95-13.768-41.262 16.766-80.22 56.75-80.22 17.99 0 34.14 7.94 45.18 20.49 24.099-27.396 66.406-27.244 90.35 0 12.025-13.67 28.605-20.492 45.18-20.49 0 0 36.482 33.81 48.489 47.46 23.991-27.298 88.851-4.596 88.851-4.596s103.54-37.9 103.54 17.306z" fill="#fc6284"/><path d="m496.932 481.82c0 6.874-1.775 18.266-4.94 23.13-1.007 1.597-2.428 3.081-3.97 4.16-5.555 4.168 5.174 2.77-231.97 2.77v-90.23c17.99 0 34.14 7.94 45.18 20.49 23.991-27.298 66.297-27.342 90.35 0 36.626-41.635 105.35-15.526 105.35 39.68z" fill="#d9438a"/><path d="m240.935 67.705h-158.118c-8.284 0-15 6.716-15 15v52.765l60.177 22.588 60.294-7.529 37.647-15.059h15.001c8.284 0 15-6.716 15-15v-37.765c-.001-8.285-6.716-15-15.001-15z" fill="#27d9f7"/><path d="m225.817 135.469h-158v67.765l67.765 22.588 52.706-22.588h22.529c8.284 0 15-6.716 15-15z" fill="#ffbe00"/><path d="m188.229 203.234c-14.548 0-105.71 0-120.354 0v52.706c0 8.284 6.716 15 15 15h90.354c8.284 0 15-6.716 15-15z" fill="#00cd72"/></g></svg>